v 93.7438989 29.2434847 30.825
v 93.7438989 26.2441421 30.825
v 93.7438989 30.2252162 30.6615534
v 89.2504227 32.2469473 30.825
v 93.7343717 26.2347257 30.825
v 93.7438989 26.2347257 29.4491127
v 90.226661 32.2469473 30.6615534
v 93.7438989 30.6378025 29.7492089
v 86.2564838 32.2469473 30.825
v 90.7499582 26.2347257 30.825
v 93.7438989 26.2347257 17.1398073
v 90.6517482 32.2469473 29.7492089
v 93.7438989 30.824967 28.2487276
v 86.2564838 30.7496309 30.825
v 86.2564838 32.2469473 17.1398073
v 89.775188 26.2347257 30.6615534
v 89.3435025 26.2347257 17.1398073
v 93.7438989 31.0215497 17.1398073
v 90.8511007 32.2469473 28.2487276
v 86.2564838 29.7743726 30.6615534
v 91.0379934 32.2469473 17.1398073
v 86.2564838 28.9780426 17.1398073
v 89.3625605 26.2347257 29.7492089
v 88.9785147 26.2417889 17.1398073
v 89.1610086 26.2347257 17.7507175
v 86.2564838 29.361788 29.7492089
v 89.1756678 26.2347257 28.2487276
v 86.2564838 29.1752136 28.2487276
v 89.3603611 26.2347257 29.7344711
f 1 2 6
f 1 6 11
f 1 11 18
f 1 18 13
f 1 13 8
f 1 8 3
f 1 3 4
f 1 4 9
f 1 9 14
f 1 14 10
f 1 10 5
f 1 5 2
f 2 5 6
f 3 7 4
f 3 8 7
f 4 7 12
f 4 12 19
f 4 19 21
f 4 21 15
f 4 15 9
f 5 10 16
f 5 16 23
f 5 23 29
f 5 29 27
f 5 27 25
f 5 25 17
f 5 17 11
f 5 11 6
f 7 8 12
f 8 13 12
f 9 15 22
f 9 22 28
f 9 28 26
f 9 26 20
f 9 20 14
f 10 14 16
f 11 17 24
f 11 24 22
f 11 22 15
f 11 15 21
f 11 21 18
f 12 13 19
f 13 18 19
f 14 20 16
f 16 20 23
f 17 25 24
f 18 21 19
f 20 26 23
f 22 24 27
f 22 27 28
f 23 26 29
f 24 25 27
f 26 28 27
f 26 27 29
