v 28.149004 58.0990183 1.39723057
v 29.0411639 58.0990183 13.2495193
v 57.83741 58.0990183 1.39723057
v 28.4105515 30.752703 1.39723057
v 29.1777492 30.752703 13.2495193
v 29.0818548 58.0990183 13.6988679
v 57.83741 28.258177 1.39723057
v 57.83741 58.0990183 15.9214389
v 28.4715772 30.2590549 1.39723057
v 29.587512 29.5901513 13.2495193
v 29.6834064 29.6836209 14.7497185
v 29.3637371 30.752703 14.7497185
v 29.2184401 58.0990183 14.7497185
v 57.83741 29.1227889 13.2495193
v 30.7528424 29.1753674 13.2495193
v 30.7528424 28.4100688 1.39723057
v 29.918797 58.0990183 15.9214389
v 57.83741 30.3583699 15.9214389
v 29.0702248 29.070214 1.39723057
v 30.2588081 28.4714091 1.39723057
v 30.7528424 29.3623137 14.7497185
v 29.8519635 29.8501182 15.6071787
v 29.7764039 30.752703 15.6612145
v 29.6601605 58.0990183 15.8190554
v 29.3317723 58.0990183 15.0739323
v 57.83741 29.1344762 13.3618564
v 30.7528424 57.1613798 15.9214389
v 30.7528424 30.752703 15.8247434
v 57.4654341 30.5657601 15.9214389
v 30.7528424 29.7770905 15.6612145
v 57.83741 29.8530364 15.7835058
v 57.83741 29.3155754 14.7497185
v 57.83741 29.3447864 14.8307722
v 57.83741 29.7449613 15.7394237
v 57.1602988 30.752703 15.9214389
f 1 2 6
f 1 6 13
f 1 13 25
f 1 25 24
f 1 24 17
f 1 17 8
f 1 8 3
f 1 3 7
f 1 7 16
f 1 16 20
f 1 20 19
f 1 19 9
f 1 9 4
f 1 4 5
f 1 5 2
f 2 5 6
f 3 8 18
f 3 18 31
f 3 31 34
f 3 34 33
f 3 33 32
f 3 32 26
f 3 26 14
f 3 14 7
f 4 9 5
f 5 9 10
f 5 10 11
f 5 11 12
f 5 12 6
f 6 12 13
f 7 14 15
f 7 15 16
f 8 17 27
f 8 27 35
f 8 35 29
f 8 29 18
f 9 19 10
f 10 19 20
f 10 20 15
f 10 15 11
f 11 15 21
f 11 21 22
f 11 22 12
f 12 22 23
f 12 23 24
f 12 24 25
f 12 25 13
f 14 26 15
f 15 20 16
f 15 26 21
f 17 24 23
f 17 23 28
f 17 28 27
f 18 29 28
f 18 28 30
f 18 30 31
f 21 32 33
f 21 33 34
f 21 34 30
f 21 30 22
f 21 26 32
f 22 30 28
f 22 28 23
f 27 28 35
f 28 29 35
f 30 34 31
