v 93.7438989 26.2347257 15.9228609
v 93.7438989 26.2347257 29.4494417
v 93.7438989 32.2434157 15.9228609
v 120.009192 26.2347257 15.9228609
v 93.7438989 26.2441421 30.8235409
v 93.7516129 26.2347257 30.8235409
v 93.7438989 32.2428274 16.0439336
v 93.7490416 32.2469473 15.9228609
v 120.009192 32.2469473 15.9228609
v 120.009192 26.2347257 30.8235409
v 93.7438989 29.2434847 30.8235409
v 93.7438989 30.824967 28.248926
v 93.7516129 32.2469473 16.0410162
v 120.009192 32.2469473 16.0395575
v 120.009192 29.2499614 30.8235409
v 93.7438989 30.2252162 30.6616249
v 93.7516129 29.2499614 30.8235409
v 93.7438989 30.6378025 29.7499349
v 120.009192 30.824967 28.248926
v 120.009192 29.7431803 30.7418551
v 120.009192 30.2252162 30.6616249
v 120.009192 30.6378025 29.7499349
f 1 2 5
f 1 5 11
f 1 11 16
f 1 16 18
f 1 18 12
f 1 12 7
f 1 7 3
f 1 3 8
f 1 8 9
f 1 9 4
f 1 4 10
f 1 10 6
f 1 6 2
f 2 6 5
f 3 7 8
f 4 9 14
f 4 14 19
f 4 19 22
f 4 22 21
f 4 21 20
f 4 20 15
f 4 15 10
f 5 6 10
f 5 10 15
f 5 15 17
f 5 17 11
f 7 12 13
f 7 13 8
f 8 13 14
f 8 14 9
f 11 17 16
f 12 18 22
f 12 22 19
f 12 19 13
f 13 19 14
f 15 20 17
f 16 17 20
f 16 20 21
f 16 21 22
f 16 22 18
