v 26.6688251 93.0512023 15.9228604
v 32.2695708 93.0484807 15.9228604
v 26.6688251 93.0512023 17.7513621
v 26.6688251 120.819561 15.9228604
v 32.2695708 93.0484807 16.075534
v 33.701663 93.0484807 15.9228604
v 30.8486795 93.0512023 17.7513621
v 26.6688251 120.819561 17.7513621
v 29.2501688 120.819561 15.9228604
v 34.2927074 93.0484807 15.92823
v 34.2927074 93.0892611 15.9228604
v 30.8382297 119.245462 17.7513621
v 29.2494249 120.819561 17.7513621
v 29.2501688 120.819561 17.7499303
v 29.5770335 120.800529 15.9228604
v 34.2927074 93.0729496 15.9251873
v 33.0747986 118.571234 15.9228604
v 32.8374839 119.245462 15.9228604
v 30.419569 120.40633 17.7513621
v 30.419569 120.409048 17.7499303
v 31.6210628 120.305736 15.9228604
v 31.0568833 120.460703 15.9228604
f 1 2 5
f 1 5 3
f 1 3 8
f 1 8 4
f 1 4 9
f 1 9 15
f 1 15 22
f 1 22 21
f 1 21 18
f 1 18 17
f 1 17 11
f 1 11 6
f 1 6 2
f 2 6 10
f 2 10 5
f 3 5 7
f 3 7 12
f 3 12 19
f 3 19 13
f 3 13 8
f 4 8 13
f 4 13 14
f 4 14 9
f 5 10 7
f 6 11 10
f 7 10 12
f 9 14 15
f 10 11 16
f 10 16 17
f 10 17 12
f 11 17 16
f 12 17 18
f 12 18 19
f 13 19 20
f 13 20 14
f 14 20 21
f 14 21 22
f 14 22 15
f 18 21 20
f 18 20 19
