v 213.060164 119.247726 30.825
v 213.060164 119.776279 30.7365783
v 210.750389 119.247726 30.825
v 213.060164 92.2551298 30.825
v 213.060164 120.223732 30.6615534
v 210.750389 120.223732 30.6615534
v 209.849818 120.148222 30.6079664
v 209.774809 119.247726 30.6615534
v 209.774008 92.2551298 30.6615534
v 210.750389 92.2551298 30.825
v 213.060164 92.2551298 17.1398073
v 213.060164 120.447457 30.1685383
v 210.750389 120.637629 29.7492089
v 209.362435 119.247726 29.7492089
v 209.681339 120.318818 29.7492089
v 209.348795 92.2551298 29.7492089
v 213.060164 120.824997 17.1398073
v 208.962092 92.2551298 17.1398073
v 213.060164 120.637629 29.7492089
v 210.750389 120.824997 28.2487276
v 209.175096 119.247726 28.2487276
v 209.149826 92.2551298 28.2487276
v 209.587877 120.4111 28.2487276
v 210.750389 120.824997 17.1398073
v 213.060164 120.824997 28.2487276
v 208.978136 118.436716 17.1398073
v 209.441857 120.413897 17.1398073
v 208.986561 119.247726 17.1398073
v 209.189544 119.809839 17.1398073
f 1 2 3
f 1 3 10
f 1 10 4
f 1 4 11
f 1 11 17
f 1 17 25
f 1 25 19
f 1 19 12
f 1 12 5
f 1 5 2
f 2 5 6
f 2 6 3
f 3 6 7
f 3 7 8
f 3 8 9
f 3 9 10
f 4 10 9
f 4 9 16
f 4 16 22
f 4 22 18
f 4 18 11
f 5 12 6
f 6 12 13
f 6 13 7
f 7 14 8
f 7 13 15
f 7 15 14
f 8 14 16
f 8 16 9
f 11 18 26
f 11 26 28
f 11 28 29
f 11 29 27
f 11 27 24
f 11 24 17
f 12 19 13
f 13 19 25
f 13 25 20
f 13 20 15
f 14 15 21
f 14 21 22
f 14 22 16
f 15 20 23
f 15 23 21
f 17 24 20
f 17 20 25
f 18 22 26
f 20 24 27
f 20 27 23
f 21 23 28
f 21 28 26
f 21 26 22
f 23 27 29
f 23 29 28
