v 239.240298 120.824997 2.59580874
v 240.411086 120.410843 2.59580874
v 239.240298 120.824997 -0.249903262
v 180.748236 120.824997 2.59580874
v 240.411086 120.410843 -0.249903262
v 240.825005 119.248527 2.59580874
v 240.316486 120.317323 -1.74996531
v 239.240298 120.637958 -1.74996531
v 180.748236 120.824997 -0.249903262
v 179.553795 120.410843 2.59580874
v 120.009198 120.637958 -0.249903262
v 120.009198 120.223804 0.662231088
v 120.009198 119.742844 0.742354929
v 120.009198 119.248527 0.824601293
v 240.825005 119.248527 -0.249903262
v 240.825005 93.5280204 2.59580874
v 240.139089 120.148988 -2.60797715
v 240.635791 119.248527 -1.74996531
v 239.240298 120.223804 -2.66210055
v 120.009198 120.637958 -1.74996531
v 179.482838 120.258536 2.59580874
v 120.009198 93.5280204 0.824601293
v 179.116226 119.042784 2.59580874
v 179.128053 119.248527 2.59580874
v 240.825005 93.5280204 -0.249903262
v 179.116226 93.5280204 2.59580874
v 239.240298 119.248527 -2.82500005
v 240.221872 119.248527 -2.66210055
v 240.635791 93.5280204 -1.74996531
v 120.009198 120.223804 -2.66210055
v 120.009198 93.5280204 -2.82500005
v 239.394042 93.5280204 -2.80059195
v 239.240298 93.5280204 -2.82500005
v 120.009198 119.248527 -2.82500005
v 240.221872 93.5280204 -2.66210055
f 1 2 5
f 1 5 3
f 1 3 9
f 1 9 4
f 1 4 10
f 1 10 21
f 1 21 24
f 1 24 23
f 1 23 26
f 1 26 16
f 1 16 6
f 1 6 2
f 2 6 15
f 2 15 5
f 3 5 7
f 3 7 8
f 3 8 20
f 3 20 9
f 4 9 20
f 4 20 11
f 4 11 12
f 4 12 13
f 4 13 14
f 4 14 10
f 5 15 7
f 6 16 25
f 6 25 15
f 7 17 8
f 7 15 18
f 7 18 17
f 8 17 19
f 8 19 30
f 8 30 20
f 10 14 21
f 11 20 30
f 11 30 34
f 11 34 31
f 11 31 22
f 11 22 14
f 11 14 13
f 11 13 12
f 14 22 26
f 14 26 23
f 14 23 24
f 14 24 21
f 15 25 29
f 15 29 18
f 16 26 22
f 16 22 31
f 16 31 33
f 16 33 32
f 16 32 35
f 16 35 29
f 16 29 25
f 17 27 19
f 17 18 28
f 17 28 27
f 18 29 35
f 18 35 28
f 19 27 34
f 19 34 30
f 27 28 32
f 27 32 33
f 27 33 31
f 27 31 34
f 28 35 32
