v 153.762699 26.9402432 15.9280883
v 153.072102 2.25157499 15.9228604
v 153.762699 26.9103456 15.9241224
v 153.713136 26.9402432 15.9228604
v 150.8483 26.9402432 17.7498782
v 150.8483 26.9320893 17.7644799
v 150.838387 2.23798513 17.7644799
v 150.831778 0.740464926 17.7644799
v 152.837495 0.751336813 15.9228604
v 153.749485 26.9021952 15.9228604
v 120.009195 26.9402432 15.9228604
v 150.197353 26.9402432 17.7644799
v 150.418739 -0.411887169 17.7644799
v 151.62151 -0.308611393 15.9228604
v 120.009195 -0.824997425 15.9228604
v 120.009195 26.9402432 17.7644799
v 149.249015 -0.824997425 17.7644799
v 149.249015 -0.824997425 15.9228604
v 120.009195 -0.824997425 17.7644799
f 1 2 3
f 1 3 4
f 1 4 11
f 1 11 16
f 1 16 12
f 1 12 5
f 1 5 6
f 1 6 7
f 1 7 8
f 1 8 2
f 2 9 14
f 2 14 18
f 2 18 15
f 2 15 11
f 2 11 4
f 2 4 10
f 2 10 3
f 2 8 9
f 3 10 4
f 5 12 6
f 6 12 16
f 6 16 19
f 6 19 17
f 6 17 13
f 6 13 8
f 6 8 7
f 8 13 9
f 9 13 14
f 11 15 19
f 11 19 16
f 13 17 14
f 14 17 18
f 15 18 17
f 15 17 19
