v 177.716746 63.7406409 16.0365155
v 177.716746 60.8587646 17.7513621
v 177.716746 63.7406409 15.9228604
v 177.481563 63.7406409 16.0041193
v 152.250545 63.0747092 15.9228604
v 150.748984 60.8386713 17.7513621
v 177.716746 34.4166899 17.7513621
v 177.716746 34.4166899 15.9228604
v 176.893605 63.7406409 15.9228604
v 150.751998 62.8364664 15.9228604
v 149.58211 60.4167241 17.7513621
v 149.705733 34.4166899 17.7513621
v 147.673502 34.4166899 15.9228604
v 147.163936 59.2484728 15.9228604
v 149.163001 59.2484728 17.7513621
v 149.163001 34.4195616 17.7513621
v 149.163001 34.4166899 17.7499303
v 146.916692 34.4166899 15.9239342
v 146.925738 35.2519763 15.9228604
v 146.925738 57.7472565 15.9228604
f 1 2 7
f 1 7 8
f 1 8 3
f 1 3 9
f 1 9 4
f 1 4 5
f 1 5 6
f 1 6 2
f 2 6 11
f 2 11 15
f 2 15 16
f 2 16 12
f 2 12 7
f 3 8 13
f 3 13 19
f 3 19 20
f 3 20 14
f 3 14 10
f 3 10 5
f 3 5 9
f 4 9 5
f 5 10 6
f 6 10 11
f 7 12 17
f 7 17 18
f 7 18 13
f 7 13 8
f 10 14 11
f 11 14 15
f 12 16 17
f 13 18 19
f 14 20 15
f 15 20 18
f 15 18 16
f 16 18 17
f 18 20 19
