v 179.250265 56.2403798 30.8235409
v 180.225513 56.2403798 30.6616249
v 177.719765 56.2403798 30.8235409
v 179.250265 34.4166899 30.8235409
v 179.683939 34.4166899 30.7520654
v 180.637608 56.2403798 29.7499349
v 180.225513 34.4166899 30.6616249
v 177.719765 56.2403798 15.9228609
v 177.719765 34.4166899 30.8235409
v 183.095992 56.2403798 15.9228609
v 180.637608 34.4166899 29.7499349
v 177.719765 34.4166899 15.9228609
v 183.074412 34.4166899 15.9228609
f 1 2 6
f 1 6 10
f 1 10 8
f 1 8 3
f 1 3 9
f 1 9 4
f 1 4 5
f 1 5 2
f 2 5 7
f 2 7 11
f 2 11 6
f 3 8 12
f 3 12 9
f 4 9 12
f 4 12 13
f 4 13 11
f 4 11 7
f 4 7 5
f 6 11 10
f 8 10 13
f 8 13 12
f 10 11 13
