v 66.7120671 26.9253695 15.9228609
v 66.7120671 29.3625605 29.7499349
v 66.7120671 32.2475338 15.9228609
v 86.2488341 26.9039226 15.9228609
v 66.7120671 29.774251 30.6616249
v 86.2545705 29.3620348 29.7499349
v 66.7120671 32.2475338 30.8235409
v 86.2545705 32.2475338 15.9228609
v 86.2545705 27.7184129 15.9228609
v 86.2545705 26.9070625 15.9243196
v 66.7120671 30.7252729 30.8206245
v 86.2545705 29.774251 30.6616249
v 66.7120671 30.749858 30.8235409
v 86.2545705 32.2475338 30.8235409
v 86.2545705 30.749858 30.8235409
f 1 2 5
f 1 5 11
f 1 11 13
f 1 13 7
f 1 7 3
f 1 3 8
f 1 8 9
f 1 9 4
f 1 4 2
f 2 4 6
f 2 6 5
f 3 7 14
f 3 14 8
f 4 9 10
f 4 10 6
f 5 6 12
f 5 12 11
f 6 10 9
f 6 9 8
f 6 8 14
f 6 14 15
f 6 15 12
f 7 13 15
f 7 15 14
f 11 12 15
f 11 15 13
