v 183.068697 34.4166899 15.9229796
v 181.013417 34.4166899 17.1382299
v 183.068697 32.2495937 15.9229796
v 177.803965 26.9402432 15.9228604
v 147.678348 34.4166899 15.9229796
v 181.013417 31.5617663 17.1382299
v 148.980643 34.4166899 17.1382299
v 182.827992 30.749014 15.9229796
v 181.007245 30.749014 17.1382299
v 179.242047 27.1629059 15.9229796
v 177.748418 26.9255483 15.9228604
v 154.374987 26.9402432 15.9228604
v 146.913017 34.4093406 15.9229796
v 146.91919 34.4166899 15.9240505
v 120.015364 33.0741048 15.9229796
v 120.015364 31.0216463 17.1382299
v 180.803568 30.1853764 17.1382299
v 180.525827 29.4644809 17.1382299
v 179.803698 29.1903806 17.1382299
v 179.242047 28.9868224 17.1382299
v 151.029754 26.9402432 17.1382299
v 154.405847 26.90938 15.9228604
v 120.015364 26.9402432 15.9229796
v 120.015364 26.9402432 17.1382299
f 1 2 6
f 1 6 3
f 1 3 4
f 1 4 12
f 1 12 5
f 1 5 14
f 1 14 7
f 1 7 2
f 2 7 16
f 2 16 24
f 2 24 21
f 2 21 20
f 2 20 19
f 2 19 18
f 2 18 17
f 2 17 9
f 2 9 6
f 3 8 4
f 3 6 9
f 3 9 8
f 4 8 10
f 4 10 11
f 4 11 22
f 4 22 12
f 5 12 13
f 5 13 14
f 7 14 15
f 7 15 16
f 8 9 17
f 8 17 18
f 8 18 10
f 10 18 19
f 10 19 20
f 10 20 11
f 11 20 21
f 11 21 22
f 12 22 23
f 12 23 15
f 12 15 13
f 13 15 14
f 15 23 24
f 15 24 16
f 21 24 22
f 22 24 23
