v 213.059399 92.2551298 30.825
v 213.059399 92.2551298 17.1398073
v 210.749259 92.2551298 30.825
v 213.059399 90.7469773 30.825
v 208.9622 92.2551298 17.1398073
v 213.059399 88.9717233 17.1398073
v 209.773664 92.2551298 30.6615534
v 205.22471 90.2225447 30.6615534
v 205.22471 89.2485988 30.825
v 213.059399 89.7730315 30.6615534
v 209.249811 60.7500672 30.825
v 210.225413 60.7500672 30.6615534
v 205.22471 91.0205984 17.1398073
v 209.149339 92.2551298 28.2487276
v 213.059399 89.160651 28.2487276
v 211.013103 60.7500672 17.1398073
v 209.347987 92.2551298 29.7492089
v 205.22471 90.6362271 29.7492089
v 205.22471 60.7500672 30.825
v 213.059399 89.5775914 30.242224
v 210.637279 60.7500672 29.7492089
v 210.824425 60.7500672 28.2487276
v 205.22471 60.0855696 30.7138028
v 209.249811 59.7761214 30.6615534
v 210.150247 59.8510391 30.6079664
v 205.22471 90.8218968 28.2487276
v 205.22471 58.9780712 17.1398073
v 213.059399 89.2616272 29.0592554
v 213.059399 89.352833 29.7492089
v 210.411787 59.5904517 28.2487276
v 210.810621 60.1865458 17.1398073
v 210.318217 59.6816576 29.7492089
v 205.22471 59.7761214 30.6615534
v 205.22471 59.4927317 30.0385871
v 209.249811 59.3624371 29.7492089
v 208.438346 58.9780712 17.1398073
v 205.22471 59.1767693 28.2487276
v 209.249811 59.1767693 28.2487276
v 209.249811 58.9878434 17.1398073
v 209.815078 59.1897976 17.1398073
v 210.536041 59.4666731 17.1398073
v 205.22471 59.3624371 29.7492089
v 205.22471 59.2354006 28.7243261
f 1 2 5
f 1 5 14
f 1 14 17
f 1 17 7
f 1 7 3
f 1 3 9
f 1 9 19
f 1 19 11
f 1 11 4
f 1 4 10
f 1 10 20
f 1 20 29
f 1 29 28
f 1 28 15
f 1 15 6
f 1 6 2
f 2 6 16
f 2 16 31
f 2 31 41
f 2 41 40
f 2 40 39
f 2 39 36
f 2 36 27
f 2 27 13
f 2 13 5
f 3 7 8
f 3 8 9
f 4 11 12
f 4 12 10
f 5 13 14
f 6 15 16
f 7 17 18
f 7 18 8
f 8 18 26
f 8 26 13
f 8 13 27
f 8 27 37
f 8 37 43
f 8 43 42
f 8 42 34
f 8 34 33
f 8 33 23
f 8 23 19
f 8 19 9
f 10 12 21
f 10 21 22
f 10 22 20
f 11 19 23
f 11 23 24
f 11 24 25
f 11 25 12
f 12 25 21
f 13 26 14
f 14 26 17
f 15 28 16
f 16 28 29
f 16 29 22
f 16 22 30
f 16 30 31
f 17 26 18
f 20 22 29
f 21 25 32
f 21 32 22
f 22 32 30
f 23 33 24
f 24 33 34
f 24 34 35
f 24 35 25
f 25 35 32
f 27 36 38
f 27 38 37
f 30 32 38
f 30 38 39
f 30 39 40
f 30 40 41
f 30 41 31
f 32 35 38
f 34 42 35
f 35 42 43
f 35 43 38
f 36 39 38
f 37 38 43
