v 181.797967 59.0597624 15.9228609
v 181.797967 29.8941565 15.9228609
v 181.797967 59.0597624 2.59580874
v 147.168426 59.0597624 15.9228609
v 181.797967 29.6244836 15.8485025
v 181.55601 29.5482731 15.9228609
v 179.245355 0.751998425 15.8237166
v 180.22527 0.751998425 15.6619553
v 180.636592 0.751998425 14.748786
v 181.797967 28.9796162 2.59580874
v 120.015239 59.0597624 2.59580874
v 120.015239 59.0597624 15.8237166
v 120.015239 33.0715942 15.9228609
v 181.797967 29.1789401 14.748786
v 180.824103 0.751998425 13.249884
v 179.245355 27.1681237 15.9228609
v 179.245355 -0.221164227 15.6619553
v 180.146635 -0.144953728 15.6071649
v 152.836179 0.751998425 15.9228609
v 151.620362 -0.309104919 15.9228609
v 149.25527 -0.824997425 15.9228609
v 180.316 -0.314962864 14.748786
v 181.797967 29.0089273 13.249884
v 180.878541 0.751998425 2.59580874
v 120.015239 -0.824997425 2.59580874
v 120.015239 -0.824997425 15.9228609
v 180.40673 -0.408761501 13.249884
v 179.245355 -0.63740015 14.748786
v 179.245355 -0.824997425 13.249884
v 180.515614 -0.256340504 2.59580874
v 179.245355 -0.824997425 2.59580874
v 180.449073 -0.408761501 2.59580874
f 1 2 5
f 1 5 14
f 1 14 23
f 1 23 10
f 1 10 3
f 1 3 11
f 1 11 12
f 1 12 4
f 1 4 13
f 1 13 26
f 1 26 21
f 1 21 20
f 1 20 19
f 1 19 16
f 1 16 6
f 1 6 2
f 2 6 7
f 2 7 8
f 2 8 9
f 2 9 5
f 3 10 24
f 3 24 30
f 3 30 32
f 3 32 31
f 3 31 25
f 3 25 11
f 4 12 13
f 5 9 15
f 5 15 14
f 6 16 7
f 7 17 18
f 7 18 8
f 7 16 19
f 7 19 20
f 7 20 21
f 7 21 17
f 8 18 9
f 9 18 22
f 9 22 15
f 10 23 24
f 11 25 26
f 11 26 13
f 11 13 12
f 14 15 24
f 14 24 23
f 15 22 27
f 15 27 24
f 17 28 18
f 17 21 28
f 18 28 22
f 21 29 28
f 21 26 25
f 21 25 31
f 21 31 29
f 22 28 29
f 22 29 27
f 24 27 30
f 27 32 30
f 27 29 32
f 29 31 32
