v 28.9637303 87.7350461 17.1398073
v 29.1509199 87.7350461 28.2487276
v 45.3068447 87.7350461 17.1398073
v 28.9781284 62.2517949 17.1398073
v 29.3493104 87.7350461 29.7492089
v 29.1765189 60.7514548 28.2487276
v 29.3621063 60.7514548 29.7492089
v 45.3068447 58.9808857 17.1398073
v 45.3068447 87.7350461 30.825
v 28.9877272 60.7514548 17.1398073
v 29.7748876 87.7350461 30.6615534
v 29.7748876 60.7514548 30.6615534
v 29.587698 59.5889032 28.2487276
v 29.6820903 59.6817943 29.7492089
v 29.8500824 59.8506886 30.6079664
v 45.3068447 59.1751134 28.2487276
v 32.2515535 58.9808857 17.1398073
v 30.7508326 87.7350461 30.825
v 45.3068447 60.7514548 30.825
v 29.4645023 59.4650477 17.1398073
v 30.7508326 60.7514548 30.825
v 30.7508326 58.9865157 17.1398073
v 30.7508326 59.1751134 28.2487276
v 30.7508326 59.3637112 29.7492089
v 30.7508326 59.7746864 30.6615534
v 45.3068447 59.3074134 29.3057629
v 45.3068447 59.7746864 30.6615534
v 45.3068447 59.3637112 29.7492089
f 1 2 5
f 1 5 11
f 1 11 18
f 1 18 9
f 1 9 3
f 1 3 8
f 1 8 17
f 1 17 22
f 1 22 20
f 1 20 10
f 1 10 4
f 1 4 2
f 2 4 6
f 2 6 7
f 2 7 5
f 3 9 19
f 3 19 27
f 3 27 28
f 3 28 26
f 3 26 16
f 3 16 8
f 4 10 6
f 5 7 12
f 5 12 11
f 6 10 13
f 6 13 14
f 6 14 7
f 7 14 15
f 7 15 12
f 8 16 23
f 8 23 17
f 9 18 21
f 9 21 19
f 10 20 13
f 11 12 21
f 11 21 18
f 12 15 21
f 13 20 22
f 13 22 23
f 13 23 14
f 14 23 24
f 14 24 15
f 15 24 25
f 15 25 21
f 16 26 23
f 17 23 22
f 19 21 25
f 19 25 27
f 23 26 24
f 24 26 28
f 24 28 27
f 24 27 25
