v 26.6706419 88.9723849 17.1398073
v 26.6706419 89.1679466 28.2487276
v 26.6706419 93.0484807 17.1398073
v 28.9639091 87.7350461 17.1398073
v 29.1499972 87.7350461 28.2487276
v 26.6706419 89.3583065 29.7492089
v 29.3488598 87.7350461 29.7492089
v 26.6706419 93.0484807 30.825
v 31.0327792 93.0484807 17.1398073
v 45.3068447 87.7350461 17.1398073
v 26.6706419 89.774394 30.6615534
v 29.7739434 87.7350461 30.6615534
v 26.6706419 90.7495987 30.825
v 29.2503405 93.0484807 30.825
v 30.8375645 93.0484807 28.2487276
v 45.3068447 91.0216141 17.1398073
v 45.3068447 87.7350461 30.825
v 30.7518196 87.7350461 30.825
v 30.2263927 93.0484807 30.6615534
v 45.3068447 89.2501241 30.825
v 45.3068447 90.2258492 30.6615534
v 30.6460047 93.0484807 29.7492089
v 45.3068447 90.8244932 28.2487276
v 45.3068447 90.6377757 29.7492089
v 45.3068447 90.7693613 28.6921727
f 1 2 6
f 1 6 11
f 1 11 13
f 1 13 8
f 1 8 3
f 1 3 9
f 1 9 16
f 1 16 10
f 1 10 4
f 1 4 5
f 1 5 2
f 2 5 7
f 2 7 6
f 3 8 14
f 3 14 19
f 3 19 22
f 3 22 15
f 3 15 9
f 4 10 17
f 4 17 18
f 4 18 12
f 4 12 7
f 4 7 5
f 6 7 12
f 6 12 11
f 8 13 18
f 8 18 17
f 8 17 20
f 8 20 14
f 9 15 16
f 10 16 23
f 10 23 25
f 10 25 24
f 10 24 21
f 10 21 20
f 10 20 17
f 11 12 18
f 11 18 13
f 14 20 21
f 14 21 19
f 15 22 23
f 15 23 16
f 19 21 24
f 19 24 25
f 19 25 23
f 19 23 22
