v 66.7120671 56.2483048 30.8235409
v 66.7120671 56.2483048 15.9228609
v 60.7506502 56.2483048 30.8235409
v 66.7120671 30.7512653 30.8235409
v 56.903429 56.2483048 15.9228609
v 66.7120671 26.9251299 15.9228609
v 59.7751665 56.2483048 30.6616249
v 60.7506502 30.7512653 30.8235409
v 66.7120671 30.725432 30.8206245
v 59.3623066 56.2483048 29.7499349
v 56.925509 31.4257908 15.9228609
v 59.3623066 30.7512653 29.7499349
v 66.7120671 29.364903 29.7499349
v 61.4256191 26.9251299 15.9228609
v 59.7751665 30.7512653 30.6616249
v 59.8500538 29.8499858 30.6076535
v 60.7506502 29.7753561 30.6616249
v 66.7120671 29.7753561 30.6616249
v 57.1626663 30.7512653 15.9228609
v 59.6810675 29.6835065 29.7499349
v 60.7506502 29.364903 29.7499349
v 60.7506502 27.1633673 15.9228609
v 59.5879412 29.5887852 28.248926
f 1 2 5
f 1 5 10
f 1 10 7
f 1 7 3
f 1 3 8
f 1 8 4
f 1 4 9
f 1 9 18
f 1 18 13
f 1 13 6
f 1 6 2
f 2 6 14
f 2 14 22
f 2 22 19
f 2 19 11
f 2 11 5
f 3 7 15
f 3 15 8
f 4 8 9
f 5 11 12
f 5 12 10
f 6 13 21
f 6 21 14
f 7 10 12
f 7 12 15
f 8 15 16
f 8 16 17
f 8 17 9
f 9 17 18
f 11 19 20
f 11 20 12
f 12 20 16
f 12 16 15
f 13 18 17
f 13 17 21
f 14 21 20
f 14 20 22
f 16 20 21
f 16 21 17
f 19 23 20
f 19 22 23
f 20 23 22
