v 45.3086114 63.3716342 15.9228609
v 63.3020711 63.3716342 15.9228609
v 45.3086114 63.3716342 30.8235409
v 45.3086114 93.0748701 15.9228609
v 60.6404865 63.3716342 29.7499349
v 63.0748415 88.5735869 15.9228609
v 60.6369638 89.2481983 29.7499349
v 59.2489171 63.3716342 30.8235409
v 45.3086114 89.2481983 30.8235409
v 45.3086114 90.6352186 29.7499349
v 58.5742736 93.0748701 15.9228609
v 60.2247763 63.3716342 30.6616249
v 60.2247763 89.2481983 30.6616249
v 62.837044 89.2481983 15.9228609
v 60.318135 90.3182709 29.7499349
v 60.1490343 90.1496172 30.6076535
v 59.2489171 89.2481983 30.8235409
v 45.3086114 90.2252197 30.6616249
v 45.3086114 90.5159998 30.0183364
v 59.2489171 90.6352186 29.7499349
v 59.2489171 92.8364289 15.9228609
v 60.4114938 90.4113185 28.248926
v 59.2489171 90.2252197 30.6616249
f 1 2 5
f 1 5 12
f 1 12 8
f 1 8 3
f 1 3 9
f 1 9 18
f 1 18 19
f 1 19 10
f 1 10 4
f 1 4 11
f 1 11 21
f 1 21 14
f 1 14 6
f 1 6 2
f 2 6 7
f 2 7 5
f 3 8 17
f 3 17 9
f 4 10 20
f 4 20 11
f 5 7 13
f 5 13 12
f 6 14 15
f 6 15 7
f 7 15 16
f 7 16 13
f 8 12 13
f 8 13 17
f 9 17 23
f 9 23 18
f 10 19 20
f 11 20 15
f 11 15 21
f 13 16 17
f 14 21 22
f 14 22 15
f 15 22 21
f 15 20 16
f 16 20 23
f 16 23 17
f 18 23 19
f 19 23 20
