v 150.83975 26.9402432 18.5609471
v 150.833709 26.9402432 28.2489475
v 150.845786 26.9320893 17.7644808
v 150.196753 26.9402432 17.7644808
v 150.734092 26.9402432 29.0594771
v 150.824654 0.751336813 28.2489475
v 150.836728 2.23798513 17.7644808
v 120.009195 26.9402432 17.7644808
v 150.64353 26.9402432 29.7498348
v 150.637493 0.751336813 29.7498348
v 150.317502 -0.316765308 29.7498348
v 150.411086 -0.411887169 28.2489475
v 150.833709 0.740464926 17.7644808
v 120.009195 -0.824997425 17.7644808
v 120.009195 26.9402432 30.825
v 150.420141 26.9402432 30.2420326
v 150.223922 0.751336813 30.6613603
v 150.148455 -0.148258209 30.607666
v 149.248863 -0.637464523 29.7498348
v 149.248863 -0.824997425 28.2489475
v 150.417123 -0.411887169 17.7644808
v 120.009195 -0.824997425 28.2489475
v 149.248863 -0.824997425 17.7644808
v 120.009195 0.751336813 30.825
v 149.248863 26.9402432 30.825
v 150.223922 26.9402432 30.6613603
v 149.698659 26.9402432 30.7495728
v 149.248863 0.751336813 30.825
v 149.248863 -0.22436142 30.6613603
v 120.009195 -0.637464523 29.7498348
v 120.009195 0.270284414 30.7444587
v 120.009195 -0.22436142 30.6613603
f 1 2 3
f 1 3 4
f 1 4 8
f 1 8 15
f 1 15 25
f 1 25 27
f 1 27 26
f 1 26 16
f 1 16 9
f 1 9 5
f 1 5 2
f 2 5 6
f 2 6 3
f 3 6 7
f 3 7 13
f 3 13 21
f 3 21 23
f 3 23 14
f 3 14 8
f 3 8 4
f 5 9 10
f 5 10 6
f 6 10 11
f 6 11 12
f 6 12 13
f 6 13 7
f 8 14 22
f 8 22 30
f 8 30 32
f 8 32 31
f 8 31 24
f 8 24 15
f 9 16 17
f 9 17 10
f 10 17 18
f 10 18 11
f 11 18 19
f 11 19 20
f 11 20 12
f 12 21 13
f 12 20 21
f 14 23 20
f 14 20 22
f 15 24 28
f 15 28 25
f 16 26 17
f 17 27 28
f 17 28 18
f 17 26 27
f 18 28 29
f 18 29 19
f 19 29 32
f 19 32 30
f 19 30 22
f 19 22 20
f 20 23 21
f 24 31 28
f 25 28 27
f 28 31 29
f 29 31 32
