v -0.825004578 60.7514852 1.39723057
v -0.469207764 59.4191104 1.39723057
v -0.825004578 60.7514852 13.2495193
v -0.825004578 119.247029 1.39723057
v -0.420126915 59.2778903 1.39723057
v -0.407853127 59.5910293 13.2495193
v -0.315842628 59.6831292 14.7497185
v -0.634832382 60.7514852 14.7497185
v -0.825004578 90.7452643 15.9214389
v -0.825004578 119.247029 15.9214389
v -0.49987793 120.15574 15.9214389
v -0.407853127 120.407481 1.39723057
v 0.555260181 58.6086327 1.39723057
v 0.751562119 58.5103923 1.39723057
v 0.751562119 59.1796499 13.2495193
v 0.751562119 59.3638498 14.7497185
v -0.150203705 59.8550481 15.6071787
v -0.223817825 60.7514852 15.6612145
v 0.751562119 60.7514852 15.8247434
v -0.800471306 90.4198444 15.9214389
v -0.407853127 120.407481 15.9214389
v -0.156340599 120.499585 15.9214389
v 0.641140938 120.782018 1.39723057
v 2.25452185 58.4121555 1.39723057
v 29.6635151 58.105157 15.8190554
v 29.9211645 58.105157 15.9214389
v 0.751562119 59.7752291 15.6612145
v 29.5530939 58.4428543 15.9214389
v 27.1667719 60.7514852 15.9214389
v 0.751562119 87.1656579 15.9214389
v -0.309705734 88.3813727 15.9214389
v -0.463070869 88.9462495 15.9214389
v 0.751562119 120.818861 15.9214389
v 0.751562119 120.818861 1.39723057
v 28.1544256 58.105157 1.39723057
v 29.043932 58.105157 13.2495193
v 29.080739 58.105157 13.6988679
v 29.2218304 58.105157 14.7497185
v 29.3322515 58.105157 15.0739323
v 29.4488096 58.105157 15.3412668
v 61.8451595 58.105157 15.9214389
v 29.2525005 120.818861 15.9214389
v 59.2441249 120.818861 1.39723057
v 61.8451595 58.105157 1.39723057
v 61.8451595 90.1374042 15.9214389
v 59.2441249 120.818861 13.2495193
v 29.5776343 120.800443 15.9214389
v 59.2441249 120.223281 15.6612145
v 59.2441249 120.634661 14.7497185
v 60.5814493 120.468879 1.39723057
v 61.8451595 91.9118571 1.39723057
v 61.5568364 90.4505432 15.9214389
v 61.8451595 90.3584433 15.8361191
v 60.8206952 119.247029 13.2495193
v 60.6366599 119.247029 14.7497185
v 60.219512 119.247029 15.6612145
v 59.2441249 119.247029 15.8247434
v 60.3176665 120.315385 14.7497185
v 60.4096842 120.407481 13.2495193
v 60.7225442 120.419762 1.39723057
v 31.0560465 120.462742 15.9214389
v 60.1458979 120.149603 15.6071787
v 61.8451595 90.9785807 13.2495193
v 61.5875101 117.748872 1.39723057
v 59.2441249 92.8328526 15.9214389
v 61.8451595 90.3830051 15.7806618
v 61.4893591 119.247029 1.39723057
v 31.6204262 120.309241 15.9214389
v 32.8350592 119.247029 15.9214389
v 61.3912046 119.443506 1.39723057
v 61.8451595 90.9294605 13.7699675
v 61.8451595 90.6715822 15.1265461
v 61.8451595 90.6900036 15.0739323
v 61.8451595 90.8005214 14.7497185
f 1 2 3
f 1 3 9
f 1 9 10
f 1 10 4
f 1 4 12
f 1 12 23
f 1 23 34
f 1 34 43
f 1 43 50
f 1 50 60
f 1 60 70
f 1 70 67
f 1 67 64
f 1 64 51
f 1 51 44
f 1 44 35
f 1 35 24
f 1 24 14
f 1 14 13
f 1 13 5
f 1 5 2
f 2 5 3
f 3 5 6
f 3 6 7
f 3 7 8
f 3 8 9
f 4 10 11
f 4 11 12
f 5 13 6
f 6 13 14
f 6 14 15
f 6 15 7
f 7 15 16
f 7 16 17
f 7 17 8
f 8 17 18
f 8 18 9
f 9 18 19
f 9 19 20
f 9 20 32
f 9 32 31
f 9 31 30
f 9 30 29
f 9 29 28
f 9 28 26
f 9 26 41
f 9 41 45
f 9 45 52
f 9 52 65
f 9 65 69
f 9 69 68
f 9 68 61
f 9 61 47
f 9 47 42
f 9 42 33
f 9 33 22
f 9 22 21
f 9 21 11
f 9 11 10
f 11 21 12
f 12 21 22
f 12 22 23
f 14 24 15
f 15 24 25
f 15 25 26
f 15 26 16
f 16 27 17
f 16 26 27
f 17 19 18
f 17 27 19
f 19 27 26
f 19 26 28
f 19 28 29
f 19 29 30
f 19 30 31
f 19 31 32
f 19 32 20
f 22 33 23
f 23 33 34
f 24 35 36
f 24 36 37
f 24 37 38
f 24 38 39
f 24 39 40
f 24 40 25
f 25 40 39
f 25 39 38
f 25 38 37
f 25 37 36
f 25 36 35
f 25 35 44
f 25 44 41
f 25 41 26
f 33 42 46
f 33 46 43
f 33 43 34
f 41 44 51
f 41 51 63
f 41 63 71
f 41 71 74
f 41 74 73
f 41 73 72
f 41 72 66
f 41 66 53
f 41 53 45
f 42 47 48
f 42 48 49
f 42 49 46
f 43 46 50
f 45 53 54
f 45 54 55
f 45 55 56
f 45 56 57
f 45 57 52
f 46 49 58
f 46 58 59
f 46 59 60
f 46 60 50
f 47 61 57
f 47 57 48
f 48 57 62
f 48 62 49
f 49 62 58
f 51 64 63
f 52 57 65
f 53 66 64
f 53 64 54
f 54 64 67
f 54 67 59
f 54 59 58
f 54 58 55
f 55 58 62
f 55 62 56
f 56 62 57
f 57 61 68
f 57 68 69
f 57 69 65
f 59 67 70
f 59 70 60
f 63 64 71
f 64 66 72
f 64 72 73
f 64 73 74
f 64 74 71
