v 213.060164 89.1540849 17.7516053
v 239.248695 89.1633868 17.7516053
v 213.060164 89.1633868 28.2489681
v 213.060164 120.824997 17.7516053
v 240.411901 89.5819438 17.7516053
v 240.411901 89.588145 28.2489681
v 239.248695 89.1757876 28.2489681
v 239.248695 89.3649137 29.7487744
v 213.060164 89.2657006 29.0590175
v 213.060164 120.824997 28.2489681
v 239.245977 120.824997 17.7516053
v 240.822287 90.7508075 17.7516053
v 240.825005 90.7508075 19.2501318
v 240.825005 90.7508075 28.2489681
v 240.316772 89.6811587 29.7487744
v 213.060164 89.5788449 30.2427372
v 213.060164 89.3587142 29.7487744
v 240.148273 89.8516828 30.6074514
v 239.248695 89.7772712 30.6624796
v 213.060164 120.738187 28.9387258
v 239.248695 120.824997 28.2489681
v 239.248695 120.824997 19.2501318
v 240.411901 120.409541 17.7516053
v 240.825005 92.2514176 17.7516053
v 240.637479 90.7508075 29.7487744
v 240.825005 119.249976 28.2489681
v 213.060164 89.7772712 30.6624796
v 240.224376 90.7508075 30.6624796
v 239.248695 90.7508075 30.825
v 239.248695 120.63587 29.7487744
v 213.060164 120.63587 29.7487744
v 240.316772 120.316529 29.7487744
v 240.411901 120.409541 28.2489681
v 240.825005 119.249976 19.2501318
v 240.825005 119.246879 17.7516053
v 240.637479 119.249976 29.7487744
v 213.060164 90.7508075 30.825
v 240.224376 119.249976 30.6624796
v 239.248695 119.249976 30.825
v 213.060164 120.446749 30.1685151
v 239.248695 120.223517 30.6624796
v 240.148273 120.149102 30.6074514
v 213.060164 119.249976 30.825
v 213.060164 120.223517 30.6624796
f 1 2 3
f 1 3 9
f 1 9 17
f 1 17 16
f 1 16 27
f 1 27 37
f 1 37 43
f 1 43 44
f 1 44 40
f 1 40 31
f 1 31 20
f 1 20 10
f 1 10 4
f 1 4 11
f 1 11 23
f 1 23 35
f 1 35 24
f 1 24 12
f 1 12 5
f 1 5 2
f 2 5 6
f 2 6 7
f 2 7 3
f 3 7 8
f 3 8 9
f 4 10 21
f 4 21 22
f 4 22 11
f 5 12 13
f 5 13 14
f 5 14 6
f 6 15 7
f 6 14 15
f 7 15 8
f 8 16 17
f 8 17 9
f 8 15 18
f 8 18 19
f 8 19 16
f 10 20 21
f 11 22 23
f 12 24 13
f 13 24 35
f 13 35 34
f 13 34 26
f 13 26 14
f 14 25 15
f 14 26 36
f 14 36 25
f 15 25 18
f 16 19 27
f 18 25 28
f 18 28 29
f 18 29 19
f 19 29 37
f 19 37 27
f 20 30 21
f 20 31 30
f 21 30 32
f 21 32 33
f 21 33 23
f 21 23 22
f 23 33 26
f 23 26 34
f 23 34 35
f 25 36 38
f 25 38 28
f 26 33 32
f 26 32 36
f 28 38 39
f 28 39 29
f 29 39 43
f 29 43 37
f 30 31 40
f 30 40 41
f 30 41 42
f 30 42 32
f 32 42 36
f 36 42 38
f 38 42 39
f 39 42 41
f 39 41 44
f 39 44 43
f 40 44 41
