v 66.7120671 59.2502286 30.825
v 59.2501974 63.3687271 30.825
v 66.7120671 56.2483039 30.825
v 66.7120671 60.225314 30.6623098
v 56.2500858 63.3687271 30.825
v 60.2263355 63.3687271 30.6623098
v 60.7507682 56.2483039 30.825
v 66.7120671 56.2483039 17.7380105
v 66.7120671 60.6379305 29.7489353
v 56.2480402 63.3666361 30.825
v 56.2480402 63.3687271 30.4278811
v 60.6421924 63.3687271 29.7489353
v 56.2500858 60.7494485 30.825
v 59.7746301 56.2483039 30.6623098
v 59.1785002 56.2483039 17.7380105
v 66.7120671 60.8421478 17.7380105
v 66.7120671 60.8247232 28.2488509
v 56.2480402 62.2479714 30.825
v 56.2480402 63.3687271 17.7380105
v 60.8316851 63.3687271 28.2488509
v 56.2480402 60.7480546 30.8237197
v 56.2500858 59.7750601 30.6623098
v 56.2480402 59.7743631 30.6610277
v 56.2480402 59.3624436 29.747655
v 59.3628716 56.2483039 29.7489353
v 59.1580153 56.250395 17.7380105
v 59.1610909 56.2483039 17.7508208
v 60.849098 63.3687271 17.7380105
v 56.2480402 59.1575293 17.7380105
v 56.2480402 59.175651 28.2475706
v 59.1754246 56.2483039 28.2488509
f 1 2 5
f 1 5 10
f 1 10 18
f 1 18 13
f 1 13 7
f 1 7 3
f 1 3 8
f 1 8 16
f 1 16 17
f 1 17 9
f 1 9 4
f 1 4 2
f 2 4 6
f 2 6 12
f 2 12 20
f 2 20 28
f 2 28 19
f 2 19 11
f 2 11 5
f 3 7 14
f 3 14 25
f 3 25 31
f 3 31 27
f 3 27 15
f 3 15 8
f 4 9 6
f 5 11 10
f 6 9 12
f 7 13 14
f 8 15 26
f 8 26 29
f 8 29 19
f 8 19 28
f 8 28 16
f 9 17 12
f 10 11 19
f 10 19 29
f 10 29 30
f 10 30 24
f 10 24 23
f 10 23 21
f 10 21 18
f 12 17 20
f 13 18 21
f 13 21 22
f 13 22 14
f 14 22 23
f 14 23 24
f 14 24 25
f 15 27 26
f 16 28 20
f 16 20 17
f 21 23 22
f 24 30 31
f 24 31 25
f 26 27 31
f 26 31 29
f 29 31 30
