v 239.249783 120.824997 15.9228609
v 240.408211 120.408561 15.9228609
v 239.249783 120.824997 2.59580874
v 210.748658 120.824997 15.9228609
v 240.733066 119.49945 15.9228609
v 240.782104 119.364549 2.59580874
v 240.408211 120.408561 2.59580874
v 180.751991 120.824997 2.59580874
v 180.751991 120.824997 13.249884
v 180.751991 120.637307 14.748786
v 180.751991 120.220871 15.6619553
v 180.751991 119.247243 15.8237166
v 208.382757 120.308855 15.9228609
v 240.818882 119.247243 15.9228609
v 240.818882 119.247243 2.59580874
v 179.550651 120.408561 2.59580874
v 179.593556 120.408561 13.249884
v 179.685495 120.31472 14.748786
v 179.850987 120.144625 15.6071649
v 179.777434 119.247243 15.6619553
v 178.214471 90.1204276 15.9228609
v 178.447384 90.4547453 15.9228609
v 180.751991 92.8360355 15.9228609
v 207.163031 119.247243 15.9228609
v 240.818882 90.7538724 15.9228609
v 240.818882 62.2546363 2.59580874
v 179.483231 120.256069 2.59580874
v 179.176766 119.247243 13.249884
v 179.366773 119.247243 14.748786
v 178.214471 90.378499 15.8524162
v 178.214471 60.90563 15.9228609
v 240.310149 88.3784473 15.9228609
v 239.249783 60.90563 15.8237166
v 239.347851 60.90563 15.8080623
v 240.224333 60.90563 15.6619553
v 240.267248 60.90563 15.5667248
v 240.635004 60.90563 14.748786
v 240.818882 60.90563 13.249884
v 240.818882 60.90563 2.59711319
v 239.501081 60.90563 2.59580874
v 179.121602 119.247243 2.59580874
v 178.214471 90.8242571 14.748786
v 212.832613 60.90563 15.9228609
v 178.214471 60.90563 2.59580874
v 239.249783 87.1643418 15.9228609
v 178.214471 91.023674 2.59580874
v 178.214471 90.9943485 13.249884
f 1 2 7
f 1 7 3
f 1 3 8
f 1 8 9
f 1 9 4
f 1 4 13
f 1 13 24
f 1 24 23
f 1 23 22
f 1 22 21
f 1 21 31
f 1 31 43
f 1 43 45
f 1 45 32
f 1 32 25
f 1 25 14
f 1 14 5
f 1 5 2
f 2 5 6
f 2 6 7
f 3 7 6
f 3 6 15
f 3 15 26
f 3 26 40
f 3 40 44
f 3 44 46
f 3 46 41
f 3 41 27
f 3 27 16
f 3 16 8
f 4 9 10
f 4 10 11
f 4 11 12
f 4 12 13
f 5 14 6
f 6 14 15
f 8 16 9
f 9 16 17
f 9 17 18
f 9 18 10
f 10 18 19
f 10 19 11
f 11 19 12
f 12 19 20
f 12 20 21
f 12 21 22
f 12 22 23
f 12 23 24
f 12 24 13
f 14 25 38
f 14 38 39
f 14 39 26
f 14 26 15
f 16 27 17
f 17 27 28
f 17 28 18
f 18 28 29
f 18 29 19
f 19 29 20
f 20 29 21
f 21 30 42
f 21 42 47
f 21 47 46
f 21 46 44
f 21 44 31
f 21 29 30
f 25 32 33
f 25 33 34
f 25 34 35
f 25 35 36
f 25 36 37
f 25 37 38
f 26 39 40
f 27 41 28
f 28 41 42
f 28 42 30
f 28 30 29
f 31 44 40
f 31 40 39
f 31 39 38
f 31 38 37
f 31 37 36
f 31 36 35
f 31 35 34
f 31 34 33
f 31 33 43
f 32 45 33
f 33 45 43
f 41 46 47
f 41 47 42
