v 205.22471 56.9251299 15.9229796
v 213.059428 62.1979952 15.9228604
v 207.750499 56.9251299 15.9229796
v 205.22471 58.9892399 17.1382299
v 205.22471 93.0720878 15.9229796
v 213.059428 84.7656065 15.9228604
v 213.074834 62.2542894 15.9228604
v 212.83674 60.7593727 15.9229796
v 209.249175 57.1690714 15.9229796
v 209.249175 58.9892399 17.1382299
v 205.22471 91.0142326 17.1382299
v 206.926038 117.747595 15.9229796
v 213.095641 86.2292486 15.9228604
v 211.012909 60.7593727 17.1382299
v 213.058655 88.9688873 17.1382299
v 210.810256 60.1901776 17.1382299
v 210.535948 59.4646114 17.1382299
v 209.814742 59.1893971 17.1382299
v 208.987191 119.248767 17.1382299
v 207.16336 119.248767 15.9229796
v 208.379245 120.305843 15.9229796
v 210.748615 120.824997 15.9229796
v 213.058655 120.824997 15.9229796
v 213.058655 120.824997 17.1382299
v 209.188299 119.80545 17.1382299
v 209.440262 120.405922 17.1382299
v 210.748615 120.824997 17.1382299
f 1 2 3
f 1 3 10
f 1 10 4
f 1 4 11
f 1 11 5
f 1 5 6
f 1 6 2
f 2 6 13
f 2 13 7
f 2 7 8
f 2 8 9
f 2 9 3
f 3 9 10
f 4 10 18
f 4 18 17
f 4 17 16
f 4 16 14
f 4 14 15
f 4 15 24
f 4 24 27
f 4 27 26
f 4 26 25
f 4 25 19
f 4 19 11
f 5 11 12
f 5 12 13
f 5 13 6
f 7 14 8
f 7 13 15
f 7 15 14
f 8 14 16
f 8 16 17
f 8 17 9
f 9 17 18
f 9 18 10
f 11 19 12
f 12 20 13
f 12 19 20
f 13 20 21
f 13 21 22
f 13 22 23
f 13 23 24
f 13 24 15
f 19 25 20
f 20 25 26
f 20 26 21
f 21 26 27
f 21 27 22
f 22 27 24
f 22 24 23
