v 119.997368 63.7565929 0.828958094
v 119.997368 61.5882808 1.39539683
v 119.997368 63.7565929 -2.82500005
v 91.5866661 63.7565929 1.39539683
v 119.997368 -0.818681717 1.39539683
v 119.997368 0.755403042 -2.82500005
v 2.25025892 63.7565929 -2.82500005
v -0.825004578 63.7565929 1.39539683
v 119.997368 -0.818681717 -0.250207245
v 60.7394063 -0.818681717 1.39539683
v 119.997368 -0.22444725 -2.66221499
v 0.759944916 0.755403042 -2.82500005
v 0.759944916 63.7439507 -2.82500005
v 0.748114586 63.7565929 -2.82417393
v -0.825004578 63.7565929 -0.250207245
v -0.825004578 60.7475066 1.39539683
v 119.997368 -0.730175972 -0.990583658
v 60.7394063 -0.818681717 -0.250207245
v 59.4265079 -0.47098875 1.39539683
v 0.759944916 0.755403042 0.824826598
v 0.759944916 -0.22444725 0.662456393
v 0.759944916 -0.635354519 -0.250207245
v 119.997368 -0.433058739 -2.20030642
v 0.759944916 -0.22444725 -2.66221499
v -0.138988495 -0.148587227 -2.60809159
v -0.221786499 0.755403042 -2.66221499
v -0.221786499 63.7439507 -2.66221499
v -0.221786499 63.7565929 -2.65808439
v -0.825004578 60.7475066 -0.250207245
v -0.63574791 63.7565929 -1.74996531
v -0.63574791 0.755403042 -0.250207245
v -0.221786499 0.755403042 0.662456393
v -0.470166206 59.4136459 1.39539683
v 119.997368 -0.635354519 -1.74996531
v 0.759944916 -0.635354519 -1.74996531
v 59.2727423 -0.42042017 1.39539683
v 29.0760183 29.0699065 1.39539683
v -0.411028862 59.2682487 1.39539683
v -0.138988495 -0.148587227 0.608332992
v -0.316400528 -0.312952995 -0.250207245
v -0.316400528 -0.312952995 -1.74996531
v -0.63574791 0.755403042 -1.74996531
f 1 2 5
f 1 5 9
f 1 9 17
f 1 17 34
f 1 34 23
f 1 23 11
f 1 11 6
f 1 6 3
f 1 3 7
f 1 7 14
f 1 14 28
f 1 28 30
f 1 30 15
f 1 15 8
f 1 8 4
f 1 4 2
f 2 4 8
f 2 8 16
f 2 16 33
f 2 33 38
f 2 38 37
f 2 37 36
f 2 36 19
f 2 19 10
f 2 10 5
f 3 6 12
f 3 12 13
f 3 13 7
f 5 10 18
f 5 18 9
f 6 11 24
f 6 24 12
f 7 13 14
f 8 15 29
f 8 29 16
f 9 18 17
f 10 19 20
f 10 20 21
f 10 21 22
f 10 22 35
f 10 35 18
f 11 23 24
f 12 24 25
f 12 25 26
f 12 26 14
f 12 14 13
f 14 26 27
f 14 27 28
f 15 30 42
f 15 42 29
f 16 29 42
f 16 42 31
f 16 31 32
f 16 32 20
f 16 20 33
f 17 18 35
f 17 35 34
f 19 36 20
f 20 37 38
f 20 38 33
f 20 32 39
f 20 39 21
f 20 36 37
f 21 39 22
f 22 39 40
f 22 40 41
f 22 41 35
f 23 34 35
f 23 35 24
f 24 35 25
f 25 35 41
f 25 41 42
f 25 42 26
f 26 42 30
f 26 30 27
f 27 30 28
f 31 40 39
f 31 39 32
f 31 42 41
f 31 41 40
