v 63.3012199 63.3687271 15.9228604
v 66.7120671 63.0745985 15.9228604
v 56.2480402 63.3687271 15.9228604
v 60.849098 63.3687271 17.7380105
v 66.7120671 60.8421478 17.7380105
v 66.7120671 56.2483039 15.9228604
v 56.2480402 56.9034722 15.9228604
v 56.2480402 63.3687271 17.7380105
v 66.7120671 56.2483039 17.7380105
v 56.9035792 56.2483039 15.9228604
v 56.2480402 59.1575293 17.7380105
v 59.1785002 56.2483039 17.7380105
v 59.1580153 56.250395 17.7380105
f 1 2 6
f 1 6 10
f 1 10 7
f 1 7 3
f 1 3 8
f 1 8 4
f 1 4 2
f 2 5 9
f 2 9 6
f 2 4 5
f 3 7 11
f 3 11 8
f 4 8 11
f 4 11 13
f 4 13 12
f 4 12 9
f 4 9 5
f 6 9 12
f 6 12 10
f 7 10 11
f 10 12 13
f 10 13 11
