v 154.926549 28.9786077 17.1398073
v 154.926549 29.1750491 28.2487276
v 154.926549 34.416157 17.1398073
v 178.436658 28.9786077 17.1398073
v 154.926549 29.3214476 29.4236567
v 179.249024 29.1750491 28.2487276
v 154.926549 34.416157 30.825
v 181.021929 34.416157 17.1398073
v 179.249024 28.9865935 17.1398073
v 154.926549 29.3624389 29.7492089
v 179.249024 29.3624389 29.7492089
v 180.411372 29.58763 28.2487276
v 180.316851 29.681325 29.7492089
v 154.926549 30.7503086 30.825
v 179.249024 34.416157 30.825
v 180.822666 34.416157 28.2487276
v 181.021929 31.5626943 17.1398073
v 179.813597 29.1894221 17.1398073
v 154.926549 29.6850514 30.4632773
v 180.148251 29.850086 30.6079664
v 179.249024 29.7750199 30.6615534
v 180.533996 29.4641232 17.1398073
v 180.809898 30.1849401 17.1398073
v 181.011708 30.7503086 17.1398073
v 180.822666 30.7503086 28.2487276
v 180.636177 30.7503086 29.7492089
v 154.926549 29.7750199 30.6615534
v 179.249024 30.7503086 30.825
v 179.68331 34.416157 30.7526555
v 180.720484 34.416157 29.0820291
v 180.224891 30.7503086 30.6615534
v 180.636177 34.416157 29.7492089
v 180.224891 34.416157 30.6615534
f 1 2 5
f 1 5 10
f 1 10 19
f 1 19 27
f 1 27 14
f 1 14 7
f 1 7 3
f 1 3 8
f 1 8 17
f 1 17 24
f 1 24 23
f 1 23 22
f 1 22 18
f 1 18 9
f 1 9 4
f 1 4 6
f 1 6 2
f 2 6 5
f 3 7 15
f 3 15 29
f 3 29 33
f 3 33 32
f 3 32 30
f 3 30 16
f 3 16 8
f 4 9 6
f 5 6 11
f 5 11 10
f 6 9 12
f 6 12 13
f 6 13 11
f 7 14 28
f 7 28 15
f 8 16 25
f 8 25 17
f 9 18 12
f 10 11 19
f 11 13 20
f 11 20 21
f 11 21 19
f 12 18 22
f 12 22 23
f 12 23 24
f 12 24 25
f 12 25 13
f 13 25 26
f 13 26 20
f 14 27 21
f 14 21 28
f 15 28 29
f 16 30 25
f 17 25 24
f 19 21 27
f 20 28 21
f 20 26 31
f 20 31 28
f 25 30 26
f 26 30 32
f 26 32 33
f 26 33 31
f 28 31 29
f 29 31 33
