v 183.39288 89.2493623 30.8235409
v 183.39288 89.9921089 30.7010105
v 180.749867 89.2493623 30.8235409
v 183.39288 60.7509461 30.8235409
v 180.749867 90.2228665 30.6616249
v 183.39288 90.2228665 30.6616249
v 179.850165 90.1471496 30.6076535
v 179.774637 89.2493623 30.6616249
v 177.719765 59.2510289 30.8235409
v 179.250365 56.2439847 30.8235409
v 180.225599 56.2439847 30.6616249
v 183.39288 60.5201894 30.7856145
v 180.749867 90.6375074 29.7499349
v 183.39288 90.6375074 29.7499349
v 179.36255 89.2493623 29.7499349
v 179.681332 90.316608 29.7499349
v 177.719765 60.228138 30.6616249
v 177.719765 56.2439847 30.8235409
v 180.637679 56.2439847 29.7499349
v 183.39288 59.7774419 30.6616249
v 182.249923 93.0712652 15.9228609
v 180.749867 92.8369045 15.9228609
v 183.39288 93.0712652 15.9228609
v 179.175389 89.2493623 28.248926
v 179.588031 90.4103565 28.248926
v 177.719765 89.4584852 15.9228609
v 177.719765 56.2439847 15.9228609
v 183.096306 56.2439847 15.9228609
v 183.39288 56.5468526 15.9228609
v 183.39288 59.359197 29.7499349
v 183.39288 59.6764863 30.4442784
v 178.442302 90.4500175 15.9228609
f 1 2 3
f 1 3 9
f 1 9 18
f 1 18 10
f 1 10 4
f 1 4 12
f 1 12 20
f 1 20 31
f 1 31 30
f 1 30 29
f 1 29 23
f 1 23 14
f 1 14 6
f 1 6 2
f 2 5 3
f 2 6 5
f 3 5 7
f 3 7 8
f 3 8 9
f 4 10 11
f 4 11 12
f 5 6 14
f 5 14 13
f 5 13 7
f 7 15 8
f 7 13 16
f 7 16 15
f 8 15 9
f 9 17 26
f 9 26 27
f 9 27 18
f 9 15 17
f 10 18 27
f 10 27 28
f 10 28 19
f 10 19 11
f 11 19 20
f 11 20 12
f 13 14 23
f 13 23 21
f 13 21 22
f 13 22 16
f 15 16 24
f 15 24 17
f 16 22 25
f 16 25 26
f 16 26 24
f 17 24 26
f 19 28 29
f 19 29 30
f 19 30 31
f 19 31 20
f 21 23 29
f 21 29 28
f 21 28 27
f 21 27 26
f 21 26 32
f 21 32 22
f 22 32 25
f 25 32 26
