v 120.011907 26.9402432 17.1398073
v 120.011907 26.9402432 30.825
v 120.011907 31.0217965 17.1398073
v 147.742825 26.9402432 17.1398073
v 120.011907 29.2497003 30.825
v 147.742825 26.9402432 30.825
v 120.011907 30.8248955 28.2487276
v 147.742825 30.8501601 28.2487276
v 147.742825 31.0366327 17.1424864
v 147.066858 31.0282123 17.1398073
v 147.742825 30.9175318 17.1398073
v 120.011907 30.2253753 30.6615534
v 146.249725 29.2497003 30.825
v 147.742825 30.2261782 30.6615534
v 147.742825 29.2424834 30.825
v 120.011907 30.6376219 29.7492089
v 147.742825 30.6512564 29.7492089
f 1 2 5
f 1 5 12
f 1 12 16
f 1 16 7
f 1 7 3
f 1 3 10
f 1 10 11
f 1 11 4
f 1 4 6
f 1 6 2
f 2 6 15
f 2 15 13
f 2 13 5
f 3 7 8
f 3 8 9
f 3 9 10
f 4 11 9
f 4 9 8
f 4 8 17
f 4 17 14
f 4 14 15
f 4 15 6
f 5 13 14
f 5 14 12
f 7 16 8
f 8 16 17
f 9 11 10
f 12 14 17
f 12 17 16
f 13 15 14
