v 213.060164 86.252498 15.9280516
v 213.060164 86.296522 15.9228604
v 213.062882 86.2287927 15.9278726
v 213.060164 89.1513187 17.7516057
v 213.098216 86.2287927 15.9228604
v 213.060164 120.824997 15.9228604
v 237.748475 86.9264066 15.9228604
v 239.248695 89.1614771 17.7516057
v 213.060164 120.824997 17.7516057
v 239.248695 120.824997 15.9228604
v 239.248695 87.1634585 15.9228604
v 240.411901 89.5814002 17.7516057
v 239.245977 120.824997 17.7516057
v 240.411901 120.411844 15.9228604
v 239.248695 120.824997 17.7499946
v 240.308633 88.3792037 15.9228604
v 240.825005 90.7531214 17.7499946
v 240.822287 90.7497346 17.7516057
v 240.411901 120.408461 17.7516057
v 240.411901 120.411844 17.7499946
v 240.825005 119.2469 15.9228604
v 240.825005 90.7531214 15.9228604
v 240.825005 92.2499406 17.7516057
v 240.825005 119.2469 17.7516057
f 1 2 3
f 1 3 4
f 1 4 9
f 1 9 6
f 1 6 2
f 2 5 3
f 2 6 10
f 2 10 14
f 2 14 21
f 2 21 22
f 2 22 16
f 2 16 11
f 2 11 7
f 2 7 5
f 3 5 7
f 3 7 8
f 3 8 4
f 4 8 12
f 4 12 18
f 4 18 23
f 4 23 24
f 4 24 19
f 4 19 13
f 4 13 9
f 6 9 13
f 6 13 15
f 6 15 10
f 7 11 8
f 8 11 12
f 10 15 20
f 10 20 14
f 11 16 12
f 12 17 18
f 12 16 17
f 13 19 20
f 13 20 15
f 14 20 24
f 14 24 21
f 16 22 17
f 17 22 21
f 17 21 24
f 17 24 23
f 17 23 18
f 19 24 20
