v 61.8451595 -0.824997425 1.39723057
v 91.8601012 -0.824997425 1.39723057
v 61.8451595 -0.824997425 13.2495193
v 61.8451595 91.9149613 1.39723057
v 91.8601012 -0.824997425 15.9214389
v 91.8601012 61.8761462 1.39723057
v 90.7495254 -0.824997425 15.9214389
v 61.8451595 -0.634360313 14.7497185
v 61.8451595 90.9708595 13.2495193
v 89.2481911 90.8165288 13.2495193
v 89.2481911 91.5881538 1.39723057
v 91.8601012 60.1241085 15.9214389
v 91.5898025 89.2460543 1.39723057
v 91.8601012 60.9683543 13.2495193
v 90.4204667 -0.797767639 15.9214389
v 61.8451595 0.75455904 15.8247434
v 61.8451595 0.491302013 15.7806618
v 61.8451595 -0.216779709 15.6612145
v 61.8451595 -0.334789753 15.4152104
v 61.8451595 90.9254694 13.7699675
v 89.7417784 91.5246105 1.39723057
v 89.2481911 90.6349754 14.7497185
v 90.3176343 90.3172445 14.7497185
v 90.4116511 90.4080248 13.2495193
v 91.8601012 60.3510556 15.8318531
v 90.8229768 89.2460543 13.2495193
v 90.6378794 89.2460543 14.7497185
v 90.2236176 89.2460543 15.6612145
v 89.2481911 89.2460543 15.8247434
v 91.5574837 60.4509133 15.9214389
v 91.5281045 89.7362584 1.39723057
v 91.8601012 60.6687838 15.1123264
v 91.8601012 60.6869388 15.0611346
v 91.8601012 60.795874 14.7497185
v 91.8601012 60.9229642 13.7514817
v 88.9396977 -0.461883545 15.9214389
v 88.375597 -0.307559967 15.9214389
v 87.1621871 0.75455904 15.9214389
v 61.8451595 26.9261813 15.9214389
v 61.8451595 90.7983756 14.7497185
v 90.9287453 90.9254694 1.39723057
v 61.8451595 90.6894422 15.0739323
v 61.8451595 90.6712818 15.1265461
v 61.8451595 90.380795 15.7806618
v 89.2481911 90.2173877 15.6612145
v 90.1501679 90.1447678 15.6071787
v 61.8451595 90.1356912 15.9214389
v 62.8382134 89.2460543 15.9214389
v 89.2481911 62.8293264 15.9214389
v 61.8451595 90.3535581 15.8361191
f 1 2 5
f 1 5 7
f 1 7 3
f 1 3 8
f 1 8 19
f 1 19 18
f 1 18 17
f 1 17 16
f 1 16 39
f 1 39 47
f 1 47 50
f 1 50 44
f 1 44 43
f 1 43 42
f 1 42 40
f 1 40 20
f 1 20 9
f 1 9 4
f 1 4 11
f 1 11 21
f 1 21 41
f 1 41 31
f 1 31 13
f 1 13 6
f 1 6 2
f 2 6 14
f 2 14 35
f 2 35 34
f 2 34 33
f 2 33 32
f 2 32 25
f 2 25 12
f 2 12 5
f 3 7 8
f 4 9 10
f 4 10 11
f 5 12 30
f 5 30 49
f 5 49 48
f 5 48 47
f 5 47 39
f 5 39 38
f 5 38 37
f 5 37 36
f 5 36 15
f 5 15 7
f 6 13 14
f 7 15 16
f 7 16 17
f 7 17 18
f 7 18 19
f 7 19 8
f 9 20 10
f 10 21 11
f 10 20 22
f 10 22 23
f 10 23 24
f 10 24 21
f 12 25 26
f 12 26 27
f 12 27 28
f 12 28 29
f 12 29 30
f 13 31 26
f 13 26 25
f 13 25 32
f 13 32 33
f 13 33 34
f 13 34 35
f 13 35 14
f 15 36 16
f 16 36 37
f 16 37 38
f 16 38 39
f 20 40 22
f 21 24 41
f 22 40 42
f 22 42 43
f 22 43 44
f 22 44 45
f 22 45 46
f 22 46 23
f 23 46 27
f 23 27 26
f 23 26 24
f 24 26 31
f 24 31 41
f 27 46 28
f 28 46 29
f 29 46 45
f 29 45 47
f 29 47 48
f 29 48 49
f 29 49 30
f 44 50 45
f 45 50 47
