v 56.2469745 63.3668286 30.8235409
v 56.2469745 60.7486894 30.8235409
v 56.2469745 63.3687271 30.4267743
v 55.867846 63.3687271 30.8235409
v 45.306859 60.7499551 30.8235409
v 45.306859 60.4613713 30.7768633
v 54.7497368 59.7747188 30.6616249
v 56.2469745 59.774086 30.6601658
v 56.2469745 63.3687271 15.9228609
v 45.306859 63.3687271 30.8235409
v 45.306859 59.7747188 30.6616249
v 54.7497368 59.3620945 29.7499349
v 56.2469745 59.3620945 29.7470167
v 56.2469745 56.9034357 15.9228609
v 45.306859 63.3687271 15.9228609
v 45.306859 59.3620945 29.7499349
v 45.306859 56.9255859 15.9228609
f 1 2 8
f 1 8 13
f 1 13 14
f 1 14 9
f 1 9 3
f 1 3 4
f 1 4 10
f 1 10 5
f 1 5 2
f 2 5 6
f 2 6 7
f 2 7 8
f 3 9 15
f 3 15 10
f 3 10 4
f 5 10 15
f 5 15 17
f 5 17 16
f 5 16 11
f 5 11 6
f 6 11 7
f 7 11 16
f 7 16 12
f 7 12 8
f 8 12 13
f 9 14 17
f 9 17 15
f 12 16 14
f 12 14 13
f 14 16 17
