v 66.7120671 33.4654659 15.9228604
v 93.2473433 33.4654659 15.9228604
v 66.7120671 33.4654659 17.7516057
v 66.7120671 63.0748683 15.9228604
v 90.8418953 33.4654659 17.7499946
v 93.0733001 58.5737523 15.9228604
v 90.836699 59.2461661 17.7516057
v 90.6470704 33.4654659 17.7516057
v 66.7120671 60.8373526 17.7516057
v 88.5741234 63.0748683 15.9228604
v 90.836699 33.7495029 17.7516057
v 92.8369117 59.2490646 15.9228604
v 90.4184747 60.4170942 17.7516057
v 89.2469215 60.8373526 17.7516057
v 89.2495179 62.8372049 15.9228604
f 1 2 5
f 1 5 8
f 1 8 3
f 1 3 9
f 1 9 4
f 1 4 10
f 1 10 15
f 1 15 12
f 1 12 6
f 1 6 2
f 2 6 7
f 2 7 5
f 3 8 11
f 3 11 7
f 3 7 13
f 3 13 14
f 3 14 9
f 4 9 14
f 4 14 10
f 5 11 8
f 5 7 11
f 6 12 7
f 7 12 13
f 10 14 15
f 12 15 13
f 13 15 14
