v 120.009198 59.0658025 2.59580874
v 120.009198 59.0658025 15.8237166
v 120.009198 60.8850981 2.59580874
v 212.075672 59.0658025 2.59580874
v 120.009198 59.2500554 15.8237166
v 147.173831 59.0658025 15.9228609
v 120.009198 60.8249412 13.249884
v 149.278883 60.9054506 15.9228609
v 148.43923 60.9054506 14.748786
v 147.930704 60.9054506 13.249884
v 147.753314 60.9054506 2.59580874
v 239.039254 59.1147925 2.59580874
v 211.981058 59.0658025 13.249884
v 120.009198 60.2253535 15.6619553
v 147.173831 59.2500554 15.9228609
v 148.451056 60.4510319 15.9228609
v 210.715663 59.0658025 15.9228609
v 120.009198 60.6378065 14.748786
v 120.009198 60.4341016 15.2001526
v 212.832541 60.9054506 15.9228609
v 239.50048 60.9054506 2.59580874
v 239.240298 59.1169538 2.59580874
v 239.240298 59.1751294 13.249884
v 211.484363 59.0658025 14.748786
v 239.240298 59.3620841 14.748786
v 239.240298 59.7747172 15.6619553
v 239.240298 60.7498352 15.8237166
v 211.555324 59.5490388 15.9228609
v 212.832541 60.7498352 15.9228609
v 239.240298 60.9054506 15.8237166
v 240.825005 60.9054506 2.59711319
v 240.825005 60.9041899 2.59580874
v 240.257349 59.4818576 2.59580874
v 240.411086 59.5875824 13.249884
v 240.316486 59.6810597 14.748786
v 240.139089 59.8498232 15.6071649
v 240.221872 60.7498352 15.6619553
v 239.346743 60.9054506 15.8080623
v 240.825005 60.9054506 13.249884
v 240.825005 60.7498352 2.59580874
v 240.411086 59.5454366 2.59580874
v 240.825005 60.7498352 13.249884
v 240.635791 60.7498352 14.748786
v 240.221872 60.9054506 15.6619553
v 240.635791 60.9054506 14.748786
f 1 2 5
f 1 5 14
f 1 14 19
f 1 19 18
f 1 18 7
f 1 7 3
f 1 3 11
f 1 11 21
f 1 21 32
f 1 32 40
f 1 40 41
f 1 41 33
f 1 33 22
f 1 22 12
f 1 12 4
f 1 4 13
f 1 13 24
f 1 24 17
f 1 17 6
f 1 6 2
f 2 6 15
f 2 15 5
f 3 7 8
f 3 8 9
f 3 9 10
f 3 10 11
f 4 12 13
f 5 15 16
f 5 16 8
f 5 8 14
f 6 17 28
f 6 28 29
f 6 29 20
f 6 20 8
f 6 8 16
f 6 16 15
f 7 18 8
f 8 18 19
f 8 19 14
f 8 20 30
f 8 30 38
f 8 38 44
f 8 44 45
f 8 45 39
f 8 39 31
f 8 31 21
f 8 21 11
f 8 11 10
f 8 10 9
f 12 22 23
f 12 23 17
f 12 17 24
f 12 24 13
f 17 23 25
f 17 25 26
f 17 26 27
f 17 27 28
f 20 29 27
f 20 27 30
f 21 31 32
f 22 33 34
f 22 34 23
f 23 34 35
f 23 35 25
f 25 35 36
f 25 36 26
f 26 36 27
f 27 29 28
f 27 36 37
f 27 37 38
f 27 38 30
f 31 39 42
f 31 42 40
f 31 40 32
f 33 41 34
f 34 41 42
f 34 42 35
f 35 42 43
f 35 43 36
f 36 43 37
f 37 44 38
f 37 43 45
f 37 45 44
f 39 45 43
f 39 43 42
f 40 42 41
