v 213.768482 -0.63795805 -1.7496649
v 213.768482 -0.63795805 -0.25008297
v 213.768482 -0.22687912 -2.650998
v 239.249175 -0.63795805 -1.7496649
v 239.249175 -0.63795805 -0.25008297
v 213.768482 -0.221171379 0.662198007
v 215.25203 -0.221171379 -2.66232228
v 239.249175 -0.221171379 -2.66232228
v 213.768482 0.738011599 -2.82273626
v 240.317116 -0.318231583 -1.7496649
v 240.148773 -0.146949291 -2.60797
v 240.317116 -0.318231583 -0.25008297
v 240.148773 -0.146949291 0.608223021
v 239.249175 -0.221171379 0.662198007
v 213.768482 -0.209748745 0.664462686
v 239.249175 0.755138397 -2.82500005
v 213.768482 0.755138397 -2.82500005
v 240.63539 0.755138397 -1.7496649
v 240.225048 0.755138397 -2.66232228
v 240.63539 0.755138397 -0.25008297
v 240.225048 0.755138397 0.662198007
v 239.249175 0.755138397 0.824875772
v 213.768482 0.755138397 0.824875772
v 239.249175 57.6836336 -2.82500005
v 213.768482 57.6836336 -2.82500005
v 240.63539 57.6836336 -1.7496649
v 240.640655 57.6836336 -0.25008297
v 240.225048 57.6836336 -2.66232228
v 240.22768 57.6836336 0.712397337
v 239.249175 57.6836336 0.976985633
v 237.749841 57.6836336 1.02869505
v 213.768482 57.6836336 1.03095973
f 1 2 6
f 1 6 15
f 1 15 23
f 1 23 32
f 1 32 25
f 1 25 17
f 1 17 9
f 1 9 3
f 1 3 4
f 1 4 5
f 1 5 2
f 2 5 14
f 2 14 6
f 3 7 8
f 3 8 4
f 3 9 7
f 4 10 12
f 4 12 5
f 4 8 11
f 4 11 10
f 5 12 13
f 5 13 14
f 6 14 15
f 7 9 8
f 8 9 16
f 8 16 11
f 9 17 16
f 10 11 18
f 10 18 20
f 10 20 12
f 11 16 19
f 11 19 18
f 12 20 13
f 13 20 21
f 13 21 22
f 13 22 14
f 14 22 15
f 15 22 23
f 16 17 25
f 16 25 24
f 16 24 28
f 16 28 19
f 18 19 28
f 18 28 26
f 18 26 27
f 18 27 20
f 20 27 29
f 20 29 21
f 21 29 30
f 21 30 22
f 22 30 31
f 22 31 32
f 22 32 23
f 24 25 32
f 24 32 31
f 24 31 30
f 24 30 29
f 24 29 27
f 24 27 26
f 24 26 28
