v 213.768482 57.6893413 1.0304814
v 213.768482 0.750124454 0.824601293
v 213.768482 57.6893413 -2.82500005
v 210.895865 57.6893413 2.59580874
v 210.877504 30.7461709 2.59580874
v 213.768482 -0.212130547 0.664353609
v 210.455332 29.5376229 2.59580874
v 180.453465 -0.412602425 2.59580874
v 213.768482 0.750124454 -2.82500005
v 120.009191 57.6893413 -2.82500005
v 120.009191 57.6893413 2.59580874
v 213.768482 -0.223588943 0.662231088
v 179.242008 -0.824990273 2.59580874
v 213.768482 -0.229310989 -2.65095687
v 213.740945 -0.223588943 -2.66210055
v 120.009191 0.257542133 -2.74275458
v 120.009191 0.750124454 -2.82500005
v 120.009191 -0.824990273 2.59580874
v 213.768482 -0.635976791 -0.249903262
v 179.242008 -0.824990273 -0.249903262
v 213.768482 -0.635976791 -1.74996531
v 120.009191 -0.635976791 -1.74996531
v 120.009191 -0.223588943 -2.66210055
v 120.009191 -0.824990273 -0.249903262
f 1 2 6
f 1 6 12
f 1 12 19
f 1 19 21
f 1 21 14
f 1 14 9
f 1 9 3
f 1 3 10
f 1 10 11
f 1 11 4
f 1 4 5
f 1 5 2
f 2 5 7
f 2 7 8
f 2 8 6
f 3 9 17
f 3 17 10
f 4 11 18
f 4 18 13
f 4 13 8
f 4 8 7
f 4 7 5
f 6 8 13
f 6 13 12
f 9 14 15
f 9 15 16
f 9 16 17
f 10 17 16
f 10 16 23
f 10 23 22
f 10 22 24
f 10 24 18
f 10 18 11
f 12 13 19
f 13 20 21
f 13 21 19
f 13 18 24
f 13 24 20
f 14 21 22
f 14 22 23
f 14 23 15
f 15 23 16
f 20 24 22
f 20 22 21
