v 240.825005 93.5280204 2.59580874
v 240.825005 60.7519072 2.59580874
v 240.825005 93.5280204 -0.249903262
v 179.116226 93.5280204 2.59580874
v 240.825005 60.7519072 -0.249903262
v 240.411086 59.5486307 2.59580874
v 240.635791 57.6893413 -0.249903262
v 240.635791 93.5280204 -1.74996531
v 120.009198 93.5280204 0.824601293
v 150.757152 90.8829188 2.59580874
v 240.635791 57.6893413 -1.74996531
v 240.257349 59.4819778 2.59580874
v 240.221872 57.6893413 0.712109447
v 240.62396 57.6893413 -0.212760031
v 240.221872 93.5280204 -2.66210055
v 120.009198 93.5280204 -2.82500005
v 120.009198 60.8887222 2.59580874
v 149.539061 90.4584396 2.59580874
v 240.221872 57.6893413 -2.66210055
v 239.240298 59.1171348 2.59580874
v 239.240298 57.6893413 0.97688818
v 239.394042 93.5280204 -2.80059195
v 120.009198 57.6893413 -2.82500005
v 239.240298 93.5280204 -2.82500005
v 120.009198 57.6893413 2.59580874
v 239.287605 57.6893413 -2.81810141
v 210.893054 57.6893413 2.59580874
v 239.240298 57.6893413 -2.82500005
f 1 2 5
f 1 5 3
f 1 3 8
f 1 8 15
f 1 15 22
f 1 22 24
f 1 24 16
f 1 16 9
f 1 9 4
f 1 4 10
f 1 10 18
f 1 18 17
f 1 17 25
f 1 25 27
f 1 27 20
f 1 20 12
f 1 12 6
f 1 6 2
f 2 6 7
f 2 7 11
f 2 11 5
f 3 5 11
f 3 11 8
f 4 9 10
f 6 12 13
f 6 13 14
f 6 14 7
f 7 14 13
f 7 13 21
f 7 21 27
f 7 27 25
f 7 25 23
f 7 23 28
f 7 28 26
f 7 26 19
f 7 19 11
f 8 11 19
f 8 19 15
f 9 16 23
f 9 23 25
f 9 25 17
f 9 17 18
f 9 18 10
f 12 20 13
f 13 20 21
f 15 19 22
f 16 24 28
f 16 28 23
f 19 26 22
f 20 27 21
f 22 26 24
f 24 26 28
