v 212.082503 59.0656221 2.59580874
v 211.984699 59.0656221 13.249884
v 210.822873 30.7516551 13.249884
v 210.885115 30.7516551 2.59580874
v 181.804011 59.0656221 2.59580874
v 211.492703 59.0656221 14.748786
v 210.636156 30.7516551 14.748786
v 210.316057 29.682591 14.748786
v 210.4109 29.5883489 13.249884
v 210.46129 29.5412278 2.59580874
v 181.804011 28.9787185 2.59580874
v 181.804011 59.0656221 15.9228609
v 210.71914 59.0656221 15.9228609
v 210.224183 30.7516551 15.6619553
v 210.150089 29.8504615 15.6071649
v 209.249082 29.3645239 14.748786
v 209.249082 29.1760397 13.249884
v 209.249082 29.1171384 2.59580874
v 181.804011 29.0081692 13.249884
v 181.804011 29.9005294 15.9228609
v 210.449431 58.4412655 15.9228609
v 209.249082 30.7516551 15.8237166
v 209.249082 29.7768331 15.6619553
v 181.804011 29.6295798 15.8485025
v 181.804011 29.1819298 14.748786
v 182.838385 30.7516551 15.9228609
v 209.249082 57.1601576 15.9228609
f 1 2 3
f 1 3 4
f 1 4 10
f 1 10 18
f 1 18 11
f 1 11 5
f 1 5 12
f 1 12 13
f 1 13 6
f 1 6 2
f 2 6 7
f 2 7 3
f 3 7 8
f 3 8 9
f 3 9 10
f 3 10 4
f 5 11 19
f 5 19 25
f 5 25 24
f 5 24 20
f 5 20 12
f 6 13 14
f 6 14 7
f 7 14 15
f 7 15 8
f 8 15 16
f 8 16 17
f 8 17 9
f 9 17 10
f 10 17 18
f 11 18 19
f 12 20 26
f 12 26 27
f 12 27 21
f 12 21 13
f 13 21 22
f 13 22 14
f 14 22 15
f 15 22 23
f 15 23 16
f 16 23 24
f 16 24 25
f 16 25 17
f 17 25 19
f 17 19 18
f 20 24 23
f 20 23 22
f 20 22 26
f 21 27 22
f 22 27 26
