v 178.208345 91.0251367 2.59580874
v 178.208345 90.9956539 13.249884
v 178.208345 60.9056318 2.59580874
v 150.750879 90.8836198 2.59580874
v 178.208345 90.8217072 14.748786
v 150.750879 90.8246541 13.249884
v 178.208345 60.9056318 15.9228609
v 147.754707 60.9056318 2.59580874
v 149.540486 90.459069 2.59580874
v 178.208345 90.3735709 15.8524162
v 150.750879 90.6359661 14.748786
v 149.588186 90.4118979 13.249884
v 149.683587 90.3175521 14.748786
v 178.208345 90.1170695 15.9228609
v 149.269191 60.9056318 15.9228609
v 147.924639 60.9056318 13.249884
v 149.176771 89.247331 13.249884
v 149.117146 89.247331 2.59580874
v 150.750879 90.2232099 15.6619553
v 149.850537 90.1495028 15.6071649
v 149.364592 89.247331 14.748786
v 177.161922 89.247331 15.9228609
v 150.750879 89.247331 15.8237166
v 149.549428 61.5601471 15.9228609
v 149.776007 89.247331 15.6619553
v 148.431455 60.9056318 14.748786
v 150.750879 62.8396958 15.9228609
f 1 2 5
f 1 5 10
f 1 10 14
f 1 14 7
f 1 7 3
f 1 3 8
f 1 8 18
f 1 18 9
f 1 9 4
f 1 4 2
f 2 4 6
f 2 6 5
f 3 7 15
f 3 15 26
f 3 26 16
f 3 16 8
f 4 9 6
f 5 6 11
f 5 11 10
f 6 9 12
f 6 12 13
f 6 13 11
f 7 14 22
f 7 22 27
f 7 27 24
f 7 24 15
f 8 16 17
f 8 17 18
f 9 18 17
f 9 17 12
f 10 11 19
f 10 19 14
f 11 13 20
f 11 20 19
f 12 17 13
f 13 17 21
f 13 21 20
f 14 19 23
f 14 23 22
f 15 24 23
f 15 23 25
f 15 25 26
f 16 26 21
f 16 21 17
f 19 20 23
f 20 25 23
f 20 21 25
f 21 26 25
f 22 23 27
f 23 24 27
