v 29.2496324 119.248023 30.825
v 30.2251554 119.248023 30.6624761
v 30.1502752 120.147986 30.6074479
v 29.2496324 120.224118 30.6624761
v 26.6692328 119.248023 30.825
v 29.2496324 93.0484843 30.825
v 30.2255702 93.0484843 30.6624761
v 30.637629 119.248023 29.7487547
v 30.6441736 93.0484843 29.7487547
v 30.318861 120.316558 29.7487547
v 29.2496324 120.637393 29.7487547
v 26.6692328 120.224118 30.6624761
v 26.6692328 93.0484843 30.825
v 30.8246326 119.248023 28.2489207
v 30.8364987 93.0484843 28.2489207
v 30.412159 120.411723 28.2489207
v 29.2496324 120.822279 28.2489207
v 26.6692328 120.689049 29.3302854
v 26.6692328 120.637393 29.7487547
v 26.6692328 93.0484843 17.7513626
v 30.8389521 119.248023 17.7513626
v 30.8491802 93.0484843 17.7513626
v 30.4195261 120.409005 17.7513626
v 30.412159 120.411723 19.2511962
v 26.6692328 120.822279 28.2489207
v 29.2496324 120.822279 19.2511962
v 26.6692328 120.822279 17.7513626
v 29.2484021 120.822279 17.7513626
f 1 2 3
f 1 3 4
f 1 4 12
f 1 12 5
f 1 5 13
f 1 13 6
f 1 6 7
f 1 7 2
f 2 8 3
f 2 7 9
f 2 9 8
f 3 10 11
f 3 11 4
f 3 8 10
f 4 11 19
f 4 19 12
f 5 12 19
f 5 19 18
f 5 18 25
f 5 25 27
f 5 27 20
f 5 20 13
f 6 13 20
f 6 20 22
f 6 22 15
f 6 15 9
f 6 9 7
f 8 14 10
f 8 9 15
f 8 15 14
f 10 16 17
f 10 17 11
f 10 14 16
f 11 18 19
f 11 17 18
f 14 21 16
f 14 15 21
f 15 22 21
f 16 21 23
f 16 23 24
f 16 24 26
f 16 26 17
f 17 25 18
f 17 26 28
f 17 28 27
f 17 27 25
f 20 27 28
f 20 28 23
f 20 23 21
f 20 21 22
f 23 28 26
f 23 26 24
