v -0.825004578 90.7522345 15.9228609
v -0.80347538 90.4246652 15.9228609
v -0.825004578 90.7522345 28.248926
v -0.825004578 119.247322 15.9228609
v -0.464372635 88.9439249 15.9228609
v -0.308289528 88.3790356 15.9228609
v -0.410556793 89.5890319 28.248926
v -0.316357613 89.6826231 29.7499349
v -0.636620522 90.7522345 29.7499349
v -0.825004578 119.247322 28.248926
v -0.502052307 120.156491 15.9228609
v 0.75206995 87.1656972 15.9228609
v 1.42757177 86.9283772 15.9228609
v 0.75206995 89.3650836 29.7499349
v -0.149502754 89.8497498 30.6076535
v -0.224847794 90.7522345 30.6616249
v -0.636620522 119.247322 29.7499349
v -0.316357613 120.31693 29.7499349
v -0.410556793 120.410521 28.248926
v -0.410556793 120.410521 15.9228609
v 26.6688251 86.6776872 15.9228609
v 26.6688251 89.3583977 29.7499349
v 0.75206995 89.7762144 30.6616249
v 0.75206995 90.7522345 30.8235409
v -0.224847794 119.247322 30.6616249
v -0.149502754 120.149803 30.6076535
v 0.75206995 120.637815 29.7499349
v 0.75206995 120.824997 28.248926
v -0.157570839 120.500772 15.9228609
v 26.6688251 120.824997 15.9228609
v 26.6688251 89.7762144 30.6616249
v 26.6688251 90.0469601 30.7068452
v 26.6688251 90.7522345 30.8235409
v 0.75206995 119.247322 30.8235409
v 0.75206995 120.223346 30.6616249
v 26.6688251 120.637815 29.7499349
v 26.6688251 120.340333 30.4063519
v 0.75206995 120.824997 15.9228609
v 26.6688251 120.824997 28.248926
v 26.6688251 119.247322 30.8235409
v 26.6688251 119.521408 30.7783225
v 26.6688251 120.223346 30.6616249
f 1 2 3
f 1 3 10
f 1 10 4
f 1 4 11
f 1 11 20
f 1 20 29
f 1 29 38
f 1 38 30
f 1 30 21
f 1 21 13
f 1 13 12
f 1 12 6
f 1 6 5
f 1 5 2
f 2 5 3
f 3 5 6
f 3 6 7
f 3 7 8
f 3 8 9
f 3 9 17
f 3 17 10
f 4 10 11
f 6 12 7
f 7 12 8
f 8 12 13
f 8 13 14
f 8 14 15
f 8 15 9
f 9 15 16
f 9 16 25
f 9 25 17
f 10 17 18
f 10 18 19
f 10 19 11
f 11 19 20
f 13 21 14
f 14 22 23
f 14 23 15
f 14 21 22
f 15 23 24
f 15 24 16
f 16 24 34
f 16 34 25
f 17 25 26
f 17 26 18
f 18 26 27
f 18 27 28
f 18 28 19
f 19 28 29
f 19 29 20
f 21 30 39
f 21 39 36
f 21 36 37
f 21 37 42
f 21 42 41
f 21 41 40
f 21 40 33
f 21 33 32
f 21 32 31
f 21 31 22
f 22 31 23
f 23 31 32
f 23 32 24
f 24 32 33
f 24 33 40
f 24 40 34
f 25 34 26
f 26 35 27
f 26 34 35
f 27 36 39
f 27 39 28
f 27 35 37
f 27 37 36
f 28 38 29
f 28 39 30
f 28 30 38
f 34 40 41
f 34 41 35
f 35 41 42
f 35 42 37
