v 177.716968 60.8602023 17.7513626
v 177.716968 60.8498481 28.2489207
v 177.716968 34.4166899 17.7513626
v 150.751519 60.8369055 17.7513626
v 177.716968 60.6505385 29.7487547
v 150.751519 60.8239639 28.2489207
v 150.751519 60.637596 29.7487547
v 177.716968 34.4166899 30.825
v 149.706001 34.4166899 17.7513626
v 149.582999 60.4175788 17.7513626
v 149.588592 60.4124013 28.2489207
v 177.716968 60.6427726 29.7679504
v 149.683639 60.3166294 29.7487547
v 149.851368 60.1483807 30.6074479
v 150.751519 60.2234459 30.6624761
v 177.716968 59.2476028 30.825
v 150.751519 34.4166899 30.825
v 149.169266 34.4166899 18.4168177
v 149.160878 34.4192791 17.7513626
v 149.160878 59.2476028 17.7513626
v 149.177653 59.2476028 28.2489207
v 177.716968 60.2260342 30.6624761
v 149.362155 59.2476028 29.7487547
v 149.775889 59.2476028 30.6624761
v 150.751519 59.2476028 30.825
v 149.775889 34.4166899 30.6624761
v 149.177653 34.4166899 28.2489207
v 149.258721 34.4166899 28.9156553
v 149.362155 34.4166899 29.7487547
f 1 2 5
f 1 5 12
f 1 12 22
f 1 22 16
f 1 16 8
f 1 8 3
f 1 3 9
f 1 9 19
f 1 19 20
f 1 20 10
f 1 10 4
f 1 4 2
f 2 4 6
f 2 6 7
f 2 7 5
f 3 8 17
f 3 17 26
f 3 26 29
f 3 29 28
f 3 28 27
f 3 27 18
f 3 18 9
f 4 10 11
f 4 11 6
f 5 7 12
f 6 11 13
f 6 13 7
f 7 13 14
f 7 14 15
f 7 15 12
f 8 16 25
f 8 25 17
f 9 18 19
f 10 20 11
f 11 20 21
f 11 21 13
f 12 15 22
f 13 21 23
f 13 23 14
f 14 23 24
f 14 24 25
f 14 25 15
f 15 25 22
f 16 22 25
f 17 25 24
f 17 24 26
f 18 27 19
f 19 27 21
f 19 21 20
f 21 28 23
f 21 27 28
f 23 28 29
f 23 29 26
f 23 26 24
