v 26.6706419 86.6759992 15.9229796
v 26.9278622 61.4275816 15.9229796
v 26.6706419 88.9696991 17.1382299
v 26.6706419 93.043853 15.9229796
v 34.2940521 93.0863285 15.9228604
v 27.1650124 60.7515058 15.9229796
v 28.9892292 60.7515058 17.1382299
v 26.6706419 93.043853 17.1382299
v 45.305028 93.07217 15.9228604
v 35.2225757 93.04739 15.9228604
v 31.4282084 56.9251299 15.9229796
v 30.753243 57.1658278 15.9229796
v 31.034174 93.043853 17.1382299
v 29.4671702 59.4666088 17.1382299
v 45.305028 56.9251299 15.9229796
v 45.1007223 93.04739 15.9228604
v 45.305028 91.0156274 17.1382299
v 32.2527552 58.9816743 17.1382299
v 30.753243 58.9887536 17.1382299
v 45.305028 58.9816743 17.1382299
f 1 2 3
f 1 3 8
f 1 8 4
f 1 4 5
f 1 5 2
f 2 5 6
f 2 6 7
f 2 7 3
f 3 7 14
f 3 14 19
f 3 19 18
f 3 18 20
f 3 20 17
f 3 17 13
f 3 13 8
f 4 8 5
f 5 9 16
f 5 16 10
f 5 10 11
f 5 11 12
f 5 12 6
f 5 8 13
f 5 13 9
f 6 14 7
f 6 12 14
f 9 15 16
f 9 13 17
f 9 17 20
f 9 20 15
f 10 16 15
f 10 15 11
f 11 15 20
f 11 20 18
f 11 18 19
f 11 19 12
f 12 19 14
