v 66.714431 32.2475356 17.7516053
v 89.8229313 32.2475356 17.7516053
v 66.714431 32.2475356 30.825
v 66.714431 60.8363235 17.7516053
v 90.8488208 32.2475356 19.2501318
v 90.8606386 32.250334 17.7516053
v 89.2485273 32.2475356 30.825
v 66.714431 59.2494562 30.825
v 66.714431 60.8363235 17.7887168
v 89.2461634 60.8363235 17.7516053
v 90.8488208 32.2475356 28.2489681
v 90.8488208 32.250334 28.2489681
v 90.8370012 59.2466578 17.7516053
v 90.2247781 32.2475356 30.6624796
v 89.2485273 59.2494562 30.825
v 66.714431 60.2234066 30.6624796
v 89.2485273 60.8223295 28.2489681
v 66.714431 60.8223295 28.2489681
v 90.4186088 60.4165176 17.7516053
v 90.4115188 60.4109198 28.2489681
v 90.6502604 32.2475356 29.7487744
v 90.6502604 32.250334 29.7487744
v 90.8228195 59.2494562 28.2489681
v 90.6360787 59.2494562 29.7487744
v 90.2247781 59.2494562 30.6624796
v 90.1491362 60.1478416 30.6074514
v 89.2485273 60.2234066 30.6624796
v 66.714431 60.6376147 29.7487744
v 66.714431 60.8195311 28.2873585
v 89.2485273 60.6376147 29.7487744
v 90.3169656 60.3185624 29.7487744
f 1 2 5
f 1 5 11
f 1 11 21
f 1 21 14
f 1 14 7
f 1 7 3
f 1 3 8
f 1 8 16
f 1 16 28
f 1 28 29
f 1 29 18
f 1 18 9
f 1 9 4
f 1 4 10
f 1 10 19
f 1 19 13
f 1 13 6
f 1 6 2
f 2 6 5
f 3 7 15
f 3 15 8
f 4 9 10
f 5 6 11
f 6 12 11
f 6 13 12
f 7 14 25
f 7 25 15
f 8 15 27
f 8 27 16
f 9 17 10
f 9 18 17
f 10 17 20
f 10 20 19
f 11 12 22
f 11 22 21
f 12 13 23
f 12 23 24
f 12 24 22
f 13 19 20
f 13 20 23
f 14 21 22
f 14 22 25
f 15 25 26
f 15 26 27
f 16 27 30
f 16 30 28
f 17 18 29
f 17 29 30
f 17 30 31
f 17 31 20
f 20 31 23
f 22 24 25
f 23 31 24
f 24 31 26
f 24 26 25
f 26 31 30
f 26 30 27
f 28 30 29
