v 147.743526 26.9402432 17.1398073
v 147.743526 30.9170455 17.1398073
v 151.027633 26.9402432 17.1398073
v 147.743526 26.9402432 30.825
v 147.743526 31.036334 17.1424864
v 147.750555 31.0377985 17.1398073
v 154.923992 28.9784074 17.1398073
v 150.837139 26.9402432 28.2487276
v 149.250616 26.9402432 30.825
v 147.743526 29.2433345 30.825
v 148.978581 34.4166899 17.1398073
v 147.743526 30.8497167 28.2487276
v 154.923992 34.4166899 17.1398073
v 154.923992 29.1752744 28.2487276
v 150.735916 26.9402432 29.0592554
v 154.923992 30.7494539 30.825
v 149.699791 26.9402432 30.7499751
v 154.923992 29.774648 30.6615534
v 150.750675 34.4166899 30.825
v 149.775004 34.4166899 30.6615534
v 147.743526 30.2269238 30.6615534
v 149.175401 34.4166899 28.2487276
v 147.743526 30.6513888 29.7492089
v 154.923992 34.4166899 30.825
v 154.923992 29.3216407 29.4236567
v 150.644535 26.9402432 29.7492089
v 150.226289 26.9402432 30.6615534
v 154.923992 29.3626249 29.7492089
v 149.545848 34.4166899 30.1551416
v 149.362382 34.4166899 29.7492089
v 149.258348 34.4166899 28.9159056
v 150.421704 26.9402432 30.242224
f 1 2 6
f 1 6 11
f 1 11 13
f 1 13 7
f 1 7 3
f 1 3 8
f 1 8 15
f 1 15 26
f 1 26 32
f 1 32 27
f 1 27 17
f 1 17 9
f 1 9 4
f 1 4 10
f 1 10 21
f 1 21 23
f 1 23 12
f 1 12 5
f 1 5 2
f 2 5 6
f 3 7 8
f 4 9 16
f 4 16 24
f 4 24 19
f 4 19 10
f 5 11 6
f 5 12 11
f 7 13 24
f 7 24 16
f 7 16 18
f 7 18 28
f 7 28 25
f 7 25 14
f 7 14 8
f 8 14 15
f 9 17 18
f 9 18 16
f 10 19 20
f 10 20 21
f 11 12 22
f 11 22 31
f 11 31 30
f 11 30 29
f 11 29 20
f 11 20 19
f 11 19 24
f 11 24 13
f 12 23 22
f 14 25 26
f 14 26 15
f 17 27 18
f 18 27 28
f 20 29 21
f 21 29 30
f 21 30 23
f 22 23 31
f 23 30 31
f 25 28 26
f 26 28 32
f 27 32 28
