v 93.6442226 32.2469473 15.9228607
v 91.0379934 32.2469473 17.1383488
v 93.7438989 32.2428274 16.04316
v 93.7438989 32.2434157 15.9228607
v 86.2564838 32.2469473 15.9228607
v 93.7438989 31.0215497 17.1383488
v 86.2564838 32.2469473 17.1383488
v 93.7438989 26.2347257 15.9228607
v 86.2564838 27.7179193 15.9228607
v 93.7438989 26.2347257 17.1383488
v 86.2564838 28.9780426 17.1383488
v 86.9043767 26.2347257 15.9228607
v 86.2564838 26.9074595 15.9239315
v 86.6749763 26.6749763 15.9228607
v 89.3435025 26.2347257 17.1383488
v 88.9785147 26.2417889 17.1383488
f 1 2 3
f 1 3 4
f 1 4 8
f 1 8 12
f 1 12 14
f 1 14 9
f 1 9 5
f 1 5 7
f 1 7 2
f 2 6 3
f 2 7 11
f 2 11 16
f 2 16 15
f 2 15 10
f 2 10 6
f 3 6 10
f 3 10 8
f 3 8 4
f 5 9 13
f 5 13 11
f 5 11 7
f 8 10 15
f 8 15 12
f 9 14 13
f 11 13 12
f 11 12 16
f 12 15 16
f 12 13 14
