v 91.8601012 -0.824997425 1.39723057
v 120.009193 -0.824997425 1.39723057
v 91.8601012 -0.824997425 15.9214389
v 91.8601012 61.8791556 1.39723057
v 120.009193 -0.824997425 15.9214389
v 120.009193 61.5906787 1.39723057
v 91.8601012 60.1237339 15.9214389
v 91.8601012 60.9707558 13.2495193
v 120.009193 60.8234489 13.2495193
v 120.009193 33.0742818 15.9214389
v 92.8382671 59.2460239 15.9214389
v 120.009193 59.2460239 15.8247434
v 120.009193 59.7431874 15.7422678
v 120.009193 60.2219403 15.6612145
v 91.8601012 60.3508347 15.8318531
v 91.8601012 60.9277904 13.7514817
v 120.009193 60.7313812 13.9903758
v 120.009193 60.4306269 15.2004897
v 91.8601012 60.3753859 15.7778178
v 91.8601012 60.7927573 14.7497185
v 120.009193 60.6331766 14.7497185
v 91.8601012 60.6700015 15.1123264
v 91.8601012 60.6884158 15.0611346
f 1 2 5
f 1 5 3
f 1 3 7
f 1 7 15
f 1 15 19
f 1 19 22
f 1 22 23
f 1 23 20
f 1 20 16
f 1 16 8
f 1 8 4
f 1 4 6
f 1 6 2
f 2 6 9
f 2 9 17
f 2 17 21
f 2 21 18
f 2 18 14
f 2 14 13
f 2 13 12
f 2 12 10
f 2 10 5
f 3 5 10
f 3 10 11
f 3 11 7
f 4 8 9
f 4 9 6
f 7 11 12
f 7 12 13
f 7 13 14
f 7 14 15
f 8 16 9
f 9 16 17
f 10 12 11
f 14 18 19
f 14 19 15
f 16 20 21
f 16 21 17
f 18 21 19
f 19 21 22
f 20 23 21
f 21 23 22
