v 120.005955 26.2320793 30.8235409
v 120.005955 0.751014948 30.8235409
v 120.005955 26.2320793 15.9228609
v 90.7502246 26.2320793 30.8235409
v 120.005955 -0.223724842 30.6616249
v 90.7502246 0.751014948 30.8235409
v 120.005955 -0.824997425 15.9228609
v 86.9036865 26.2320793 15.9228609
v 89.774816 26.2320793 30.6616249
v 120.005955 -0.636935234 29.7499349
v 90.7502246 -0.223724842 30.6616249
v 89.774816 0.751014948 30.6616249
v 89.8525929 -0.149559975 30.6076535
v 120.005955 -0.824997425 28.248926
v 90.7502246 -0.824997425 15.9228609
v 86.9263709 1.42644882 15.9228609
v 89.3632686 0.751014948 29.7499349
v 89.3632686 26.2320793 29.7499349
v 90.7502246 -0.636935234 29.7499349
v 89.6840823 -0.316436291 29.7499349
v 90.7502246 -0.824997425 28.248926
v 90.4229289 -0.803804398 15.9228609
v 87.162931 0.751014948 15.9228609
v 89.5901084 -0.411787033 28.248926
v 88.3813798 -0.308489799 15.9228609
v 88.9452338 -0.464766026 15.9228609
f 1 2 5
f 1 5 10
f 1 10 14
f 1 14 7
f 1 7 3
f 1 3 8
f 1 8 18
f 1 18 9
f 1 9 4
f 1 4 6
f 1 6 2
f 2 6 11
f 2 11 5
f 3 7 15
f 3 15 22
f 3 22 26
f 3 26 25
f 3 25 23
f 3 23 16
f 3 16 8
f 4 9 12
f 4 12 6
f 5 11 19
f 5 19 10
f 6 12 13
f 6 13 11
f 7 14 21
f 7 21 15
f 8 16 17
f 8 17 18
f 9 18 17
f 9 17 12
f 10 19 21
f 10 21 14
f 11 13 19
f 12 17 13
f 13 17 20
f 13 20 19
f 15 21 22
f 16 23 20
f 16 20 17
f 19 20 21
f 20 23 24
f 20 24 21
f 21 24 25
f 21 25 26
f 21 26 22
f 23 25 24
