v 66.7120671 32.2475356 15.9228604
v 66.7120671 32.2475356 17.7516057
v 66.7120671 33.4654659 15.9228604
v 120.003977 32.2475356 15.9228604
v 66.7120671 33.4654659 17.7516057
v 89.8287034 32.2475356 17.7516057
v 93.2510734 33.4654659 15.9228604
v 120.003977 33.0747896 15.9228604
v 120.003977 32.2475356 16.0388575
v 90.6529945 33.4654659 17.7516057
v 90.8616757 32.2475356 17.7499946
v 90.8616757 32.250039 17.7516057
v 90.8460242 33.4654659 17.7499946
f 1 2 5
f 1 5 3
f 1 3 7
f 1 7 8
f 1 8 4
f 1 4 9
f 1 9 11
f 1 11 6
f 1 6 2
f 2 6 12
f 2 12 10
f 2 10 5
f 3 5 10
f 3 10 13
f 3 13 7
f 4 8 9
f 6 11 12
f 7 13 8
f 8 13 9
f 9 12 11
f 9 13 12
f 10 12 13
