v 59.2609119 120.819411 1.39539683
v 59.2609119 120.819411 -0.250207245
v 0.759944916 120.819411 1.39539683
v 60.5738139 120.467484 1.39539683
v 119.997368 119.249697 0.824826598
v 119.997368 120.221694 0.662456393
v 119.997368 120.433967 0.20054692
v 119.997368 120.635068 -0.250207245
v 0.759944916 120.819411 -0.250207245
v 119.997368 120.635068 -1.74996531
v 0.641655922 120.780308 1.39539683
v 60.7157493 120.417209 1.39539683
v 90.9243 90.9333551 1.39539683
v 91.5275252 89.7434986 1.39539683
v 91.5866661 89.251914 1.39539683
v 119.997368 63.7565929 0.828958094
v 0.759944916 120.635068 -1.74996531
v -0.316400528 120.316658 -1.74996531
v -0.411028862 120.411623 -0.250207245
v 119.997368 120.428381 -2.21146262
v -0.411028862 120.411623 1.39539683
v 91.5866661 63.7565929 1.39539683
v 119.997368 63.7565929 -2.82500005
v 0.759944916 120.221694 -2.66221499
v -0.138988495 120.149074 -2.60809159
v -0.63574791 119.249697 -1.74996531
v -0.825004578 119.249697 -0.250207245
v 119.997368 120.221694 -2.66221499
v -0.825004578 119.249697 1.39539683
v -0.825004578 63.7565929 1.39539683
v 119.997368 119.249697 -2.82500005
v 2.25025892 63.7565929 -2.82500005
v 0.759944916 119.249697 -2.82500005
v -0.221786499 119.249697 -2.66221499
v -0.63574791 63.7565929 -1.74996531
v -0.825004578 63.7565929 -0.250207245
v 0.748114586 63.7565929 -2.82417393
v 0.759944916 65.2536893 -2.82500005
v -0.221786499 65.2536893 -2.66221499
v -0.221786499 63.7565929 -2.65808439
f 1 2 9
f 1 9 3
f 1 3 11
f 1 11 21
f 1 21 29
f 1 29 30
f 1 30 22
f 1 22 15
f 1 15 14
f 1 14 13
f 1 13 12
f 1 12 4
f 1 4 5
f 1 5 6
f 1 6 7
f 1 7 8
f 1 8 10
f 1 10 2
f 2 10 17
f 2 17 9
f 3 9 11
f 4 12 5
f 5 13 14
f 5 14 15
f 5 15 16
f 5 16 23
f 5 23 31
f 5 31 28
f 5 28 20
f 5 20 10
f 5 10 8
f 5 8 7
f 5 7 6
f 5 12 13
f 9 17 18
f 9 18 19
f 9 19 11
f 10 20 17
f 11 19 21
f 15 22 16
f 16 22 30
f 16 30 36
f 16 36 35
f 16 35 40
f 16 40 37
f 16 37 32
f 16 32 23
f 17 24 25
f 17 25 18
f 17 20 24
f 18 25 26
f 18 26 27
f 18 27 19
f 19 27 29
f 19 29 21
f 20 28 24
f 23 32 38
f 23 38 33
f 23 33 31
f 24 33 25
f 24 28 31
f 24 31 33
f 25 34 26
f 25 33 34
f 26 34 39
f 26 39 35
f 26 35 36
f 26 36 27
f 27 36 30
f 27 30 29
f 32 37 38
f 33 38 37
f 33 37 34
f 34 37 39
f 35 39 40
f 37 40 39
