v 183.395562 56.5468338 15.9228609
v 205.224695 56.9259372 15.9228609
v 205.224695 59.3650702 29.7499349
v 183.395562 59.3614939 29.7499349
v 183.395562 93.0730355 15.9228609
v 205.224695 93.0837643 15.9228609
v 205.224695 59.4938216 30.0387588
v 183.395562 59.6762207 30.4442784
v 183.395562 90.6374753 29.7499349
v 205.224695 90.6374753 29.7499349
v 205.224695 59.7763619 30.6616249
v 183.395562 59.7763619 30.6616249
v 183.395562 90.222609 30.6616249
v 205.224695 90.3549385 30.3728011
v 205.224695 60.0839353 30.7126799
v 183.395562 60.5202609 30.7856145
v 183.395562 89.9901402 30.7010105
v 205.224695 90.222609 30.6616249
v 205.224695 60.7527298 30.8235409
v 183.395562 60.7527298 30.8235409
v 205.224695 89.2498183 30.8235409
v 205.224695 89.5573926 30.772486
v 183.395562 89.2498183 30.8235409
f 1 2 3
f 1 3 4
f 1 4 8
f 1 8 12
f 1 12 16
f 1 16 20
f 1 20 23
f 1 23 17
f 1 17 13
f 1 13 9
f 1 9 5
f 1 5 6
f 1 6 2
f 2 6 10
f 2 10 14
f 2 14 18
f 2 18 22
f 2 22 21
f 2 21 19
f 2 19 15
f 2 15 11
f 2 11 7
f 2 7 3
f 3 7 4
f 4 7 8
f 5 9 6
f 6 9 10
f 7 11 8
f 8 11 12
f 9 13 14
f 9 14 10
f 11 15 16
f 11 16 12
f 13 17 18
f 13 18 14
f 15 19 16
f 16 19 20
f 17 21 22
f 17 22 18
f 17 23 21
f 19 21 23
f 19 23 20
