v 61.8451595 58.0990165 15.9214389
v 61.8451595 58.0990165 1.39723057
v 57.83741 58.0990165 15.9214389
v 61.8451595 26.9297361 15.9214389
v 57.83741 58.0990165 1.39723057
v 61.8451595 -0.824997425 1.39723057
v 57.83741 30.3558183 15.9214389
v 61.425004 26.9297361 15.9214389
v 61.8451595 0.755381584 15.8247434
v 57.83741 28.2621002 1.39723057
v 61.8451595 -0.824997425 13.2495193
v 60.7498527 -0.824997425 1.39723057
v 58.0127692 30.0097489 15.9214389
v 57.83741 29.8482513 15.7835058
v 59.3622851 0.755381584 14.7497185
v 59.7745943 0.755381584 15.6612145
v 60.7498527 0.755381584 15.8247434
v 60.7498527 27.166214 15.9214389
v 61.8451595 0.490064621 15.7806618
v 57.83741 29.1272736 13.3618564
v 58.4093857 2.25501537 1.39723057
v 61.8451595 -0.686573982 14.3444515
v 60.7498527 -0.824997425 13.2495193
v 59.4172096 -0.467391014 1.39723057
v 58.4423375 29.5483232 15.9214389
v 57.83741 29.7386599 15.7394237
v 59.1751599 0.755381584 13.2495193
v 59.6812248 -0.317430496 14.7497185
v 59.8495245 -0.150160789 15.6071787
v 60.7498527 -0.225148201 15.6612145
v 61.8451595 -0.225148201 15.6612145
v 57.83741 29.3118417 14.7497185
v 58.509028 0.755381584 1.39723057
v 57.83741 29.3406808 14.8307722
v 61.8451595 -0.634660721 14.7497185
v 60.7498527 -0.634660721 14.7497185
v 59.5878553 -0.409712791 13.2495193
v 59.2728424 -0.415484905 1.39723057
v 58.608284 0.559276342 1.39723057
f 1 2 5
f 1 5 3
f 1 3 7
f 1 7 13
f 1 13 25
f 1 25 18
f 1 18 8
f 1 8 4
f 1 4 9
f 1 9 19
f 1 19 31
f 1 31 35
f 1 35 22
f 1 22 11
f 1 11 6
f 1 6 2
f 2 6 12
f 2 12 24
f 2 24 38
f 2 38 39
f 2 39 33
f 2 33 21
f 2 21 10
f 2 10 5
f 3 5 10
f 3 10 20
f 3 20 32
f 3 32 34
f 3 34 26
f 3 26 14
f 3 14 7
f 4 8 17
f 4 17 9
f 6 11 23
f 6 23 12
f 7 14 15
f 7 15 16
f 7 16 17
f 7 17 13
f 8 18 17
f 9 17 19
f 10 21 20
f 11 22 23
f 12 23 24
f 13 17 25
f 14 26 15
f 15 27 28
f 15 28 29
f 15 29 16
f 15 26 27
f 16 29 17
f 17 29 30
f 17 30 19
f 17 18 25
f 19 30 31
f 20 21 32
f 21 33 27
f 21 27 26
f 21 26 34
f 21 34 32
f 22 35 36
f 22 36 23
f 23 36 28
f 23 28 37
f 23 37 24
f 24 37 38
f 27 33 37
f 27 37 28
f 28 36 29
f 29 36 30
f 30 36 35
f 30 35 31
f 33 39 37
f 37 39 38
