v -120.824997 120.758511 2.5541898
v -120.76546 120.56787 2.5541898
v -120.824997 120.758511 13.2490396
v -120.824997 239.240313 2.5541898
v -120.408225 119.543191 2.5541898
v -120.408225 119.590849 13.2490396
v -120.31296 119.686171 14.7494101
v -120.634475 120.758511 14.7494101
v -120.824997 239.240313 13.2490396
v -120.408225 240.407982 2.5541898
v -119.24126 119.114252 2.5541898
v -119.24126 119.185742 13.2490396
v -119.24126 119.364463 14.7494101
v -120.146248 119.852976 15.608063
v -120.217695 120.758511 15.6613236
v -120.634475 239.240313 14.7494101
v -120.31296 240.312653 14.7494101
v -120.408225 240.407982 13.2490396
v -119.24126 240.825005 2.5541898
v -117.740879 119.102336 2.5541898
v -0.75873971 119.185742 13.2490396
v -0.75873971 119.364463 14.7494101
v -119.24126 119.781486 15.6613236
v -119.24126 120.758511 15.825
v -120.217695 239.240313 15.6613236
v -120.146248 240.145855 15.608063
v -119.24126 240.63436 14.7494101
v -119.24126 240.825005 13.2490396
v -0.75873971 240.825005 2.5541898
v -1.02071285 119.102336 2.5541898
v 0.40822506 119.590849 13.2490396
v 0.312960148 119.686171 14.7494101
v -0.75873971 119.114252 2.5541898
v 0.146248341 119.852976 15.608063
v -0.75873971 119.781486 15.6613236
v -0.75873971 120.758511 15.825
v -119.24126 239.240313 15.825
v -119.24126 240.217338 15.6613236
v -0.75873971 240.63436 14.7494101
v -0.75873971 240.825005 13.2490396
v 0.40822506 240.407982 2.5541898
v 0.217695236 119.459785 2.5541898
v 0.40822506 119.543191 2.5541898
v 0.824997425 120.758511 13.2490396
v 0.634474754 120.758511 14.7494101
v 0.217695236 120.758511 15.6613236
v -0.75873971 239.240313 15.825
v -0.75873971 240.217338 15.6613236
v 0.146248341 240.145855 15.608063
v 0.312960148 240.312653 14.7494101
v 0.40822506 240.407982 13.2490396
v 0.824997425 239.240313 2.5541898
v 0.824997425 120.758511 2.5541898
v 0.824997425 239.240313 13.2490396
v 0.634474754 239.240313 14.7494101
v 0.217695236 239.240313 15.6613236
f 1 2 3
f 1 3 9
f 1 9 4
f 1 4 10
f 1 10 19
f 1 19 29
f 1 29 41
f 1 41 52
f 1 52 53
f 1 53 43
f 1 43 42
f 1 42 33
f 1 33 30
f 1 30 20
f 1 20 11
f 1 11 5
f 1 5 2
f 2 5 3
f 3 5 6
f 3 6 7
f 3 7 8
f 3 8 16
f 3 16 9
f 4 9 18
f 4 18 10
f 5 11 6
f 6 11 12
f 6 12 7
f 7 12 13
f 7 13 14
f 7 14 8
f 8 14 15
f 8 15 25
f 8 25 16
f 9 16 17
f 9 17 18
f 10 18 28
f 10 28 19
f 11 20 12
f 12 20 30
f 12 30 21
f 12 21 22
f 12 22 13
f 13 22 35
f 13 35 23
f 13 23 14
f 14 24 15
f 14 23 24
f 15 24 37
f 15 37 25
f 16 25 26
f 16 26 17
f 17 27 28
f 17 28 18
f 17 26 27
f 19 28 40
f 19 40 29
f 21 31 32
f 21 32 22
f 21 30 33
f 21 33 31
f 22 32 34
f 22 34 35
f 23 35 36
f 23 36 24
f 24 36 47
f 24 47 37
f 25 37 26
f 26 37 38
f 26 38 27
f 27 39 40
f 27 40 28
f 27 38 48
f 27 48 39
f 29 40 51
f 29 51 41
f 31 33 42
f 31 42 43
f 31 43 44
f 31 44 32
f 32 44 45
f 32 45 34
f 34 45 46
f 34 46 36
f 34 36 35
f 36 46 56
f 36 56 47
f 37 47 48
f 37 48 38
f 39 48 49
f 39 49 50
f 39 50 40
f 40 50 51
f 41 51 54
f 41 54 52
f 43 53 44
f 44 53 52
f 44 52 54
f 44 54 55
f 44 55 45
f 45 55 56
f 45 56 46
f 47 56 49
f 47 49 48
f 49 56 55
f 49 55 50
f 50 55 54
f 50 54 51
