v -120.824997 120.753601 -0.249665439
v -120.634475 114.690757 -1.74979365
v -120.824997 120.753601 2.5541898
v -120.824997 239.244468 -0.249665439
v -120.217695 114.690757 -2.66229725
v -120.634475 114.690757 -0.249665439
v -120.634475 239.244468 -1.74979365
v -120.241513 114.690757 0.618608087
v -120.217695 114.690757 0.662311554
v -120.76546 120.568382 2.5541898
v -120.824997 239.244468 2.5541898
v -120.408225 240.405178 -0.249665439
v -120.31296 240.318747 -1.74979365
v -119.24126 114.690757 -2.82447344
v -120.217695 239.244468 -2.66229725
v -120.146248 240.145869 -2.60806298
v -119.288889 114.690757 0.817116141
v -120.408225 119.543502 2.5541898
v -120.408225 240.405178 2.5541898
v -119.24126 240.812659 -0.249665439
v -119.24126 240.627437 -1.74979365
v -0.75873971 114.690757 -2.82447344
v -119.24126 239.244468 -2.82447344
v -119.24126 240.219955 -2.66229725
v -119.24126 114.690757 0.824487746
v -119.24126 119.111323 2.5541898
v -119.24126 240.812659 2.5541898
v -0.75873971 240.812659 -0.249665439
v -0.75873971 240.627437 -1.74979365
v -0.71111083 114.690757 -2.81710184
v -0.75873971 239.244468 -2.82447344
v -0.75873971 240.219955 -2.66229725
v -0.75873971 114.690757 0.824487746
v -0.75873971 119.111323 2.5541898
v -0.75873971 240.812659 2.5541898
v -0.603940487 240.763264 2.5541898
v 0.40822506 240.405178 -0.249665439
v 0.312960148 240.318747 -1.74979365
v 0.146248341 240.145869 -2.60806298
v 0.217695236 114.690757 -2.66229725
v 0.217695236 239.244468 -2.66229725
v 0.217695236 114.690757 0.662311554
v 0.217695236 119.457064 2.5541898
v 0.40822506 240.405178 2.5541898
v 0.824997425 239.244468 -0.249665439
v 0.634474754 239.244468 -1.74979365
v 0.241513252 114.690757 -2.61859423
v 0.634474754 114.690757 -0.249665439
v 0.824997425 120.753601 2.5541898
v 0.40822506 119.543502 2.5541898
v 0.824997425 239.244468 2.5541898
v 0.824997425 120.753601 -0.249665439
v 0.634474754 114.690757 -1.74979365
f 1 2 6
f 1 6 3
f 1 3 11
f 1 11 4
f 1 4 7
f 1 7 2
f 2 5 14
f 2 14 22
f 2 22 30
f 2 30 40
f 2 40 47
f 2 47 53
f 2 53 48
f 2 48 42
f 2 42 33
f 2 33 25
f 2 25 17
f 2 17 9
f 2 9 8
f 2 8 6
f 2 7 15
f 2 15 5
f 3 6 8
f 3 8 9
f 3 9 10
f 3 10 18
f 3 18 26
f 3 26 34
f 3 34 43
f 3 43 50
f 3 50 49
f 3 49 51
f 3 51 44
f 3 44 36
f 3 36 35
f 3 35 27
f 3 27 19
f 3 19 11
f 4 11 19
f 4 19 12
f 4 12 13
f 4 13 7
f 5 15 23
f 5 23 14
f 7 13 16
f 7 16 15
f 9 17 18
f 9 18 10
f 12 19 27
f 12 27 20
f 12 20 13
f 13 20 21
f 13 21 16
f 14 23 31
f 14 31 22
f 15 16 23
f 16 21 24
f 16 24 23
f 17 25 18
f 18 25 26
f 20 27 35
f 20 35 28
f 20 28 29
f 20 29 21
f 21 29 32
f 21 32 24
f 22 31 30
f 23 24 32
f 23 32 31
f 25 33 34
f 25 34 26
f 28 36 37
f 28 37 38
f 28 38 29
f 28 35 36
f 29 38 39
f 29 39 32
f 30 31 41
f 30 41 40
f 31 32 39
f 31 39 41
f 33 42 43
f 33 43 34
f 36 44 37
f 37 44 51
f 37 51 45
f 37 45 38
f 38 45 46
f 38 46 39
f 39 46 41
f 40 41 47
f 41 46 47
f 42 48 49
f 42 49 50
f 42 50 43
f 45 52 53
f 45 53 46
f 45 51 49
f 45 49 52
f 46 53 47
f 48 53 52
f 48 52 49
