v -76.6244352 -0.637965202 -1.7499367
v -25.1253855 -0.637965202 -1.7499367
v -76.6244352 -0.637965202 -0.250778109
v -76.6244352 -0.197739601 -2.66243672
v -60.3016153 -0.344481468 -2.39375985
v -25.1253855 -0.637965202 -0.250420928
v -25.1253855 -0.209026337 -2.66243672
v -28.0945444 -0.637965202 -0.250420928
v -28.0945444 -0.209026337 0.662436724
v -76.6244352 -0.197739601 0.662436724
v -28.0945444 -0.209026337 -2.66243672
v -76.6244352 0.344073772 -2.75675929
v -25.1253855 -0.209026337 0.662436724
v -25.1253855 0.750432014 -2.82500005
v -57.3778246 0.0167226791 0.702452153
v -76.6244352 0.750432014 0.825000048
v -76.6244352 0.750432014 -2.82500005
v -25.1253855 0.750432014 0.825000048
v -25.1253855 114.678411 -2.82500005
v -76.6244352 114.678411 0.825000048
v -76.6244352 114.678411 -2.82500005
v -25.1253855 114.678411 0.825000048
f 1 2 6
f 1 6 8
f 1 8 3
f 1 3 10
f 1 10 16
f 1 16 20
f 1 20 21
f 1 21 17
f 1 17 12
f 1 12 4
f 1 4 5
f 1 5 2
f 2 5 7
f 2 7 14
f 2 14 19
f 2 19 22
f 2 22 18
f 2 18 13
f 2 13 6
f 3 8 9
f 3 9 10
f 4 11 5
f 4 12 11
f 5 11 7
f 6 13 9
f 6 9 8
f 7 11 12
f 7 12 14
f 9 13 15
f 9 15 10
f 10 15 16
f 12 17 14
f 13 18 15
f 14 17 21
f 14 21 19
f 15 18 16
f 16 18 22
f 16 22 20
f 19 21 20
f 19 20 22
