v -120.637958 0.753035545 -1.7499367
v -120.22331 0.753035545 -2.66243672
v -120.149946 -0.147285461 -2.60812914
v -120.315807 -0.318346024 -1.7499367
v -120.637958 0.753035545 -0.250063747
v -120.637958 45.3505182 -1.7499367
v -119.247286 0.753035545 -2.82500005
v -120.22331 45.3505182 -2.66243672
v -119.964949 45.3505182 -2.70566767
v -119.247286 -0.223817825 -2.66243672
v -119.247286 -0.637965202 -1.7499367
v -120.315807 -0.318346024 -0.250063747
v -120.149946 -0.147285461 0.608129591
v -120.22331 0.753035545 0.662436724
v -120.334947 45.3505182 0.419126838
v -120.637958 45.3505182 -0.250063747
v -88.056035 0.753035545 -2.82500005
v -119.247286 45.3505182 -2.82500005
v -88.056035 -0.223817825 -2.66243672
v -119.247286 -0.637965202 -0.250063747
v -88.056035 -0.637965202 -1.7499367
v -119.247286 0.753035545 0.825000048
v -119.247286 -0.223817825 0.662436724
v -120.22331 45.3505182 0.662436724
v -88.056035 45.3505182 -2.82500005
v -88.056035 -0.637965202 -0.250063747
v -88.056035 0.554966927 0.792130023
v -88.056035 0.753035545 0.825000048
v -119.247286 45.3505182 0.825000048
v -88.056035 -0.223817825 0.662436724
v -88.056035 45.3505182 0.825000048
f 1 2 3
f 1 3 4
f 1 4 12
f 1 12 5
f 1 5 16
f 1 16 6
f 1 6 8
f 1 8 2
f 2 7 3
f 2 8 9
f 2 9 7
f 3 7 10
f 3 10 11
f 3 11 4
f 4 11 20
f 4 20 12
f 5 12 13
f 5 13 14
f 5 14 15
f 5 15 16
f 6 16 15
f 6 15 24
f 6 24 29
f 6 29 31
f 6 31 25
f 6 25 18
f 6 18 9
f 6 9 8
f 7 17 19
f 7 19 10
f 7 9 18
f 7 18 25
f 7 25 17
f 10 19 21
f 10 21 11
f 11 21 26
f 11 26 20
f 12 20 13
f 13 22 14
f 13 20 23
f 13 23 22
f 14 22 29
f 14 29 24
f 14 24 15
f 17 25 31
f 17 31 28
f 17 28 27
f 17 27 30
f 17 30 26
f 17 26 21
f 17 21 19
f 20 26 30
f 20 30 23
f 22 23 27
f 22 27 28
f 22 28 31
f 22 31 29
f 23 30 27
