v -88.0528468 -0.637965202 -1.7499367
v -76.624437 -0.637965202 -1.7499367
v -88.0528468 -0.637965202 -0.250063747
v -88.0528468 -0.223817825 -2.66243672
v -76.624437 -0.637965202 -0.250063747
v -76.624437 -0.223817825 -2.66243672
v -88.0528468 -0.223817825 0.662436724
v -76.624437 0.343387127 -2.75711602
v -88.0528468 0.753035545 -2.82500005
v -76.624437 -0.223817825 0.662436724
v -88.0528468 0.554966927 0.792130023
v -76.624437 0.753035545 -2.82500005
v -88.0528468 45.3505182 -2.82500005
v -76.624437 0.753035545 0.825000048
v -88.0528468 0.753035545 0.825000048
v -76.624437 45.3505182 -2.82500005
v -88.0528468 45.3505182 0.825000048
v -76.624437 45.3505182 0.825000048
f 1 2 5
f 1 5 3
f 1 3 7
f 1 7 11
f 1 11 15
f 1 15 17
f 1 17 13
f 1 13 9
f 1 9 4
f 1 4 6
f 1 6 2
f 2 6 8
f 2 8 12
f 2 12 16
f 2 16 18
f 2 18 14
f 2 14 10
f 2 10 5
f 3 5 10
f 3 10 7
f 4 8 6
f 4 9 8
f 7 10 11
f 8 9 12
f 9 13 16
f 9 16 12
f 10 14 11
f 11 14 15
f 13 17 18
f 13 18 16
f 14 18 17
f 14 17 15
