v -120.637958 45.3505182 -1.7499367
v -120.224361 45.3505182 -2.66243672
v -120.637958 45.3505182 -0.250420928
v -120.637958 114.678411 -1.7499367
v -120.224361 52.0552897 -2.66243672
v -119.444561 52.0552897 -2.79213047
v -119.242072 45.3505182 -2.82500005
v -120.224361 45.3505182 0.662436724
v -120.637958 52.0552897 -0.250420928
v -120.637958 114.678411 -0.250778109
v -120.220056 114.678411 -2.66243672
v -119.242072 114.678411 -2.82500005
v -76.624437 45.3505182 -2.82500005
v -119.242072 45.3505182 0.825000048
v -120.224361 52.0552897 0.662436724
v -120.241599 114.678411 0.618848145
v -76.633054 114.678411 -2.82500005
v -76.624437 45.3505182 0.825000048
v -76.624437 52.0552897 -2.82500005
v -119.242072 114.678411 0.825000048
v -120.220056 114.678411 0.662436724
v -76.633054 114.678411 0.825000048
v -76.624437 52.0552897 0.825000048
f 1 2 7
f 1 7 13
f 1 13 18
f 1 18 14
f 1 14 8
f 1 8 3
f 1 3 9
f 1 9 10
f 1 10 4
f 1 4 5
f 1 5 2
f 2 5 6
f 2 6 7
f 3 8 15
f 3 15 9
f 4 10 16
f 4 16 21
f 4 21 20
f 4 20 22
f 4 22 17
f 4 17 12
f 4 12 11
f 4 11 5
f 5 11 6
f 6 11 12
f 6 12 7
f 7 12 17
f 7 17 19
f 7 19 13
f 8 14 20
f 8 20 15
f 9 15 10
f 10 15 16
f 13 19 23
f 13 23 18
f 14 18 23
f 14 23 22
f 14 22 20
f 15 20 21
f 15 21 16
f 17 22 23
f 17 23 19
