v -25.1250958 -0.637965202 -1.7499367
v -0.754094124 -0.637965202 -1.7499367
v -25.1250958 -0.637965202 -0.250778109
v -25.1250958 -0.209026337 -2.66243672
v -0.754094124 -0.209026337 -2.66243672
v 0.143680573 -0.130004883 -2.60777241
v 0.317687988 -0.299334526 -1.7499367
v -0.754094124 -0.637965202 -0.250778109
v -25.1250958 -0.209026337 0.662436724
v -25.1250958 0.761725903 -2.82500005
v -0.754094124 0.761725903 -2.82500005
v 0.221858025 0.761725903 -2.66243672
v 0.63795805 0.761725903 -1.7499367
v 0.317687988 -0.299334526 -0.250778109
v 0.143680573 -0.130004883 0.608129591
v -0.754094124 -0.209026337 0.662436724
v -25.1250958 0.761725903 0.825000048
v -25.1250958 114.678411 -2.82500005
v -0.751572847 67.9355478 -2.82500005
v -0.703657866 114.678411 -2.81714028
v 0.221858025 114.678411 -2.66243672
v 0.244553089 114.678411 -2.61884815
v 0.310120583 67.9355478 -2.47450596
v 0.63795805 0.761725903 -0.250778109
v 0.63795805 114.678411 -1.7499367
v 0.221858025 0.761725903 0.662436724
v -0.754094124 0.761725903 0.825000048
v -25.1250958 114.678411 0.825000048
v -0.751572847 114.678411 -2.82500005
v 0.63795805 67.9355478 -0.250420928
v 0.63795805 114.678411 -0.250420928
v 0.221858025 114.678411 0.662436724
v -0.751572847 67.9355478 0.825000048
v -0.751572847 114.678411 0.825000048
f 1 2 8
f 1 8 3
f 1 3 9
f 1 9 17
f 1 17 28
f 1 28 18
f 1 18 10
f 1 10 4
f 1 4 5
f 1 5 2
f 2 5 6
f 2 6 7
f 2 7 14
f 2 14 8
f 3 8 16
f 3 16 9
f 4 10 11
f 4 11 5
f 5 11 6
f 6 11 12
f 6 12 13
f 6 13 7
f 7 13 24
f 7 24 14
f 8 14 15
f 8 15 16
f 9 16 27
f 9 27 17
f 10 18 29
f 10 29 19
f 10 19 11
f 11 19 12
f 12 19 20
f 12 20 21
f 12 21 22
f 12 22 23
f 12 23 13
f 13 23 25
f 13 25 31
f 13 31 30
f 13 30 24
f 14 24 15
f 15 24 26
f 15 26 27
f 15 27 16
f 17 27 33
f 17 33 34
f 17 34 28
f 18 28 34
f 18 34 32
f 18 32 31
f 18 31 25
f 18 25 22
f 18 22 21
f 18 21 20
f 18 20 29
f 19 29 20
f 22 25 23
f 24 30 26
f 26 30 31
f 26 31 32
f 26 32 34
f 26 34 33
f 26 33 27
