v 0.999942452 183.63529 120
v -1.00000715 183.63529 120
v 1.48866612 120.991503 120
v 0.999942452 183.63529 -1.49011612e-08
v -1.00000715 183.63529 -1.49011612e-08
v -1.00000715 1.43051147e-05 120
v 1.48866612 118.996244 120
v 1.48866612 120.991503 -1.49011612e-08
v -1.00000715 1.43051147e-05 -1.49011612e-08
v 0.999942452 1.43051147e-05 120
v 1.48866612 118.996244 0.0117467344
v 0.999942452 1.43051147e-05 -1.49011612e-08
f 1 2 6
f 1 6 10
f 1 10 7
f 1 7 3
f 1 3 8
f 1 8 4
f 1 4 5
f 1 5 2
f 2 5 9
f 2 9 6
f 3 7 11
f 3 11 8
f 4 8 12
f 4 12 9
f 4 9 5
f 6 9 12
f 6 12 10
f 7 10 12
f 7 12 11
f 8 11 12
