v 241.000007 361.085836 120
v 238.999648 361.085836 120
v 241.000007 357.797436 120
v 241.000007 361.085836 -1.49011612e-08
v 229.362387 360.999878 120
v 238.999648 361.085836 -1.49011612e-08
v 238.999648 357.797436 120
v 241.000007 357.797436 -1.49011612e-08
v 229.362387 359.000122 120
v 229.362387 360.999878 -1.49011612e-08
v 238.999648 357.797436 -1.49011612e-08
v 229.362387 359.000122 -1.49011612e-08
f 1 2 5
f 1 5 9
f 1 9 7
f 1 7 3
f 1 3 8
f 1 8 4
f 1 4 6
f 1 6 2
f 2 6 10
f 2 10 5
f 3 7 11
f 3 11 8
f 4 8 11
f 4 11 12
f 4 12 10
f 4 10 6
f 5 10 12
f 5 12 9
f 7 9 12
f 7 12 11
