v 1.48866612 481 120
v 9.33408737e-05 481 120
v 1.48866612 478.991554 120
v 1.48866612 481 -1.49011612e-08
v 9.33408737e-05 481 -1.49011612e-08
v -1.00000715 479.981225 120
v 0.999942452 183.635305 120
v 1.48866612 478.991554 0.0117467344
v 0.999942452 183.635305 -1.49011612e-08
v -1.00000715 479.981225 -1.49011612e-08
v -1.00000715 183.635305 120
v -1.00000715 183.635305 -1.49011612e-08
f 1 2 6
f 1 6 11
f 1 11 7
f 1 7 3
f 1 3 8
f 1 8 4
f 1 4 5
f 1 5 2
f 2 5 10
f 2 10 6
f 3 7 9
f 3 9 8
f 4 8 9
f 4 9 12
f 4 12 10
f 4 10 5
f 6 10 12
f 6 12 11
f 7 11 12
f 7 12 9
