v 182.345345 56.2287927 -2.82499987
v 215.268545 56.2287927 -2.82499987
v 182.345345 56.2287927 16.3025765
v 182.345345 117.745675 -2.82499987
v 216.360662 56.2351155 -2.82499987
v 216.360662 56.2287927 2.67580357
v 182.345345 59.3460524 16.6218792
v 183.16776 56.2287927 16.0826979
v 216.360662 59.5926511 16.4612721
v 216.360662 60.4525852 16.6429113
v 216.360662 60.7560915 16.7060075
v 182.345345 119.244236 -2.81544048
v 216.360662 117.745675 -2.82499987
v 216.360662 56.2287927 7.19001868
v 182.345345 60.7560915 16.7079191
v 188.195472 56.2287927 14.7366546
v 193.998985 56.2287927 13.1822045
v 198.730366 56.2287927 11.9145532
v 216.360662 62.2546524 16.3274325
v 182.345345 68.3816814 14.8762305
v 182.345345 120.338123 -2.41200942
v 216.360662 119.547744 -2.70454454
v 216.360662 119.244236 -2.81544048
v 216.360662 63.171494 16.0826979
v 216.360662 107.249422 4.27231763
v 216.360662 117.35997 1.56302345
v 182.345345 107.300009 4.44630896
v 182.345345 120.407681 -2.38332945
v 216.360662 120.407681 -2.38332945
v 216.360662 118.605609 1.22842503
v 182.345345 113.344839 2.82111493
v 182.345345 120.824997 -1.21127832
v 216.360662 120.824997 -1.21127832
v 216.360662 118.902794 1.14812103
v 182.345345 117.821553 1.58596751
v 182.345345 120.407681 0.192124963
v 216.360662 120.717502 -0.855646908
v 182.345345 119.022932 1.25136864
v 216.360662 119.655236 0.907209933
v 182.345345 119.819634 0.893826157
v 216.360662 120.407681 0.155796677
v 182.345345 119.067192 1.2360729
v 182.345345 119.769051 0.941625804
f 1 2 6
f 1 6 14
f 1 14 18
f 1 18 17
f 1 17 16
f 1 16 8
f 1 8 3
f 1 3 7
f 1 7 15
f 1 15 20
f 1 20 27
f 1 27 31
f 1 31 35
f 1 35 38
f 1 38 42
f 1 42 43
f 1 43 40
f 1 40 36
f 1 36 32
f 1 32 28
f 1 28 21
f 1 21 12
f 1 12 4
f 1 4 13
f 1 13 5
f 1 5 2
f 2 5 6
f 3 8 9
f 3 9 10
f 3 10 11
f 3 11 7
f 4 12 23
f 4 23 13
f 5 13 23
f 5 23 22
f 5 22 29
f 5 29 33
f 5 33 37
f 5 37 41
f 5 41 39
f 5 39 34
f 5 34 30
f 5 30 26
f 5 26 25
f 5 25 24
f 5 24 19
f 5 19 11
f 5 11 10
f 5 10 9
f 5 9 14
f 5 14 6
f 7 11 15
f 8 16 9
f 9 16 17
f 9 17 18
f 9 18 14
f 11 19 20
f 11 20 15
f 12 21 22
f 12 22 23
f 19 24 20
f 20 24 25
f 20 25 26
f 20 26 27
f 21 28 29
f 21 29 22
f 26 30 27
f 27 30 31
f 28 32 33
f 28 33 29
f 30 34 31
f 31 34 35
f 32 36 33
f 33 36 37
f 34 38 35
f 34 39 38
f 36 40 41
f 36 41 37
f 38 39 42
f 39 41 40
f 39 40 43
f 39 43 42
