v 216.363051 56.2287927 6.72914308
v 218.063293 56.2287927 6.72914308
v 216.363051 56.2287927 7.1901482
v 216.363051 98.0740499 6.72914308
v 217.210779 56.2287927 6.96159896
v 239.249282 59.1779494 6.72914308
v 239.249282 59.1779494 15.2880104
v 216.444476 56.2287927 7.16866058
v 239.249282 59.5875549 16.4610333
v 216.363051 59.5875549 16.4610333
v 216.363051 97.97984 6.75453779
v 237.747803 98.0740499 6.72914308
v 239.589329 59.2967355 6.72914308
v 240.410714 59.5875549 15.2880104
v 240.274215 59.7268206 16.3203872
v 239.249282 60.7508326 16.7071627
v 216.363051 60.7508326 16.7071627
v 216.363051 97.209785 6.96159896
v 237.747803 97.209785 6.96159896
v 239.249282 97.9757452 6.72914308
v 239.249282 96.4561093 7.16182363
v 240.410714 59.5875549 6.72914308
v 240.825005 60.7508326 13.787791
v 240.767527 60.7508326 15.2880104
v 240.355639 60.7508326 16.3721521
v 240.18322 62.2540838 16.1826719
v 240.044332 63.1142548 16.067421
v 239.249282 62.2540838 16.3272242
v 216.363051 62.2540838 16.3272242
v 216.363051 84.3604714 10.4044847
v 239.249282 90.6601954 8.71576142
v 239.249282 95.2477741 7.48608974
v 237.747803 69.7539532 14.3181419
v 239.249282 84.7495955 10.2999771
v 240.116172 96.3045573 7.12080193
v 240.267034 96.5626073 6.72914308
v 240.029955 85.5729032 10.058731
v 240.825005 60.7508326 6.72914308
v 240.825005 63.7532383 13.787791
v 240.81542 65.2523929 13.787791
v 240.801058 71.2531078 12.287572
v 240.781903 77.2497261 10.7893066
v 240.760345 83.2463443 9.2890874
v 240.733995 66.7515475 13.787791
v 240.322108 66.7515475 14.8299356
v 240.348458 83.2463443 10.3693232
v 240.125742 73.845908 13.1294919
v 240.276618 72.7522624 13.2759978
v 240.226321 78.7488806 11.7220595
v 240.154481 90.4390097 8.65715918
v 240.082641 79.7073573 11.5950882
v 239.249282 68.2179344 14.7293348
v 237.747803 63.9170802 15.8818461
v 216.363051 63.7245664 15.9336127
v 216.363051 69.7539532 14.3181419
v 240.264645 95.2477741 7.26242435
v 240.346055 96.1898661 6.72914308
v 240.825005 87.3055315 6.72914308
v 240.825005 75.7505715 10.7893066
v 240.825005 81.7471898 9.2890874
v 240.813031 87.7479064 7.78886822
v 240.722036 89.247061 7.78886822
v 240.310135 89.247061 8.81636214
v 240.566368 94.6784234 6.72914308
v 240.384378 93.7486196 7.44702157
v 240.489736 95.2477741 6.72914308
v 240.820212 88.8087827 6.72914308
v 240.825005 86.2487501 7.78886822
v 240.793877 90.3079391 6.72914308
v 240.67174 93.2570958 6.72914308
v 240.638208 93.7486196 6.72914308
f 1 2 5
f 1 5 8
f 1 8 3
f 1 3 10
f 1 10 17
f 1 17 29
f 1 29 54
f 1 54 55
f 1 55 30
f 1 30 18
f 1 18 11
f 1 11 4
f 1 4 12
f 1 12 20
f 1 20 36
f 1 36 57
f 1 57 66
f 1 66 64
f 1 64 71
f 1 71 70
f 1 70 69
f 1 69 67
f 1 67 58
f 1 58 38
f 1 38 22
f 1 22 13
f 1 13 6
f 1 6 2
f 2 6 7
f 2 7 5
f 3 8 7
f 3 7 9
f 3 9 10
f 4 11 12
f 5 7 8
f 6 13 7
f 7 13 14
f 7 14 15
f 7 15 9
f 9 15 16
f 9 16 17
f 9 17 10
f 11 18 19
f 11 19 12
f 12 19 21
f 12 21 20
f 13 22 14
f 14 22 38
f 14 38 23
f 14 23 24
f 14 24 15
f 15 24 25
f 15 25 16
f 16 25 26
f 16 26 27
f 16 27 28
f 16 28 29
f 16 29 17
f 18 30 19
f 19 31 32
f 19 32 21
f 19 30 33
f 19 33 34
f 19 34 31
f 20 21 35
f 20 35 36
f 21 32 37
f 21 37 35
f 23 38 58
f 23 58 68
f 23 68 60
f 23 60 59
f 23 59 39
f 23 39 24
f 24 39 40
f 24 40 41
f 24 41 42
f 24 42 43
f 24 43 44
f 24 44 25
f 25 45 26
f 25 44 46
f 25 46 45
f 26 47 27
f 26 45 48
f 26 48 49
f 26 49 50
f 26 50 35
f 26 35 47
f 27 47 51
f 27 51 37
f 27 37 28
f 28 37 52
f 28 52 33
f 28 33 53
f 28 53 54
f 28 54 29
f 30 55 33
f 31 34 37
f 31 37 32
f 33 55 54
f 33 54 53
f 33 52 34
f 34 52 37
f 35 50 56
f 35 56 57
f 35 57 36
f 35 37 51
f 35 51 47
f 39 59 40
f 40 59 60
f 40 60 61
f 40 61 41
f 41 61 42
f 42 61 43
f 43 61 62
f 43 62 44
f 44 62 46
f 45 46 63
f 45 63 56
f 45 56 48
f 46 62 64
f 46 64 65
f 46 65 63
f 48 56 49
f 49 56 50
f 56 65 64
f 56 64 66
f 56 66 57
f 56 63 65
f 58 67 68
f 60 68 61
f 61 67 69
f 61 69 70
f 61 70 62
f 61 68 67
f 62 70 71
f 62 71 64
