v -0.81662178 63.7712073 -1.2098943
v -0.409927368 63.7712073 -2.38185245
v -0.409927368 63.7712073 0.156169951
v -0.81662178 119.244515 -1.2098943
v 0.737743378 63.7712073 -2.80851859
v -0.409927368 119.244515 -2.38185245
v 0.347757339 63.7712073 0.90695557
v -0.409927368 119.244515 0.156169951
v -0.270638466 120.272112 -0.0489229262
v -0.409927368 120.41173 -1.2098943
v -0.270638466 120.272112 -2.24268246
v 0.754458904 117.747803 -2.81401265
v 0.754458904 63.7712073 -2.81401265
v 0.754458904 119.244515 -2.81034964
v 1.0998702 63.7712073 1.15050328
v 0.347757339 119.244515 0.90695557
v 1.23358011 120.093398 1.11204845
v 0.74331522 120.389385 0.386898935
v 0.754458904 120.824997 -1.2098943
v 0.754458904 120.41173 -2.38185245
v 2.25311279 117.747803 -2.82499987
v 2.25311279 63.7712073 -2.82499987
v 2.25311279 119.244515 -2.81401265
v 35.2457356 63.7712073 10.2991034
v 6.89391375 119.244515 2.70334807
v 1.0998702 119.244515 1.14867222
v 11.9692755 120.009627 4.04926915
v 40.2876663 120.082226 11.5919201
v 7.10005045 120.143659 2.64841241
v 2.25311279 120.249767 1.24938738
v 2.25311279 120.663042 0.289846331
v 3.75175953 120.791488 0.289846331
v 5.25598526 120.824997 0.289846331
v 27.9586101 120.824997 -1.2098943
v 56.0931444 120.41173 -2.38185245
v 10.6600428 119.708047 -2.64371204
v 27.9641819 119.032295 -2.81767476
v 10.6600428 117.747803 -2.82499987
v 10.6600428 63.7712073 -2.82499987
v 27.9641819 119.244515 -2.8158437
v 47.2683764 63.7712073 13.5201579
v 50.2433968 117.747803 14.3167235
v 53.2462692 119.244515 15.1206137
v 34.4267678 120.026379 10.0555559
v 46.1541367 120.121322 13.1282845
v 52.020607 120.165997 14.6628169
v 47.246089 120.277691 13.2747791
v 8.25328588 120.300035 2.80223218
v 3.75175953 120.37822 1.43433687
v 14.2534661 120.752399 3.28932737
v 26.2482548 120.797074 6.28880829
v 9.75193977 120.808246 1.78958696
v 15.75212 120.819411 3.28932737
v 38.2486081 120.824997 9.28645816
v 56.0931444 120.824997 -1.20806324
v 56.0931444 119.244515 -2.8158437
v 56.0931444 117.898589 -2.82316792
v 56.0931444 63.7712073 -2.82316792
v 53.2462692 63.7712073 15.1206137
v 56.0820079 65.2511644 15.880555
v 56.0820079 117.747803 15.880555
v 56.0820079 119.244515 15.8567495
v 53.2462692 120.322373 14.8276244
v 14.2534661 120.339124 4.35507697
v 36.7499542 120.757985 9.28645816
v 42.7445626 120.780323 10.7861988
v 47.246089 120.690966 12.285939
v 53.2462692 120.730062 13.7856796
v 54.744916 120.813832 13.7856796
v 44.2432165 120.824997 10.7861988
v 56.0931444 120.824997 12.285939
v 56.0931444 63.7712073 15.369655
v 56.0820079 63.7712073 15.8732308
v 56.0931444 65.2511644 15.882387
v 56.0931444 117.764554 15.882387
v 56.0931444 119.244515 15.8585815
v 56.0931444 120.361462 15.3019006
v 54.744916 120.400558 15.0070803
v 48.7447429 120.389385 13.4560665
v 36.7499542 120.34471 10.3668573
v 56.0931444 120.819411 13.7856796
v 50.2433968 120.824997 12.285939
f 1 2 5
f 1 5 13
f 1 13 22
f 1 22 39
f 1 39 58
f 1 58 72
f 1 72 73
f 1 73 59
f 1 59 41
f 1 41 24
f 1 24 15
f 1 15 7
f 1 7 3
f 1 3 8
f 1 8 4
f 1 4 6
f 1 6 2
f 2 6 5
f 3 7 16
f 3 16 8
f 4 8 9
f 4 9 10
f 4 10 11
f 4 11 6
f 5 6 12
f 5 12 13
f 6 14 12
f 6 11 14
f 7 15 16
f 8 16 9
f 9 17 18
f 9 18 19
f 9 19 10
f 9 16 17
f 10 19 11
f 11 19 20
f 11 20 14
f 12 21 22
f 12 22 13
f 12 14 21
f 14 23 21
f 14 20 23
f 15 24 25
f 15 25 26
f 15 26 16
f 16 26 17
f 17 27 28
f 17 28 29
f 17 29 30
f 17 30 18
f 17 26 27
f 18 30 31
f 18 31 19
f 19 31 32
f 19 32 33
f 19 33 54
f 19 54 70
f 19 70 82
f 19 82 71
f 19 71 55
f 19 55 34
f 19 34 35
f 19 35 20
f 20 35 36
f 20 36 23
f 21 23 37
f 21 37 38
f 21 38 39
f 21 39 22
f 23 36 40
f 23 40 37
f 24 41 25
f 25 41 42
f 25 42 43
f 25 43 27
f 25 27 26
f 27 44 28
f 27 43 44
f 28 44 43
f 28 43 45
f 28 45 46
f 28 46 29
f 29 46 30
f 30 46 47
f 30 47 48
f 30 48 49
f 30 49 31
f 31 50 32
f 31 49 50
f 32 50 51
f 32 51 52
f 32 52 33
f 33 52 53
f 33 53 54
f 34 55 35
f 35 56 36
f 35 55 71
f 35 71 81
f 35 81 77
f 35 77 76
f 35 76 75
f 35 75 74
f 35 74 72
f 35 72 58
f 35 58 57
f 35 57 56
f 36 56 40
f 37 40 56
f 37 56 57
f 37 57 38
f 38 57 58
f 38 58 39
f 41 59 60
f 41 60 61
f 41 61 42
f 42 61 43
f 43 61 62
f 43 62 46
f 43 46 45
f 46 63 47
f 46 62 63
f 47 63 48
f 48 63 64
f 48 64 49
f 49 64 50
f 50 65 66
f 50 66 51
f 50 64 67
f 50 67 68
f 50 68 65
f 51 69 54
f 51 54 52
f 51 66 69
f 52 54 53
f 54 69 70
f 59 73 60
f 60 73 74
f 60 74 75
f 60 75 61
f 61 75 62
f 62 75 76
f 62 76 77
f 62 77 63
f 63 77 78
f 63 78 68
f 63 68 67
f 63 67 79
f 63 79 80
f 63 80 64
f 64 80 67
f 65 68 66
f 66 68 69
f 67 80 79
f 68 78 69
f 69 78 77
f 69 77 81
f 69 81 82
f 69 82 70
f 71 82 81
f 72 74 73
