v 216.363051 56.2287927 2.67405656
v 216.363051 56.2287927 6.72914308
v 216.363051 56.2351155 -2.82499987
v 216.750998 56.2287927 -2.82499987
v 218.063293 56.2287927 6.72914308
v 216.363051 98.0683672 6.72914308
v 216.363051 117.745675 -2.82499987
v 237.747803 56.2287927 -2.82499987
v 221.250651 56.2287927 5.87996912
v 239.249282 59.1753298 6.72914308
v 237.747803 98.0683672 6.72914308
v 216.363051 99.3582666 6.38404918
v 216.363051 119.244236 -2.8165831
v 237.747803 117.745675 -2.82499987
v 239.249282 56.2287927 -2.8165831
v 237.728641 56.2287927 1.46576029
v 240.410714 59.5926511 6.72914308
v 238.887684 56.2287927 1.15433437
v 238.904443 56.2287927 1.14965838
v 239.653988 56.2287927 0.905567527
v 239.249282 97.9735208 6.72914308
v 239.249282 99.7439718 6.27088857
v 239.249282 101.248856 5.87809873
v 216.363051 101.248856 5.87809873
v 216.363051 119.547744 -2.70435679
v 237.747803 119.244236 -2.8165831
v 239.249282 119.244236 -2.81190711
v 239.249282 117.745675 -2.8165831
v 240.410714 56.2287927 -2.38451409
v 240.825005 60.7560915 6.72914308
v 240.410714 56.2287927 0.155526221
v 240.825005 56.2287927 -1.21082056
v 240.267034 96.5571606 6.72914308
v 240.068278 102.172022 5.58444154
v 240.015593 108.033482 4.04788558
v 239.249282 118.902794 1.14778799
v 237.747803 116.247114 1.85948533
v 216.363051 117.35997 1.56208736
v 216.363051 120.407681 -2.38451409
v 239.249282 120.407681 -2.38451409
v 240.274215 120.274894 -2.24329758
v 240.410714 119.244236 -2.38451409
v 240.417895 56.2287927 -2.36768055
v 240.825005 87.31287 6.72914308
v 240.825005 119.244236 -1.21082056
v 240.346055 96.1841011 6.72914308
v 240.365224 99.7439718 5.8996087
v 240.209556 101.248856 5.70788977
v 240.144911 112.902224 2.64600021
v 240.104198 118.770007 1.11131442
v 239.249282 119.655236 0.905567527
v 216.363051 118.902794 1.14778799
v 216.363051 118.605609 1.22821626
v 216.363051 120.824997 -1.21082056
v 239.249282 120.824997 -1.21082056
v 240.410714 120.407681 -1.21082056
v 240.820212 88.8051081 6.72914308
v 240.825005 92.2448444 6.28772211
v 240.274215 120.274894 -0.0502206683
v 240.39156 119.256881 0.385588676
v 240.664558 117.745675 0.289261609
v 240.791473 116.247114 0.289261609
v 240.825005 114.748553 0.289261609
v 240.489736 95.2482891 6.72914308
v 240.753164 105.744538 3.28755689
v 240.712452 111.745108 1.78934422
v 240.379586 116.247114 1.43396315
v 240.338874 105.744538 4.35463552
v 240.566368 94.6728945 6.72914308
v 240.298162 111.745108 2.80124557
v 240.250268 117.745675 1.24785584
v 216.363051 119.655236 0.905567527
v 239.249282 120.407681 0.155526221
v 216.363051 120.717502 -0.856375575
v 240.793877 90.303669 6.72914308
v 240.825005 98.2454109 4.7876395
v 240.796266 93.7497282 6.28772211
v 240.777111 99.7439718 4.7876395
v 240.808239 110.246547 1.78934422
v 240.822601 104.245977 3.28755689
v 240.676532 95.2482891 6.28772211
v 240.638208 93.7497282 6.72914308
v 216.363051 120.407681 0.155526221
v 240.67174 93.2565308 6.72914308
f 1 2 6
f 1 6 12
f 1 12 24
f 1 24 38
f 1 38 53
f 1 53 52
f 1 52 72
f 1 72 83
f 1 83 74
f 1 74 54
f 1 54 39
f 1 39 25
f 1 25 13
f 1 13 7
f 1 7 3
f 1 3 4
f 1 4 8
f 1 8 15
f 1 15 29
f 1 29 43
f 1 43 32
f 1 32 31
f 1 31 20
f 1 20 19
f 1 19 18
f 1 18 16
f 1 16 9
f 1 9 5
f 1 5 2
f 2 5 10
f 2 10 17
f 2 17 30
f 2 30 44
f 2 44 57
f 2 57 75
f 2 75 84
f 2 84 82
f 2 82 69
f 2 69 64
f 2 64 46
f 2 46 33
f 2 33 21
f 2 21 11
f 2 11 6
f 3 7 14
f 3 14 8
f 3 8 4
f 5 9 10
f 6 11 12
f 7 13 26
f 7 26 14
f 8 14 28
f 8 28 15
f 9 16 10
f 10 16 18
f 10 18 19
f 10 19 20
f 10 20 17
f 11 21 22
f 11 22 23
f 11 23 12
f 12 23 24
f 13 25 26
f 14 26 27
f 14 27 28
f 15 28 42
f 15 42 29
f 17 20 31
f 17 31 32
f 17 32 30
f 21 33 34
f 21 34 22
f 22 34 23
f 23 34 35
f 23 35 36
f 23 36 37
f 23 37 38
f 23 38 24
f 25 39 40
f 25 40 26
f 26 40 27
f 27 40 41
f 27 41 42
f 27 42 28
f 29 42 43
f 30 32 45
f 30 45 63
f 30 63 76
f 30 76 58
f 30 58 44
f 32 43 45
f 33 46 47
f 33 47 48
f 33 48 34
f 34 48 49
f 34 49 50
f 34 50 35
f 35 50 36
f 36 50 51
f 36 51 72
f 36 72 52
f 36 52 53
f 36 53 38
f 36 38 37
f 39 54 55
f 39 55 40
f 40 55 41
f 41 55 56
f 41 56 45
f 41 45 42
f 42 45 43
f 44 58 57
f 45 56 59
f 45 59 60
f 45 60 61
f 45 61 62
f 45 62 63
f 46 64 47
f 47 65 66
f 47 66 67
f 47 67 68
f 47 68 48
f 47 64 69
f 47 69 65
f 48 68 70
f 48 70 71
f 48 71 49
f 49 71 50
f 50 71 60
f 50 60 59
f 50 59 51
f 51 59 73
f 51 73 83
f 51 83 72
f 54 74 55
f 55 73 59
f 55 59 56
f 55 74 73
f 57 58 75
f 58 76 77
f 58 77 75
f 60 71 61
f 61 71 67
f 61 67 66
f 61 66 62
f 62 66 65
f 62 65 78
f 62 78 77
f 62 77 79
f 62 79 63
f 63 79 80
f 63 80 76
f 65 69 81
f 65 81 78
f 67 71 70
f 67 70 68
f 69 82 77
f 69 77 81
f 73 74 83
f 75 77 84
f 76 80 77
f 77 82 84
f 77 80 79
f 77 78 81
