v 68.4313846 -0.8137393 -1.20852637
v 116.259915 -0.819368362 -1.21024299
v 68.4313846 -0.8137393 12.2878304
v 68.4313846 -0.459079742 -2.24155951
v 118.057433 -0.819368362 -1.21024299
v 69.7576618 -0.8137393 12.2878304
v 68.4313846 -0.425305367 13.9214642
v 68.4313846 -0.408418179 -2.38398838
v 116.24534 -0.408418179 -2.38398838
v 118.057433 -0.599820614 0.310135454
v 117.74651 -0.65611124 0.289543241
v 116.24534 -0.791223049 0.289543241
v 114.739314 -0.8137393 0.289543241
v 104.240842 -0.8137393 3.29254714
v 81.7572999 -0.8137393 9.28654265
v 118.057433 -0.402789116 -2.38398838
v 71.26369 -0.796852112 12.2878304
v 71.26369 -0.380272865 13.4564282
v 68.4313846 0.261483192 14.5992852
v 116.255057 0.745618343 -2.81298804
v 68.4313846 0.751247406 -2.81470466
v 118.057433 0.514812469 -2.72547203
v 118.057433 -0.200128555 1.20588866
v 117.74651 -0.245161057 1.2487888
v 111.741832 -0.706779957 1.79104519
v 116.255057 -0.374643803 1.43583265
v 110.240663 -0.808110237 1.79104519
v 105.742011 -0.746183395 3.29254714
v 99.7421908 -0.774335861 4.79233292
v 77.2586489 -0.779957771 10.7863284
v 72.7599978 -0.684263706 12.2878304
v 77.2586489 -0.363378525 11.9103099
v 72.7599978 -0.273313522 13.2762477
v 73.8482237 -0.121314526 13.1286716
v 68.4313846 0.751247406 14.6696414
v 116.24534 0.751247406 -2.81470466
v 118.057433 0.756876469 -2.81470466
v 68.4313846 2.25993633 -2.82500076
v 108.030201 -0.0143551826 4.05273613
v 112.898072 -0.138201714 2.6490463
v 118.057433 0.756876469 1.40151289
v 101.238502 -0.205757618 5.71211022
v 78.7598205 -0.222644806 11.7198337
v 111.741832 -0.295829773 2.80520272
v 89.2582941 -0.718038082 7.78675676
v 105.742011 -0.335233212 4.35818453
v 83.2584715 -0.757441521 9.28654265
v 83.2584715 -0.340862274 10.367624
v 90.4485404 -0.149459839 8.65505387
v 79.7168756 -0.0762820244 11.5911337
v 85.5806708 -0.025613308 10.0570278
v 118.057433 7.15192795 1.73441705
v 118.057433 8.68876576 1.79962513
v 118.057433 9.75836277 1.81850117
v 118.057433 10.1918292 1.82193351
v 118.057433 11.2557936 1.82536539
v 68.4313846 56.6910481 14.7056777
v 116.24534 2.25993633 -2.82500076
v 118.057433 1.94468737 -2.82156843
v 68.4313846 56.6910481 -2.82500076
v 118.057433 1.07212543 1.4409807
v 118.057433 56.6854173 1.82879728
v 118.057433 56.6910481 1.82879728
v 116.255057 3.74611259 -2.82500076
v 118.057433 2.25993633 -2.82328415
v 116.24534 56.6910481 -2.82500076
v 118.057433 56.6910481 -2.82328415
v 116.255057 56.6854173 -2.82500076
f 1 2 3
f 1 3 7
f 1 7 19
f 1 19 35
f 1 35 57
f 1 57 60
f 1 60 38
f 1 38 21
f 1 21 8
f 1 8 4
f 1 4 2
f 2 4 5
f 2 5 6
f 2 6 3
f 3 6 7
f 4 8 9
f 4 9 5
f 5 10 11
f 5 11 12
f 5 12 13
f 5 13 14
f 5 14 15
f 5 15 6
f 5 9 16
f 5 16 22
f 5 22 37
f 5 37 59
f 5 59 65
f 5 65 67
f 5 67 63
f 5 63 62
f 5 62 56
f 5 56 55
f 5 55 54
f 5 54 53
f 5 53 52
f 5 52 61
f 5 61 41
f 5 41 23
f 5 23 10
f 6 15 17
f 6 17 7
f 7 17 18
f 7 18 19
f 8 20 9
f 8 21 20
f 9 20 22
f 9 22 16
f 10 23 24
f 10 24 11
f 11 25 12
f 11 24 26
f 11 26 25
f 12 17 27
f 12 27 13
f 12 25 28
f 12 28 29
f 12 29 30
f 12 30 17
f 13 27 14
f 14 27 15
f 15 27 17
f 17 30 31
f 17 31 18
f 18 32 33
f 18 33 19
f 18 31 32
f 19 33 34
f 19 34 35
f 20 21 36
f 20 36 37
f 20 37 22
f 21 38 58
f 21 58 36
f 23 39 40
f 23 40 24
f 23 41 39
f 24 40 42
f 24 42 43
f 24 43 33
f 24 33 44
f 24 44 26
f 25 45 28
f 25 26 46
f 25 46 45
f 26 44 46
f 28 45 47
f 28 47 29
f 29 47 30
f 30 47 31
f 31 47 45
f 31 45 48
f 31 48 32
f 32 48 33
f 33 48 46
f 33 46 44
f 33 43 34
f 34 43 49
f 34 49 40
f 34 40 39
f 34 39 50
f 34 50 51
f 34 51 35
f 35 52 53
f 35 53 54
f 35 54 55
f 35 55 56
f 35 56 57
f 35 51 52
f 36 58 37
f 37 58 59
f 38 60 66
f 38 66 68
f 38 68 64
f 38 64 58
f 39 51 50
f 39 41 61
f 39 61 51
f 40 49 42
f 42 49 43
f 45 46 48
f 51 61 52
f 56 62 57
f 57 62 63
f 57 63 67
f 57 67 66
f 57 66 60
f 58 64 65
f 58 65 59
f 64 68 67
f 64 67 65
f 66 67 68
