v 59.073 60.5715739 16.7888663
v 56.0931587 59.2617169 16.7063097
v 59.073 59.2617169 16.7888663
v 59.073 119.24126 16.6621516
v 57.7497911 119.24126 16.3280861
v 56.8346858 119.24126 16.0823367
v 56.0931587 117.764693 15.8826659
v 56.0931587 59.0950079 16.6659917
v 59.073 44.2817152 14.7671942
v 59.073 51.7598087 15.8730663
v 59.073 120.324869 16.3492049
v 57.7497911 120.181975 16.182173
v 56.8898249 120.039082 16.0669775
v 56.0931587 119.24126 15.8615462
v 56.0931587 57.7613354 16.3280861
v 56.0931587 56.7610808 16.0612179
v 59.073 21.7878985 8.75401609
v 56.0931587 120.360589 15.3047706
v 59.073 120.741642 15.2874918
v 57.7497911 120.586839 15.2874918
v 56.0931587 51.7121771 14.7095965
v 56.0931587 18.7514126 5.88182119
v 56.0931587 6.8198061 2.68324044
v 56.0931587 2.25912094 1.46025372
v 56.0931587 1.10406518 1.14922744
v 59.073 5.27179241 4.29021043
v 56.0931587 120.777361 13.9147515
v 59.073 120.824997 13.7880368
v 56.250093 120.824997 13.7880368
v 56.0931587 120.813088 13.7880368
v 56.0931587 1.02071285 1.12426814
v 59.073 0.723016262 2.91363057
v 59.073 120.824997 -1.21035028
v 56.0931587 120.824997 12.2866623
v 56.0931587 0.353876352 0.905397654
v 56.0931587 0.270520449 0.828601092
v 56.0931587 -0.40822506 0.156630397
v 59.073 -0.491580963 0.408139348
v 59.073 120.408225 -2.38341886
v 56.0931587 120.824997 -1.21035028
v 56.0931587 -0.824997425 -1.21035028
v 59.073 -0.503482819 0.356301636
v 59.073 119.384154 -2.76548254
v 56.0931587 120.408225 -2.38341886
v 59.073 -0.824997425 -1.21035028
v 56.0931587 -0.40822506 -2.38341886
v 59.073 119.24126 -2.81540024
v 56.0931587 119.24126 -2.81540024
v 59.073 -0.40822506 -2.38341886
v 56.0931587 -0.289142132 -2.42949653
v 59.073 117.740879 -2.82499987
v 56.0931587 117.740879 -2.82499987
v 59.073 0.75873971 -2.81540024
v 56.0931587 0.75873971 -2.81540024
v 59.073 2.25912094 -2.82499987
v 56.0931587 2.25912094 -2.82499987
v 56.0931587 0.913542509 -2.81731981
v 59.073 0.937356949 -2.81731981
f 1 2 3
f 1 3 10
f 1 10 9
f 1 9 17
f 1 17 26
f 1 26 32
f 1 32 38
f 1 38 42
f 1 42 45
f 1 45 49
f 1 49 53
f 1 53 58
f 1 58 55
f 1 55 51
f 1 51 47
f 1 47 43
f 1 43 39
f 1 39 33
f 1 33 28
f 1 28 19
f 1 19 11
f 1 11 4
f 1 4 2
f 2 4 5
f 2 5 6
f 2 6 7
f 2 7 14
f 2 14 18
f 2 18 27
f 2 27 30
f 2 30 34
f 2 34 40
f 2 40 44
f 2 44 48
f 2 48 52
f 2 52 56
f 2 56 57
f 2 57 54
f 2 54 50
f 2 50 46
f 2 46 41
f 2 41 37
f 2 37 36
f 2 36 35
f 2 35 31
f 2 31 25
f 2 25 24
f 2 24 23
f 2 23 22
f 2 22 21
f 2 21 16
f 2 16 15
f 2 15 8
f 2 8 9
f 2 9 10
f 2 10 3
f 4 11 12
f 4 12 13
f 4 13 5
f 5 13 6
f 6 13 14
f 6 14 7
f 8 15 9
f 9 16 17
f 9 15 16
f 11 18 12
f 11 19 20
f 11 20 18
f 12 18 13
f 13 18 14
f 16 21 17
f 17 22 23
f 17 23 24
f 17 24 25
f 17 25 26
f 17 21 22
f 18 20 27
f 19 28 29
f 19 29 30
f 19 30 20
f 20 30 27
f 25 31 26
f 26 31 32
f 28 33 40
f 28 40 34
f 28 34 29
f 29 34 30
f 31 35 32
f 32 35 36
f 32 36 37
f 32 37 38
f 33 39 44
f 33 44 40
f 37 41 38
f 38 41 42
f 39 43 44
f 41 45 42
f 41 46 49
f 41 49 45
f 43 47 48
f 43 48 44
f 46 50 49
f 47 51 52
f 47 52 48
f 49 50 53
f 50 54 53
f 51 55 56
f 51 56 52
f 53 54 57
f 53 57 58
f 55 58 57
f 55 57 56
