v 56.0875869 49.4472313 14.0951627
v 56.0875869 49.4472313 -2.82499897
v 54.7448587 49.4472313 14.1034481
v 56.0875869 47.114709 13.4803959
v 56.0875869 2.25058436 -2.82499897
v 2.25045204 49.4472313 -2.82499897
v 2.25045204 49.4472313 14.1034481
v 56.0875869 35.2454245 10.3005129
v 0.751726627 45.9828955 13.1754985
v 0.751726627 35.2454245 10.2988557
v 56.0875869 0.907173157 -2.81671453
v 2.25045204 2.25058436 -2.82499897
v 0.751726627 49.4472313 -2.81505692
v 1.44815683 49.4472313 14.093506
v 0.751726627 47.2475749 13.5135373
v 56.0875869 2.25058436 1.46013838
v 0.751726627 17.7416754 5.60939737
v -0.0282812119 34.4236296 10.0569258
v -0.0115728378 11.9645011 4.05011114
v 56.0875869 0.754623413 -2.81505692
v 2.25045204 0.754623413 -2.81505692
v 0.751726627 0.754623413 -2.8117435
v 0.751726627 2.25058436 -2.81505692
v 0.211293697 49.4472313 -2.61455286
v 0.751726627 49.4472313 14.0819063
v -0.122995377 46.1551273 13.1291012
v -0.078420639 40.2893794 11.5930135
v 56.0875869 1.09416604 1.15026948
v 0.751726627 2.25058436 1.45848122
v -0.0672769547 17.8302526 5.58619861
v 0.751726627 1.09416604 1.14861232
v -0.100708008 1.23195291 1.11215708
v 56.0875869 -0.411636829 -2.38422263
v 0.751726627 -0.411636829 -2.38422263
v -0.273427963 -0.273849964 -2.24337447
v -0.407137871 0.754623413 -2.38422263
v -0.407137871 49.4472313 -2.38422263
v 0.144431591 49.4472313 13.8482618
v -0.273427963 47.2475749 13.2765785
v -0.223288536 41.2489611 11.7222638
v -0.15642643 29.5568275 8.65505968
v -0.145282745 7.09770083 2.64824477
v 56.0875869 0.346183777 0.906682879
v 0.751726627 0.346183777 0.906682879
v -0.251140594 2.25058436 1.24803555
v -0.390429497 0.739860535 0.386368304
v -0.273427963 -0.273849964 -0.0494365692
v 56.0875869 -0.824997425 -1.21102977
v 0.751726627 -0.824997425 -1.21102977
v -0.407137871 -0.411636829 -1.21102977
v -0.825004578 0.754623413 -1.21102977
v -0.602145195 49.4472313 -1.83905292
v -0.395994186 49.4472313 13.5499921
v -0.384850502 48.7484586 13.4588542
v -0.368142128 42.7498448 11.9111678
v -0.345854759 36.74631 10.3684519
v -0.34029007 14.2527366 4.35666573
v 56.0875869 -0.411636829 0.156038076
v 0.751726627 -0.411636829 0.156038076
v -0.379285812 3.75146627 1.43528235
v -0.663428307 2.25058436 0.288602233
v -0.791573524 3.75146627 0.288602233
v -0.825004578 5.25235176 0.288602233
v -0.825004578 49.4472313 -1.21102977
v -0.618853569 49.4472313 12.9236266
v -0.797138214 48.7484586 12.2873185
v -0.691280365 47.2475749 12.2873185
v -0.752577782 14.2527366 3.28952406
v -0.708003044 8.25412273 1.78989184
v -0.774850845 20.2513504 4.78915651
v -0.797138214 26.2499642 6.2871318
v -0.808281898 9.75008368 1.78989184
v -0.825004578 21.7522323 4.78915651
v -0.819425583 15.7536185 3.28952406
v -0.825004578 49.4472313 11.485305
v -0.808281898 49.4472313 12.2873185
v -0.78042984 42.7498448 10.7876861
v -0.825004578 44.2458075 10.7876861
v -0.825004578 38.2471919 9.28805363
v -0.758142471 36.74631 9.28805363
f 1 2 6
f 1 6 13
f 1 13 24
f 1 24 37
f 1 37 52
f 1 52 64
f 1 64 75
f 1 75 76
f 1 76 65
f 1 65 53
f 1 53 38
f 1 38 25
f 1 25 14
f 1 14 7
f 1 7 3
f 1 3 4
f 1 4 8
f 1 8 16
f 1 16 28
f 1 28 43
f 1 43 58
f 1 58 48
f 1 48 33
f 1 33 20
f 1 20 11
f 1 11 5
f 1 5 2
f 2 5 12
f 2 12 6
f 3 7 4
f 4 7 9
f 4 9 10
f 4 10 8
f 5 11 12
f 6 12 23
f 6 23 13
f 7 14 15
f 7 15 9
f 8 10 17
f 8 17 16
f 9 15 18
f 9 18 19
f 9 19 10
f 10 19 17
f 11 20 21
f 11 21 12
f 12 21 22
f 12 22 23
f 13 23 24
f 14 25 15
f 15 25 26
f 15 26 27
f 15 27 18
f 16 17 29
f 16 29 31
f 16 31 28
f 17 19 29
f 18 27 30
f 18 30 19
f 19 31 29
f 19 30 32
f 19 32 31
f 20 33 34
f 20 34 21
f 21 34 22
f 22 34 35
f 22 35 36
f 22 36 23
f 23 36 24
f 24 36 37
f 25 38 39
f 25 39 26
f 26 39 40
f 26 40 41
f 26 41 42
f 26 42 30
f 26 30 27
f 28 31 44
f 28 44 43
f 30 42 32
f 31 32 44
f 32 42 45
f 32 45 46
f 32 46 47
f 32 47 44
f 33 48 49
f 33 49 34
f 34 49 35
f 35 49 50
f 35 50 51
f 35 51 36
f 36 51 52
f 36 52 37
f 38 53 54
f 38 54 39
f 39 54 55
f 39 55 56
f 39 56 57
f 39 57 45
f 39 45 40
f 40 45 41
f 41 45 42
f 43 44 59
f 43 59 58
f 44 47 59
f 45 57 60
f 45 60 61
f 45 61 46
f 46 61 51
f 46 51 47
f 47 49 59
f 47 51 50
f 47 50 49
f 48 58 59
f 48 59 49
f 51 61 62
f 51 62 63
f 51 63 73
f 51 73 79
f 51 79 78
f 51 78 75
f 51 75 64
f 51 64 52
f 53 65 54
f 54 65 66
f 54 66 67
f 54 67 55
f 55 67 56
f 56 67 68
f 56 68 57
f 57 68 60
f 60 68 69
f 60 69 61
f 61 69 62
f 62 69 68
f 62 68 70
f 62 70 77
f 62 77 71
f 62 71 72
f 62 72 63
f 63 72 74
f 63 74 73
f 65 76 66
f 66 71 77
f 66 77 67
f 66 76 78
f 66 78 79
f 66 79 71
f 67 77 80
f 67 80 68
f 68 80 70
f 70 80 77
f 71 79 72
f 72 79 74
f 73 74 79
f 75 78 76
