v 2.25045204 49.4472304 -2.82308835
v 0.751726627 49.4472304 -2.81544048
v 1.79916143 61.20442 -2.82117683
v 2.25045204 61.20442 -2.82308835
v 56.0875869 49.4472304 -2.82308835
v 0.211293697 49.4472304 -2.61468875
v 0.400722027 61.20442 -2.68543023
v 0.751726627 61.20442 -2.81544048
v 56.0875869 61.20442 -2.82308835
v 56.0875869 49.4472304 14.0954819
v -0.407137871 49.4472304 -2.38334733
v -0.407137871 61.20442 -2.38334733
v 56.0875869 61.20442 16.1316751
v 56.0875869 50.953854 14.5065443
v 55.4468679 49.4472304 14.0993058
v -0.602145195 49.4472304 -1.83845031
v -0.535283089 61.20442 -2.02773023
v 56.0875869 60.779711 16.4089037
v 51.7919827 61.20442 15.5753071
v 0.751726627 60.8245987 15.2866076
v 0.751726627 60.4113995 16.4605255
v 56.0875869 51.7077416 14.7092075
v 54.7448587 49.4472304 14.1031293
v -0.825004578 49.4472304 -1.2113409
v -0.825004578 61.20442 -1.2113409
v 56.0875869 60.6059137 16.4433182
v 0.751726627 59.2489167 16.7052512
v 51.7418361 61.20442 15.5657477
v 21.9400334 61.20442 7.65613905
v 5.37604809 61.20442 3.19563222
v 0.640296936 61.20442 1.79993135
v -0.0672769547 61.20442 1.22253221
v -0.473999977 61.20442 0.362168521
v -0.407137871 60.4113995 15.2866076
v -0.273427963 60.2744338 16.3190435
v 50.332253 61.20442 15.2139546
v 44.4097781 61.20442 13.6710357
v 39.506886 61.20442 12.3690191
v 56.0875869 51.7860076 14.7302387
v 56.0875869 53.0969658 15.0820319
v 2.25045204 49.4472304 14.1031293
v -0.825004578 49.4472304 11.4838007
v -0.825004578 59.2489167 13.7876631
v 56.0875869 59.2489167 16.7052512
v -0.351419449 59.2489167 16.3725777
v -0.178713799 57.7491988 16.1832969
v -0.0449895859 56.8894221 16.0666699
v 0.751726627 57.7491988 16.3266913
v 56.0875869 59.0923843 16.6670127
v -0.763721466 59.2489167 15.2866076
v 56.0875869 57.6536679 16.3018362
v 2.25045204 56.0837406 15.881214
v 0.751726627 53.2500449 15.1221819
v 0.751726627 51.7860076 14.7283272
v 0.751726627 51.0355729 14.5237516
v 0.751726627 49.4472304 14.0820986
v -0.808281898 49.4472304 12.2868067
v -0.825004578 50.2506101 12.2868067
v -0.825004578 56.249481 13.7876631
v -0.730290413 53.2500449 13.7876631
v -0.318002701 53.2500449 14.8296584
v -0.161991119 52.0242584 14.6652336
v 0.751726627 56.8341753 16.0819657
v 56.0875869 57.7491988 16.3266913
v -0.813860893 54.7509143 13.7876631
v 0.144431591 49.4472304 13.8469323
v -0.618853569 49.4472304 12.9234755
v -0.395994186 49.4472304 13.5505849
f 1 2 3
f 1 3 4
f 1 4 9
f 1 9 5
f 1 5 10
f 1 10 15
f 1 15 23
f 1 23 41
f 1 41 56
f 1 56 66
f 1 66 68
f 1 68 67
f 1 67 57
f 1 57 42
f 1 42 24
f 1 24 16
f 1 16 11
f 1 11 6
f 1 6 2
f 2 6 7
f 2 7 8
f 2 8 3
f 3 8 7
f 3 7 12
f 3 12 17
f 3 17 25
f 3 25 33
f 3 33 32
f 3 32 31
f 3 31 30
f 3 30 29
f 3 29 38
f 3 38 37
f 3 37 36
f 3 36 28
f 3 28 19
f 3 19 13
f 3 13 9
f 3 9 4
f 5 9 13
f 5 13 18
f 5 18 26
f 5 26 44
f 5 44 49
f 5 49 64
f 5 64 51
f 5 51 40
f 5 40 39
f 5 39 22
f 5 22 14
f 5 14 10
f 6 11 12
f 6 12 7
f 10 14 15
f 11 16 17
f 11 17 12
f 13 19 20
f 13 20 21
f 13 21 18
f 14 22 23
f 14 23 15
f 16 24 17
f 17 24 25
f 18 21 27
f 18 27 26
f 19 28 20
f 20 29 30
f 20 30 31
f 20 31 32
f 20 32 33
f 20 33 25
f 20 25 34
f 20 34 35
f 20 35 21
f 20 28 36
f 20 36 37
f 20 37 38
f 20 38 29
f 21 35 27
f 22 39 23
f 23 39 40
f 23 40 41
f 24 42 58
f 24 58 59
f 24 59 43
f 24 43 25
f 25 43 34
f 26 27 44
f 27 35 45
f 27 45 46
f 27 46 47
f 27 47 48
f 27 48 49
f 27 49 44
f 34 43 50
f 34 50 35
f 35 50 45
f 40 51 52
f 40 52 53
f 40 53 41
f 41 53 54
f 41 54 55
f 41 55 56
f 42 57 58
f 43 59 50
f 45 50 60
f 45 60 61
f 45 61 46
f 46 61 62
f 46 62 47
f 47 62 56
f 47 56 55
f 47 55 54
f 47 54 53
f 47 53 63
f 47 63 48
f 48 63 51
f 48 51 64
f 48 64 49
f 50 59 65
f 50 65 60
f 51 63 52
f 52 63 53
f 56 62 66
f 57 67 60
f 57 60 65
f 57 65 58
f 58 65 59
f 60 67 68
f 60 68 61
f 61 68 62
f 62 68 66
