v 61.1894166 60.7382831 16.77285
v 61.1894166 59.6903974 16.77285
v 68.4313846 60.7382831 16.705708
v 61.1894166 62.2386646 16.5349747
v 61.1894166 0.75873971 16.5944437
v 68.4313846 60.9288077 16.6596679
v 61.1894166 68.2401913 15.5758007
v 62.2500122 0.75873971 16.3277937
v 68.2144439 0.75873971 14.7298087
v 68.4313846 0.75873971 14.6703405
v 61.1894166 -0.30105114 16.3162835
v 62.2500122 -0.181975365 16.1819987
v 63.110683 -0.0390815735 16.0668979
v 68.4313846 62.2386646 16.3277937
v 61.1894166 69.7167572 15.2017228
v 68.4313846 0.258611441 14.6012799
v 66.7497432 -0.312960148 14.8295627
v 61.1894166 -0.717823505 15.2880488
v 67.9762352 -0.158157349 14.6645854
v 68.4313846 62.3577426 16.2970994
v 61.1894166 80.3742296 12.4335454
v 68.4313846 -0.420134068 13.9221839
v 66.7497432 -0.729732513 13.7878996
v 61.1894166 -0.824997425 13.7878996
v 63.7501574 -0.824997425 13.7878996
v 65.249598 -0.813088417 13.7878996
v 68.4313846 64.0724646 15.8386142
v 68.4313846 69.9310979 14.2694053
v 68.4313846 105.749731 4.67382488
v 68.4313846 116.43102 1.81164858
v 68.4313846 118.895935 1.14790019
v 61.1894166 102.84423 6.3811553
v 68.4313846 -0.824997425 12.2877508
v 61.1894166 -0.824997425 -1.20975035
v 68.4313846 118.991196 1.11912456
v 61.1894166 119.348431 1.86728072
v 61.1894166 114.692484 3.17943123
v 68.4313846 -0.824997425 -1.20975035
v 61.1894166 -0.40822506 -2.38378006
v 68.4313846 119.646124 0.906188011
v 68.4313846 119.741389 0.816025555
v 68.4313846 120.408225 0.156113625
v 61.1894166 120.467763 0.365213722
v 68.4313846 -0.40822506 -2.38378006
v 61.1894166 0.41341424 -2.6887973
v 68.4313846 120.824997 -1.20975035
v 61.1894166 120.563028 0.0467680097
v 68.4313846 0.615845919 -2.76361305
v 61.1894166 0.75873971 -2.81540829
v 61.1894166 120.824997 -1.20975035
v 68.4313846 120.408225 -2.38378006
v 68.4313846 0.75873971 -2.81540829
v 61.1894166 2.25912094 -2.82499987
v 61.1894166 120.408225 -2.38378006
v 68.4313846 119.24126 -2.81540829
v 68.4313846 2.25912094 -2.82499987
v 61.1894166 117.740879 -2.82499987
v 61.1894166 119.24126 -2.81540829
v 68.4313846 119.062643 -2.81732696
v 68.4313846 117.740879 -2.82499987
f 1 2 3
f 1 3 4
f 1 4 7
f 1 7 15
f 1 15 21
f 1 21 32
f 1 32 37
f 1 37 36
f 1 36 43
f 1 43 47
f 1 47 50
f 1 50 54
f 1 54 58
f 1 58 57
f 1 57 53
f 1 53 49
f 1 49 45
f 1 45 39
f 1 39 34
f 1 34 24
f 1 24 18
f 1 18 11
f 1 11 5
f 1 5 2
f 2 5 3
f 3 6 7
f 3 7 4
f 3 5 8
f 3 8 9
f 3 9 10
f 3 10 16
f 3 16 22
f 3 22 33
f 3 33 38
f 3 38 44
f 3 44 48
f 3 48 52
f 3 52 56
f 3 56 60
f 3 60 59
f 3 59 55
f 3 55 51
f 3 51 46
f 3 46 42
f 3 42 41
f 3 41 40
f 3 40 35
f 3 35 31
f 3 31 30
f 3 30 29
f 3 29 28
f 3 28 27
f 3 27 20
f 3 20 14
f 3 14 6
f 5 11 12
f 5 12 13
f 5 13 8
f 6 14 15
f 6 15 7
f 8 13 9
f 9 13 10
f 10 13 16
f 11 17 12
f 11 18 17
f 12 17 19
f 12 19 13
f 13 19 16
f 14 20 15
f 15 20 21
f 16 19 22
f 17 18 23
f 17 23 22
f 17 22 19
f 18 24 25
f 18 25 26
f 18 26 23
f 20 27 21
f 21 27 28
f 21 28 29
f 21 29 30
f 21 30 31
f 21 31 32
f 22 23 33
f 23 26 33
f 24 34 38
f 24 38 33
f 24 33 25
f 25 33 26
f 31 35 36
f 31 36 37
f 31 37 32
f 34 39 44
f 34 44 38
f 35 40 36
f 36 40 41
f 36 41 42
f 36 42 43
f 39 45 44
f 42 46 43
f 43 46 47
f 44 45 48
f 45 49 48
f 46 50 47
f 46 51 54
f 46 54 50
f 48 49 52
f 49 53 56
f 49 56 52
f 51 55 58
f 51 58 54
f 53 57 60
f 53 60 56
f 55 59 58
f 57 58 59
f 57 59 60
