v 2.25045204 61.2058215 -2.82499987
v 0.751726627 61.2058215 -2.81572121
v 2.25045204 63.7712087 -2.82499987
v 56.0875869 61.2058215 -2.82499987
v -0.407137871 61.2058215 -2.38336521
v 0.735011101 63.7712087 -2.81015474
v 0.751726627 63.7712087 -2.81572121
v 56.0875869 63.7712087 -2.82499987
v 56.0875869 61.2058215 16.1318718
v -0.535283089 61.2058215 -2.02708918
v -0.418281555 63.7712087 -2.36666489
v -0.407137871 63.7712087 -2.38336521
v 56.0875869 63.7712087 15.371073
v 51.7919827 61.2058215 15.57519
v 56.0875869 63.7674415 15.8757977
v -0.825004578 61.2058215 -1.21062207
v -0.825004578 63.7712087 -1.21062207
v 56.082015 63.7712087 15.8739425
v 51.7418361 61.2058215 15.5659114
v -0.473999977 61.2058215 0.362931609
v -0.407137871 63.7712087 0.156959414
v 53.2461333 63.7712087 15.1224215
v 44.4097781 61.2058215 13.6713379
v 50.332253 61.2058215 15.2133466
v -0.0672769547 61.2058215 1.22207713
v 0.345010757 63.7712087 0.90662387
v 51.780839 63.7712087 14.7308887
v 39.506886 61.2058215 12.3687026
v 0.640296936 61.2058215 1.79917049
v 1.11386776 63.7712087 1.15527537
v 45.9809303 63.7712087 13.1777467
v 21.9400334 61.2058215 7.65546319
v 5.37604809 61.2058215 3.19458616
f 1 2 7
f 1 7 3
f 1 3 8
f 1 8 4
f 1 4 9
f 1 9 14
f 1 14 19
f 1 19 24
f 1 24 23
f 1 23 28
f 1 28 32
f 1 32 33
f 1 33 29
f 1 29 25
f 1 25 20
f 1 20 16
f 1 16 10
f 1 10 5
f 1 5 2
f 2 5 6
f 2 6 7
f 3 7 6
f 3 6 12
f 3 12 11
f 3 11 17
f 3 17 21
f 3 21 26
f 3 26 30
f 3 30 31
f 3 31 27
f 3 27 22
f 3 22 18
f 3 18 13
f 3 13 8
f 4 8 13
f 4 13 15
f 4 15 9
f 5 10 11
f 5 11 12
f 5 12 6
f 9 15 14
f 10 16 11
f 11 16 17
f 13 18 15
f 14 15 19
f 15 18 19
f 16 20 17
f 17 20 21
f 18 22 23
f 18 23 24
f 18 24 19
f 20 25 21
f 21 25 26
f 22 27 28
f 22 28 23
f 25 29 26
f 26 29 30
f 27 31 28
f 28 31 30
f 28 30 32
f 29 33 30
f 30 33 32
