v 120.589407 62.9968876 14.9774195
v 120.589407 66.0932046 14.327366
v 120.589407 62.9968876 -2.8215121
v 120.690597 62.9968876 14.6480353
v 122.248564 119.245706 1.46222156
v 122.248564 120.247622 1.24786076
v 121.229518 120.100451 1.11192462
v 120.589407 119.885345 1.00910079
v 121.50304 62.9968876 -2.82325554
v 120.589407 117.745661 -2.8215121
v 120.723731 62.9968876 14.5399834
v 122.248564 111.745484 1.66612622
v 120.837752 62.9968876 13.7871065
v 122.248564 120.660839 0.289335817
v 120.589407 120.389135 0.362532407
v 122.248564 63.002547 -2.82325554
v 122.248564 62.9968876 1.72538024
v 122.248564 117.745661 -2.82325554
v 120.589407 119.245706 -2.81454194
v 122.248564 110.245442 1.69401047
v 122.248564 108.745397 1.697496
v 122.248564 120.824997 -1.2111907
v 120.589407 120.824997 -1.2111907
v 122.248564 119.245706 -2.81628358
v 120.589407 120.411773 -2.384076
v 122.248564 120.411773 -2.384076
f 1 2 8
f 1 8 15
f 1 15 23
f 1 23 25
f 1 25 19
f 1 19 10
f 1 10 3
f 1 3 9
f 1 9 17
f 1 17 13
f 1 13 11
f 1 11 4
f 1 4 5
f 1 5 2
f 2 5 6
f 2 6 7
f 2 7 8
f 3 10 9
f 4 11 5
f 5 12 20
f 5 20 21
f 5 21 17
f 5 17 16
f 5 16 18
f 5 18 24
f 5 24 26
f 5 26 22
f 5 22 14
f 5 14 6
f 5 11 13
f 5 13 12
f 6 14 15
f 6 15 7
f 7 15 8
f 9 16 17
f 9 10 18
f 9 18 16
f 10 19 24
f 10 24 18
f 12 13 20
f 13 17 21
f 13 21 20
f 14 22 23
f 14 23 15
f 19 25 24
f 22 26 25
f 22 25 23
f 24 25 26
