v 240.819283 56.2287927 -1.20918441
v 240.407138 56.2287927 0.155737668
v 240.819283 0.755485296 -1.20918441
v 240.407138 56.2287927 -2.38313186
v 240.407138 0.755485296 0.155737668
v 239.651527 56.2287927 0.906538934
v 240.269752 -0.272111893 -0.0483453572
v 240.407138 -0.411729813 -1.20918441
v 240.269752 -0.272111893 -2.24270749
v 240.407138 0.755485296 -2.38313186
v 239.262271 56.2287927 -2.81002152
v 239.651527 0.755485296 0.906538934
v 238.901639 56.2287927 1.14994091
v 238.764253 -0.0933980942 1.11249459
v 239.256549 -0.389385223 0.386033475
v 239.245098 -0.824997425 -1.20918441
v 239.245098 -0.411729813 -2.38313186
v 239.245098 0.755485296 -2.8118937
v 239.245098 2.25219727 -2.81376588
v 239.245098 56.2287927 -2.81376588
v 238.901639 0.755485296 1.14806873
v 237.745328 56.2287927 1.46074635
v 228.036876 -0.00962734223 4.04829574
v 222.169447 -0.0654745102 5.58547218
v 232.896824 -0.143659115 2.64779863
v 237.745328 -0.249767303 1.2491737
v 237.745328 -0.663042068 0.288672417
v 236.245551 -0.791487694 0.288672417
v 234.745781 -0.824997425 0.288672417
v 220.807056 -0.824997425 -1.21105838
v 235.283868 0.755485296 -2.81563807
v 237.745328 0.755485296 -2.81376588
v 182.345352 -0.411729813 -2.38313186
v 182.345352 0.677297115 -2.78755355
v 237.745328 2.25219727 -2.82499897
v 237.745328 56.2287927 -2.82499897
v 222.261035 0.755485296 5.60794004
v 194.017239 56.2287927 13.1777391
v 188.218503 0.755485296 14.7298945
v 183.118129 -0.0375509262 16.0667325
v 199.712934 -0.0822257996 11.5937543
v 187.978077 -0.165996552 14.6624906
v 231.746235 -0.300035477 2.80132917
v 236.245551 -0.378220081 1.43453401
v 192.752166 -0.277690887 13.2750997
v 225.747149 -0.752398968 3.28813267
v 219.748063 -0.774736404 4.7897352
v 213.743248 -0.797073841 6.28946538
v 230.246465 -0.808246136 1.78840277
v 224.247379 -0.819411278 3.28813267
v 218.242564 -0.824997425 4.7897352
v 182.345352 -0.824997425 -1.21105838
v 182.345352 0.755485296 -2.81563807
v 182.345352 2.25219727 -2.82499897
v 182.345352 56.2287927 -2.82499897
v 192.752166 56.2287927 13.5166295
v 182.345352 56.2287927 16.3026453
v 182.345352 0.755485296 16.3007731
v 182.345352 -0.165996552 16.1678375
v 225.747149 -0.339124203 4.35535659
v 186.753073 -0.322372913 14.8291273
v 192.752166 -0.690965652 12.288386
v 186.753073 -0.730061531 13.7881159
v 203.250568 -0.757985115 9.28705339
v 197.251482 -0.780322552 10.7867835
v 191.258111 -0.797073841 12.288386
v 185.253303 -0.813832283 13.7881159
v 201.750798 -0.824997425 9.28705339
v 182.345352 -0.824997425 13.7881159
v 182.345352 -0.579271317 15.289718
v 185.253303 -0.400557518 15.0069971
v 203.250568 -0.34471035 10.3673833
v 191.258111 -0.389385223 13.4585873
v 189.752619 -0.824997425 12.288386
v 183.753533 -0.824997425 13.7881159
f 1 2 5
f 1 5 3
f 1 3 10
f 1 10 4
f 1 4 11
f 1 11 20
f 1 20 36
f 1 36 55
f 1 55 57
f 1 57 56
f 1 56 38
f 1 38 22
f 1 22 13
f 1 13 6
f 1 6 2
f 2 6 12
f 2 12 5
f 3 5 7
f 3 7 8
f 3 8 9
f 3 9 10
f 4 10 11
f 5 12 7
f 6 13 12
f 7 12 14
f 7 14 15
f 7 15 16
f 7 16 8
f 8 16 9
f 9 16 17
f 9 17 18
f 9 18 10
f 10 18 19
f 10 19 11
f 11 19 20
f 12 13 21
f 12 21 14
f 13 22 21
f 14 21 23
f 14 23 24
f 14 24 25
f 14 25 26
f 14 26 15
f 15 26 27
f 15 27 16
f 16 27 28
f 16 28 29
f 16 29 51
f 16 51 68
f 16 68 74
f 16 74 75
f 16 75 69
f 16 69 52
f 16 52 30
f 16 30 17
f 17 31 32
f 17 32 18
f 17 30 52
f 17 52 33
f 17 33 34
f 17 34 31
f 18 32 35
f 18 35 19
f 19 35 36
f 19 36 20
f 21 22 37
f 21 37 23
f 22 38 39
f 22 39 37
f 23 37 39
f 23 39 40
f 23 40 41
f 23 41 24
f 24 41 25
f 25 41 42
f 25 42 26
f 26 43 44
f 26 44 27
f 26 42 45
f 26 45 43
f 27 44 46
f 27 46 28
f 28 46 47
f 28 47 48
f 28 48 49
f 28 49 29
f 29 49 50
f 29 50 51
f 31 35 32
f 31 34 53
f 31 53 54
f 31 54 35
f 33 52 69
f 33 69 70
f 33 70 59
f 33 59 58
f 33 58 57
f 33 57 55
f 33 55 54
f 33 54 53
f 33 53 34
f 35 54 55
f 35 55 36
f 38 56 39
f 39 56 57
f 39 57 58
f 39 58 40
f 40 58 59
f 40 59 42
f 40 42 41
f 42 59 45
f 43 60 44
f 43 45 61
f 43 61 60
f 44 60 46
f 45 59 61
f 46 60 62
f 46 62 63
f 46 63 64
f 46 64 47
f 47 64 65
f 47 65 48
f 48 65 66
f 48 66 67
f 48 67 49
f 49 67 68
f 49 68 50
f 50 68 51
f 59 70 71
f 59 71 61
f 60 61 72
f 60 72 62
f 61 71 70
f 61 70 63
f 61 63 73
f 61 73 72
f 62 72 73
f 62 73 63
f 63 67 66
f 63 66 65
f 63 65 64
f 63 70 67
f 67 74 68
f 67 70 75
f 67 75 74
f 69 75 70
