v 127.765063 -0.824997425 -1.2113409
v 127.765063 -0.411214828 0.155681342
v 127.765063 -0.411214828 -2.38334733
v 170.531284 -0.824997425 -1.2113409
v 170.531284 -0.411214828 0.155681342
v 170.531284 -0.269165039 0.297163397
v 127.765063 0.101391077 0.664251864
v 127.765063 -0.0344753265 -2.52291697
v 170.531284 0.53370595 -2.73513961
v 170.531284 -0.411214828 -2.38334733
v 170.531284 0.34842968 0.907065541
v 127.765063 0.34842968 0.907065541
v 127.765063 0.756039619 -2.81544048
v 170.531284 0.756039619 -2.81544048
v 170.531284 1.09571457 1.14796725
v 127.765063 1.09571457 1.14796725
v 127.765063 1.23776436 -2.81926441
v 170.531284 1.97269678 -2.82308835
v 170.531284 1.31187201 1.20723647
v 127.765063 2.25061655 1.45769802
v 127.765063 2.25061655 -2.82308835
v 170.531284 62.2682762 -2.82308835
v 127.765063 5.25211573 2.26261598
v 170.531284 7.14812279 2.7711865
v 127.765063 62.2682762 -2.82308835
v 170.531284 62.2682762 14.4988964
v 127.765063 31.7591947 9.36539446
v 170.531284 53.2452464 15.1221819
v 127.765063 62.2682762 3.08091727
v 170.246623 60.4154974 16.4605255
v 170.531284 60.4154974 16.4605255
v 165.683663 62.2682762 13.288652
v 127.765063 60.8231091 15.2866076
v 127.765063 60.4093212 16.4605255
v 127.765063 53.2452464 15.1221819
v 170.531284 56.2220424 15.9194524
v 132.750828 62.2682762 4.47088224
v 127.765063 60.0325906 16.5408264
v 170.531284 59.2482466 16.7052512
v 149.039333 62.2682762 8.86638378
v 132.771758 62.2682762 4.47661792
v 170.531284 57.0002103 16.127852
v 127.765063 56.5864223 16.0169606
v 127.765063 59.2482466 16.7052512
v 127.765063 58.7603492 16.5828879
v 170.531284 58.0254132 16.3974319
v 127.765063 57.4510521 16.2483029
v 170.531284 57.747497 16.3266913
v 127.765063 57.747497 16.3266913
f 1 2 7
f 1 7 12
f 1 12 16
f 1 16 20
f 1 20 23
f 1 23 27
f 1 27 35
f 1 35 43
f 1 43 47
f 1 47 49
f 1 49 45
f 1 45 44
f 1 44 38
f 1 38 34
f 1 34 33
f 1 33 29
f 1 29 25
f 1 25 21
f 1 21 17
f 1 17 13
f 1 13 8
f 1 8 3
f 1 3 10
f 1 10 4
f 1 4 5
f 1 5 2
f 2 5 6
f 2 6 7
f 3 8 9
f 3 9 10
f 4 10 9
f 4 9 14
f 4 14 18
f 4 18 22
f 4 22 26
f 4 26 31
f 4 31 39
f 4 39 46
f 4 46 48
f 4 48 42
f 4 42 36
f 4 36 28
f 4 28 24
f 4 24 19
f 4 19 15
f 4 15 11
f 4 11 6
f 4 6 5
f 6 11 7
f 7 11 12
f 8 13 9
f 9 13 14
f 11 15 16
f 11 16 12
f 13 17 14
f 14 17 18
f 15 19 16
f 16 19 20
f 17 21 18
f 18 21 25
f 18 25 22
f 19 23 20
f 19 24 23
f 22 25 29
f 22 29 37
f 22 37 41
f 22 41 40
f 22 40 32
f 22 32 26
f 23 24 27
f 24 28 27
f 26 30 31
f 26 32 33
f 26 33 34
f 26 34 30
f 27 28 35
f 28 36 35
f 29 33 37
f 30 34 38
f 30 38 31
f 31 38 39
f 32 40 33
f 33 40 41
f 33 41 37
f 35 36 42
f 35 42 43
f 38 44 39
f 39 44 45
f 39 45 46
f 42 47 43
f 42 48 47
f 45 49 46
f 46 49 48
f 47 48 49
