v 122.248564 63.00188 1.72668335
v 122.25329 63.00188 -2.82499987
v 127.76875 62.2797364 -2.82499987
v 127.76875 62.2797364 3.07997805
v 132.759603 62.2797364 4.47058183
v 149.041314 62.2797364 8.86624631
v 122.248564 108.743412 1.69785362
v 122.248564 63.0076128 -2.82330382
v 122.25329 117.741559 -2.82499987
v 170.531284 62.2797364 -2.82499987
v 165.67749 62.2797364 13.2890445
v 122.248564 110.245013 1.69446197
v 122.248564 117.741559 -2.82330382
v 127.76875 117.741559 -2.82499987
v 122.248564 119.243159 -2.81482446
v 148.431635 119.231694 -2.81652051
v 170.531284 62.2797364 14.499887
v 170.531284 117.735826 -2.82499987
v 170.531284 117.735826 14.3930484
v 122.248564 111.740885 1.66563225
v 170.531284 118.268838 14.3913524
v 167.241858 119.231694 13.5128976
v 170.531284 119.231694 -2.81652051
v 127.76875 119.621422 -2.67576444
v 127.76875 119.243159 -2.81482446
v 122.248564 120.406609 -2.38407689
v 131.97033 119.999692 4.05170482
v 122.248564 119.243159 1.46212947
v 170.531284 119.231694 14.3760897
v 166.15011 120.114312 13.1296336
v 154.419715 120.011151 10.0550429
v 127.76875 120.406609 -2.38407689
v 170.531284 120.177362 -2.46378231
v 122.248564 120.824997 -1.21054339
v 160.284913 120.068464 11.5914905
v 127.097631 120.142972 2.64753443
v 122.248564 120.246134 1.24845129
v 170.531284 120.39515 13.7113131
v 168.744786 120.372226 13.4569342
v 167.241858 120.263329 13.2754774
v 170.531284 120.39515 -2.38238084
v 127.76875 120.824997 -1.21054339
v 170.531284 120.824997 -1.20884734
v 122.248564 120.658793 0.288595527
v 123.751491 120.790608 0.288595527
v 125.254419 120.824997 0.288595527
v 150.742743 120.297718 8.81197897
v 128.255546 120.286252 2.80355316
v 123.751491 120.372226 1.4349958
v 170.531284 120.824997 12.2850963
v 170.242985 120.824997 12.2850963
v 168.744786 120.790608 12.2850963
v 162.742528 120.355031 11.9086161
v 167.241858 120.675988 12.2850963
v 156.744998 120.332108 10.3636892
v 134.257803 120.739031 3.28856875
v 162.742528 120.767684 10.7859578
v 158.247925 120.824997 9.28512332
v 129.753748 120.802073 1.7911261
v 156.744998 120.74476 9.28512332
v 141.758262 120.824997 4.7910991
v 134.257803 120.326371 4.35526338
v 164.240727 120.824997 10.7859578
f 1 2 3
f 1 3 4
f 1 4 5
f 1 5 6
f 1 6 7
f 1 7 12
f 1 12 20
f 1 20 28
f 1 28 37
f 1 37 44
f 1 44 34
f 1 34 26
f 1 26 15
f 1 15 13
f 1 13 8
f 1 8 2
f 2 8 13
f 2 13 9
f 2 9 14
f 2 14 18
f 2 18 10
f 2 10 3
f 3 10 17
f 3 17 11
f 3 11 6
f 3 6 5
f 3 5 4
f 6 11 7
f 7 11 12
f 9 13 15
f 9 15 16
f 9 16 23
f 9 23 14
f 10 18 23
f 10 23 33
f 10 33 41
f 10 41 43
f 10 43 50
f 10 50 38
f 10 38 29
f 10 29 21
f 10 21 19
f 10 19 17
f 11 17 19
f 11 19 12
f 12 19 21
f 12 21 22
f 12 22 20
f 14 23 18
f 15 24 25
f 15 25 23
f 15 23 16
f 15 26 24
f 20 22 27
f 20 27 28
f 21 29 22
f 22 29 30
f 22 30 31
f 22 31 27
f 23 25 24
f 23 24 32
f 23 32 33
f 24 26 32
f 26 34 42
f 26 42 32
f 27 31 35
f 27 35 36
f 27 36 28
f 28 36 37
f 29 38 39
f 29 39 40
f 29 40 30
f 30 35 31
f 30 40 37
f 30 37 36
f 30 36 35
f 32 41 33
f 32 42 43
f 32 43 41
f 34 44 45
f 34 45 46
f 34 46 61
f 34 61 58
f 34 58 63
f 34 63 51
f 34 51 50
f 34 50 43
f 34 43 42
f 37 40 47
f 37 47 48
f 37 48 49
f 37 49 44
f 38 50 51
f 38 51 52
f 38 52 39
f 39 53 40
f 39 52 54
f 39 54 53
f 40 53 55
f 40 55 47
f 44 54 56
f 44 56 45
f 44 49 54
f 45 57 52
f 45 52 58
f 45 58 59
f 45 59 46
f 45 56 60
f 45 60 57
f 46 59 61
f 47 62 48
f 47 55 62
f 48 62 49
f 49 62 55
f 49 55 54
f 51 63 52
f 52 57 54
f 52 63 58
f 53 54 55
f 54 57 60
f 54 60 56
f 58 61 59
