v 60.7499313 60.7382831 16.7996694
v 59.2501259 60.7382831 16.7996694
v 60.7499313 59.2617169 16.7996694
v 61.1885047 60.7382831 16.7727758
v 59.2501259 119.24126 16.7055417
v 59.0732861 60.5715739 16.788143
v 59.2501259 59.2617169 16.7996694
v 61.1885047 59.6903974 16.7727758
v 60.7499313 0.75873971 16.7055417
v 61.1885047 62.2386646 16.5345742
v 60.8248901 119.24126 15.2878619
v 60.4124057 119.24126 16.4615769
v 60.2749121 120.265331 16.3194252
v 59.2501259 120.348687 16.371292
v 59.0732861 120.324869 16.3501616
v 59.0732861 119.24126 16.6613586
v 59.0732861 59.2617169 16.788143
v 61.1885047 0.75873971 16.596045
v 59.5876479 0.75873971 16.4615769
v 59.7251415 -0.265331268 16.3194252
v 60.7499313 -0.348687172 16.371292
v 61.1885047 -0.30105114 16.3155825
v 61.1885047 68.2401913 15.5760081
v 61.1885047 69.7167572 15.2014179
v 61.1885047 80.3742296 12.4332955
v 61.1885047 102.84423 6.38222801
v 61.1885047 114.692484 3.17996499
v 61.1885047 119.348431 1.86601874
v 61.1885047 120.467763 0.365738094
v 61.1885047 120.563028 0.0468565226
v 61.1885047 120.824997 -1.21138203
v 60.4124057 120.408225 15.2878619
v 59.2501259 120.76546 15.2878619
v 59.0732861 120.741642 15.2878619
v 59.0732861 51.7598087 15.8737601
v 59.1751671 0.75873971 15.2878619
v 59.5876479 -0.40822506 15.2878619
v 60.7499313 -0.765459538 15.2878619
v 61.1885047 -0.717823505 15.2878619
v 59.0732861 120.824997 -1.21138203
v 59.2501259 120.824997 13.7875817
v 61.1885047 120.408225 -2.38317478
v 59.0732861 120.824997 13.7875817
v 59.0732861 44.2817152 14.7672791
v 59.0732861 21.7878985 8.75463054
v 59.0732861 5.27179241 4.29028754
v 59.0732861 0.723016262 2.91487065
v 59.0732861 -0.491580963 0.407999873
v 59.0732861 -0.503482819 0.35613355
v 59.0732861 -0.824997425 -1.21138203
v 60.7499313 -0.824997425 13.7875817
v 61.1885047 -0.824997425 13.7875817
v 59.0732861 120.408225 -2.38317478
v 61.1885047 119.24126 -2.81539488
v 59.0732861 119.384154 -2.76544857
v 59.0732861 -0.40822506 -2.38317478
v 61.1885047 -0.824997425 -1.21138203
v 59.0732861 119.24126 -2.81539488
v 61.1885047 117.740879 -2.82499897
v 59.0732861 0.75873971 -2.81539488
v 61.1885047 0.41341424 -2.68861043
v 61.1885047 -0.40822506 -2.38317478
v 59.0732861 117.740879 -2.82499897
v 61.1885047 2.25912094 -2.82499897
v 59.0732861 0.937356949 -2.81731534
v 61.1885047 0.75873971 -2.81539488
v 59.0732861 2.25912094 -2.82499897
f 1 2 7
f 1 7 3
f 1 3 8
f 1 8 4
f 1 4 5
f 1 5 2
f 2 6 17
f 2 17 7
f 2 5 6
f 3 7 9
f 3 9 8
f 4 8 18
f 4 18 22
f 4 22 39
f 4 39 52
f 4 52 57
f 4 57 62
f 4 62 61
f 4 61 66
f 4 66 64
f 4 64 59
f 4 59 54
f 4 54 42
f 4 42 31
f 4 31 30
f 4 30 29
f 4 29 28
f 4 28 27
f 4 27 26
f 4 26 25
f 4 25 24
f 4 24 23
f 4 23 10
f 4 10 11
f 4 11 12
f 4 12 5
f 5 12 13
f 5 13 14
f 5 14 15
f 5 15 16
f 5 16 6
f 6 16 15
f 6 15 34
f 6 34 43
f 6 43 40
f 6 40 53
f 6 53 55
f 6 55 58
f 6 58 63
f 6 63 67
f 6 67 65
f 6 65 60
f 6 60 56
f 6 56 50
f 6 50 49
f 6 49 48
f 6 48 47
f 6 47 46
f 6 46 45
f 6 45 44
f 6 44 35
f 6 35 17
f 7 17 9
f 8 9 18
f 9 19 20
f 9 20 21
f 9 21 22
f 9 22 18
f 9 17 19
f 10 23 11
f 11 23 24
f 11 24 25
f 11 25 26
f 11 26 27
f 11 27 28
f 11 28 29
f 11 29 30
f 11 30 31
f 11 31 32
f 11 32 13
f 11 13 12
f 13 32 33
f 13 33 14
f 14 33 34
f 14 34 15
f 17 35 36
f 17 36 19
f 19 36 20
f 20 37 38
f 20 38 21
f 20 36 37
f 21 38 39
f 21 39 22
f 31 40 43
f 31 43 41
f 31 41 33
f 31 33 32
f 31 42 53
f 31 53 40
f 33 41 43
f 33 43 34
f 35 44 36
f 36 45 46
f 36 46 47
f 36 47 48
f 36 48 49
f 36 49 50
f 36 50 37
f 36 44 45
f 37 50 51
f 37 51 38
f 38 51 52
f 38 52 39
f 42 54 55
f 42 55 53
f 50 56 62
f 50 62 57
f 50 57 52
f 50 52 51
f 54 58 55
f 54 59 63
f 54 63 58
f 56 60 61
f 56 61 62
f 59 64 67
f 59 67 63
f 60 65 66
f 60 66 61
f 64 66 65
f 64 65 67
