v 178.827814 60.3215104 16.7738603
v 170.531284 59.2617169 16.7067147
v 178.827814 59.2617169 16.7738603
v 178.827814 119.24126 16.5992815
v 170.531284 58.0352144 16.397845
v 178.827814 51.7598087 15.5882595
v 178.827814 57.7613354 16.5378911
v 177.74933 119.24126 16.3268621
v 176.889303 120.039082 16.0678716
v 173.250232 119.24126 15.1220773
v 171.785996 119.24126 14.7287957
v 171.035603 119.24126 14.5254396
v 170.531284 119.24126 14.3777196
v 178.827814 120.301051 16.3191883
v 177.74933 120.181975 16.1829786
v 170.531284 57.7613354 16.3268621
v 178.827814 39.6376777 12.4976408
v 178.827814 50.2832428 15.2141629
v 178.827814 51.6764545 15.5671568
v 172.023944 120.158157 14.6654866
v 170.531284 120.408225 13.7120181
v 173.250232 120.31296 14.8285551
v 178.827814 120.717824 15.2870635
v 170.531284 57.0111445 16.1273433
v 170.531284 56.2252302 15.9182329
v 170.531284 20.2517939 6.28187065
v 170.531284 14.2502689 4.67421156
v 170.531284 2.53299952 1.53371271
v 178.827814 17.1557701 6.44685712
v 173.250232 120.729733 13.7868374
v 170.531284 120.824997 12.2866118
v 178.827814 120.824997 13.7868374
v 176.24936 120.824997 13.7868374
v 174.74939 120.813088 13.7868374
v 170.531284 1.10406518 1.14810494
v 178.827814 0.651569366 1.93274987
v 170.531284 120.824997 -1.20966721
v 178.827814 120.824997 -1.20966721
v 170.531284 0.484861135 0.952423036
v 170.531284 0.353876352 0.906380236
v 170.531284 -0.40822506 0.156267405
v 178.827814 -0.467762947 0.367296457
v 178.827814 120.527301 -2.05378431
v 170.531284 120.408225 -2.38375682
v 170.531284 -0.824997425 -1.20966721
v 178.827814 -0.563027859 0.0661004782
v 178.827814 120.408225 -2.38375682
v 170.531284 120.193884 -2.46433216
v 170.531284 -0.40822506 -2.38375682
v 178.827814 -0.824997425 -1.20966721
v 178.827814 119.574677 -2.69454527
v 170.531284 119.24126 -2.81540829
v 178.827814 -0.40822506 -2.38375682
v 170.531284 0.532493591 -2.73483294
v 178.827814 119.24126 -2.81540829
v 170.531284 118.967382 -2.81732607
v 178.827814 0.75873971 -2.81540829
v 170.531284 0.75873971 -2.81540829
v 178.827814 117.740879 -2.82499987
v 170.531284 117.740879 -2.82499987
v 178.827814 2.25912094 -2.82499987
v 170.531284 2.25912094 -2.82499987
f 1 2 3
f 1 3 7
f 1 7 6
f 1 6 19
f 1 19 18
f 1 18 17
f 1 17 29
f 1 29 36
f 1 36 42
f 1 42 46
f 1 46 50
f 1 50 53
f 1 53 57
f 1 57 61
f 1 61 59
f 1 59 55
f 1 55 51
f 1 51 47
f 1 47 43
f 1 43 38
f 1 38 32
f 1 32 23
f 1 23 14
f 1 14 4
f 1 4 2
f 2 5 6
f 2 6 7
f 2 7 3
f 2 4 8
f 2 8 9
f 2 9 10
f 2 10 11
f 2 11 12
f 2 12 13
f 2 13 21
f 2 21 31
f 2 31 37
f 2 37 44
f 2 44 48
f 2 48 52
f 2 52 56
f 2 56 60
f 2 60 62
f 2 62 58
f 2 58 54
f 2 54 49
f 2 49 45
f 2 45 41
f 2 41 40
f 2 40 39
f 2 39 35
f 2 35 28
f 2 28 27
f 2 27 26
f 2 26 25
f 2 25 24
f 2 24 16
f 2 16 5
f 4 14 15
f 4 15 9
f 4 9 8
f 5 16 17
f 5 17 18
f 5 18 19
f 5 19 6
f 9 15 20
f 9 20 12
f 9 12 11
f 9 11 10
f 12 20 13
f 13 20 21
f 14 22 15
f 14 23 22
f 15 22 20
f 16 24 17
f 17 24 25
f 17 25 26
f 17 26 27
f 17 27 28
f 17 28 29
f 20 22 21
f 21 30 31
f 21 22 30
f 22 23 30
f 23 32 33
f 23 33 34
f 23 34 30
f 28 35 29
f 29 35 36
f 30 34 31
f 31 33 32
f 31 32 38
f 31 38 37
f 31 34 33
f 35 39 36
f 36 39 40
f 36 40 41
f 36 41 42
f 37 38 43
f 37 43 44
f 41 45 46
f 41 46 42
f 43 47 44
f 44 47 48
f 45 49 53
f 45 53 50
f 45 50 46
f 47 51 48
f 48 51 52
f 49 54 53
f 51 55 52
f 52 55 56
f 53 54 57
f 54 58 57
f 55 59 56
f 56 59 60
f 57 58 62
f 57 62 61
f 59 61 62
f 59 62 60
