v 119.25017 60.7382831 16.7071627
v 120.589244 60.7620986 16.4968578
v 120.045848 63.1079335 16.0666905
v 119.25017 62.2386646 16.326703
v 118.062465 61.0597934 16.6268645
v 118.062465 60.7382831 16.7071627
v 120.589244 59.2498092 16.680396
v 120.589244 61.1550558 16.3974417
v 120.589244 119.884279 1.00890186
v 118.062465 62.4291893 16.2769945
v 118.062465 62.2386646 16.326703
v 118.062465 59.5117806 16.4643566
v 119.95384 56.8920665 16.0666905
v 120.589244 57.5827184 16.2750829
v 120.589244 120.384407 0.362694234
v 118.062465 120.408225 0.15621376
v 118.062465 119.812835 0.750801384
v 118.062465 119.646124 0.905661851
v 118.062465 119.050734 1.09875944
v 118.062465 118.895935 1.14846748
v 118.062465 116.562005 1.77555677
v 118.062465 105.749731 4.67393239
v 118.062465 65.5609386 15.4396008
v 118.062465 -0.205793381 1.20773491
v 120.589244 2.09241271 1.42759871
v 120.589244 120.824997 -1.21076423
v 118.062465 120.824997 -1.21076423
v 118.062465 -0.59874773 0.309162259
v 120.589244 -0.40822506 0.181067556
v 118.770834 -0.0986194611 1.11214232
v 120.589244 1.0564363 1.15037945
v 120.589244 120.455854 -2.25846189
v 118.062465 120.408225 -2.38464463
v 118.062465 -0.824997425 -1.21076423
v 120.589244 -0.824997425 -1.21076423
v 120.589244 0.330058336 0.913309276
v 120.589244 120.408225 -2.38464463
v 118.062465 120.170066 -2.47450221
v 118.062465 -0.40822506 -2.38464463
v 120.589244 -0.40822506 -2.38464463
v 120.589244 119.372245 -2.76892829
v 118.062465 119.24126 -2.81481284
v 118.062465 0.508675575 -2.72495526
v 120.589244 0.75873971 -2.81481284
v 120.589244 119.24126 -2.81481284
v 118.062465 117.740879 -2.82437223
v 118.062465 0.75873971 -2.81481284
v 118.062465 1.93760991 -2.82245982
v 118.062465 2.25912094 -2.82437223
v 120.589244 2.25912094 -2.8205483
v 120.589244 117.907587 -2.8205483
f 1 2 3
f 1 3 4
f 1 4 5
f 1 5 6
f 1 6 7
f 1 7 2
f 2 8 3
f 2 7 14
f 2 14 25
f 2 25 31
f 2 31 36
f 2 36 29
f 2 29 35
f 2 35 40
f 2 40 44
f 2 44 50
f 2 50 51
f 2 51 45
f 2 45 41
f 2 41 37
f 2 37 32
f 2 32 26
f 2 26 15
f 2 15 9
f 2 9 8
f 3 8 9
f 3 9 4
f 4 10 11
f 4 11 5
f 4 9 10
f 5 11 10
f 5 10 23
f 5 23 22
f 5 22 21
f 5 21 20
f 5 20 19
f 5 19 18
f 5 18 17
f 5 17 16
f 5 16 27
f 5 27 33
f 5 33 38
f 5 38 42
f 5 42 46
f 5 46 49
f 5 49 48
f 5 48 47
f 5 47 43
f 5 43 39
f 5 39 34
f 5 34 28
f 5 28 24
f 5 24 12
f 5 12 6
f 6 12 7
f 7 13 14
f 7 12 13
f 9 15 16
f 9 16 17
f 9 17 18
f 9 18 19
f 9 19 20
f 9 20 21
f 9 21 22
f 9 22 23
f 9 23 10
f 12 24 13
f 13 24 14
f 14 24 25
f 15 26 27
f 15 27 16
f 24 28 29
f 24 29 30
f 24 30 31
f 24 31 25
f 26 32 27
f 27 32 33
f 28 34 35
f 28 35 29
f 29 36 30
f 30 36 31
f 32 37 33
f 33 37 38
f 34 39 40
f 34 40 35
f 37 41 38
f 38 41 42
f 39 43 40
f 40 43 44
f 41 45 42
f 42 45 46
f 43 47 44
f 44 47 48
f 44 48 49
f 44 49 50
f 45 51 46
f 46 51 50
f 46 50 49
