v 127.765063 59.2485362 16.7052512
v 120.750096 59.2485362 16.7052512
v 127.765063 58.7612522 16.5828879
v 127.765063 60.0356895 16.5408264
v 120.589244 60.7666183 16.4968516
v 120.589244 59.2422885 16.680396
v 120.589244 57.5742745 16.2750695
v 120.750096 57.7491975 16.3266913
v 127.765063 57.7491975 16.3266913
v 127.765063 60.4105246 16.4605255
v 120.589244 61.1601949 16.3974319
v 120.750096 56.830852 16.0819657
v 120.589244 1.06167197 1.15179119
v 127.765063 57.4493301 16.2483029
v 127.765063 60.8228427 15.2866076
v 120.589244 62.9968858 14.9787883
v 122.250444 54.7442704 15.5236853
v 120.750096 53.2449317 15.1221819
v 120.589244 0.330744982 0.912800997
v 127.765063 0.349484682 0.907065541
v 127.765063 1.09915495 1.14796725
v 127.765063 1.88006401 1.35827836
v 127.765063 4.766289 2.13260528
v 127.765063 12.7502704 4.27204271
v 127.765063 53.2449317 15.1221819
v 127.765063 62.9968858 3.01973563
v 120.589244 62.9968858 -2.82117683
v 120.589244 -0.406429768 0.180536032
v 127.765063 0.0995957851 0.664251864
v 127.765063 62.9968858 -2.82308835
v 121.503782 62.9968858 -2.82308835
v 120.589244 2.25489378 -2.82117683
v 127.765063 -0.406429768 0.155681342
v 120.589244 -0.824997425 -1.2113409
v 127.765063 -0.824997425 -1.2113409
v 127.765063 -0.543866158 -0.285972089
v 127.765063 2.25489378 -2.82308835
v 122.250444 2.25489378 -2.82308835
v 120.589244 0.911736488 -2.81544048
v 120.589244 -0.406429768 -2.38334733
v 127.765063 -0.406429768 -2.38334733
v 127.765063 1.23659492 -2.81926441
v 122.250444 0.755556822 -2.81544048
v 120.589244 0.755556822 -2.81352895
v 120.589244 -0.287733078 -2.42923278
v 127.765063 -0.0315999985 -2.52291697
v 127.765063 0.755556822 -2.81544048
f 1 2 3
f 1 3 9
f 1 9 14
f 1 14 25
f 1 25 24
f 1 24 23
f 1 23 22
f 1 22 21
f 1 21 20
f 1 20 29
f 1 29 33
f 1 33 36
f 1 36 35
f 1 35 41
f 1 41 46
f 1 46 47
f 1 47 42
f 1 42 37
f 1 37 30
f 1 30 26
f 1 26 15
f 1 15 10
f 1 10 4
f 1 4 5
f 1 5 2
f 2 5 6
f 2 6 7
f 2 7 8
f 2 8 3
f 3 8 9
f 4 10 5
f 5 10 11
f 5 11 16
f 5 16 27
f 5 27 32
f 5 32 39
f 5 39 44
f 5 44 45
f 5 45 40
f 5 40 34
f 5 34 28
f 5 28 19
f 5 19 13
f 5 13 7
f 5 7 6
f 7 12 8
f 7 13 12
f 8 12 14
f 8 14 9
f 10 15 16
f 10 16 11
f 12 17 14
f 12 13 18
f 12 18 17
f 13 19 20
f 13 20 21
f 13 21 22
f 13 22 23
f 13 23 24
f 13 24 25
f 13 25 14
f 13 14 18
f 14 17 18
f 15 26 16
f 16 26 30
f 16 30 31
f 16 31 27
f 19 28 29
f 19 29 20
f 27 31 32
f 28 33 29
f 28 34 35
f 28 35 36
f 28 36 33
f 30 37 38
f 30 38 31
f 31 38 32
f 32 38 39
f 34 40 41
f 34 41 35
f 37 42 38
f 38 42 43
f 38 43 39
f 39 43 44
f 40 45 41
f 41 45 46
f 42 47 43
f 43 47 45
f 43 45 44
f 45 47 46
