v 68.4313846 56.6910481 -2.82308835
v 118.062465 56.6910481 -2.82308835
v 68.4313846 56.6910481 6.19749059
v 68.4313846 117.748876 -2.82308835
v 118.062465 59.0640557 15.2849732
v 118.057607 56.6910481 1.82961133
v 118.062465 117.748876 -2.82308835
v 100.247551 56.6910481 6.19749059
v 68.4313846 56.6973281 14.7019522
v 68.4313846 119.249271 -2.81353074
v 100.976275 118.01882 -2.82308835
v 118.062465 59.509778 16.4624844
v 118.062465 119.249271 -2.81353074
v 68.4313846 59.5788342 16.4586614
v 68.4313846 120.410664 -2.38152164
v 118.062465 60.7527816 16.7052512
v 100.976275 60.7527816 16.7052512
v 68.4313846 60.7590598 16.7052512
v 118.062465 120.410664 -2.38152164
v 68.4313846 120.824997 -1.20783257
v 100.976275 120.485995 -2.17125165
v 118.062465 62.2594517 16.3248531
v 100.971419 60.7590598 16.7052512
v 100.976275 62.2594517 16.3248531
v 68.4313846 62.2531754 16.3248531
v 118.062465 120.824997 -1.2097441
v 100.971419 120.824997 -1.20783257
v 100.976275 120.824997 -1.2097441
v 68.4313846 120.410664 0.15892145
v 118.062465 66.7606312 15.1205806
v 68.4313846 68.2233578 14.7268019
v 118.062465 120.410664 0.157009929
v 100.971419 120.410664 0.15892145
v 68.4313846 119.745215 0.816492707
v 118.062465 72.7622026 13.5129714
v 68.4313846 77.4391598 12.2589984
v 118.062465 119.651048 0.908247054
v 68.4313846 119.651048 0.908247054
v 68.4313846 100.064331 6.19749059
v 118.062465 116.562374 1.77799982
v 118.062465 119.060937 1.09940138
v 68.4313846 118.903992 1.14910138
v 68.4313846 117.748876 1.4587718
v 118.062465 118.903992 1.14910138
f 1 2 6
f 1 6 8
f 1 8 3
f 1 3 9
f 1 9 14
f 1 14 18
f 1 18 25
f 1 25 31
f 1 31 36
f 1 36 39
f 1 39 43
f 1 43 42
f 1 42 38
f 1 38 34
f 1 34 29
f 1 29 20
f 1 20 15
f 1 15 10
f 1 10 4
f 1 4 11
f 1 11 7
f 1 7 2
f 2 5 6
f 2 7 13
f 2 13 19
f 2 19 26
f 2 26 32
f 2 32 37
f 2 37 41
f 2 41 44
f 2 44 40
f 2 40 35
f 2 35 30
f 2 30 22
f 2 22 16
f 2 16 12
f 2 12 5
f 3 8 9
f 4 10 11
f 5 12 9
f 5 9 6
f 6 9 8
f 7 11 13
f 9 12 14
f 10 15 19
f 10 19 13
f 10 13 11
f 12 16 17
f 12 17 18
f 12 18 14
f 15 20 21
f 15 21 19
f 16 22 23
f 16 23 18
f 16 18 17
f 18 23 22
f 18 22 24
f 18 24 25
f 19 21 26
f 20 27 26
f 20 26 28
f 20 28 21
f 20 29 33
f 20 33 27
f 21 28 26
f 22 30 24
f 24 30 31
f 24 31 25
f 26 27 33
f 26 33 32
f 29 34 33
f 30 35 36
f 30 36 31
f 32 33 37
f 33 34 37
f 34 38 37
f 35 39 36
f 35 40 39
f 37 38 41
f 38 42 41
f 39 40 43
f 40 44 42
f 40 42 43
f 41 42 44
