v 180.749788 60.7382831 16.7996694
v 179.25029 60.7382831 16.7996694
v 180.749788 59.2617169 16.7996694
v 182.345002 60.7382831 16.7074622
v 179.25029 119.24126 16.7055417
v 178.827817 60.3215104 16.7727758
v 179.25029 59.2617169 16.7996694
v 180.749788 0.75873971 16.7055417
v 182.249973 0.75873971 16.3271089
v 182.345002 0.75873971 16.3021357
v 182.345002 68.371177 14.8767741
v 180.824847 119.24126 15.2878619
v 180.412703 119.24126 16.4615769
v 180.275316 120.265331 16.3194252
v 179.25029 120.348687 16.371292
v 178.827817 120.301051 16.3194252
v 178.827817 119.24126 16.5998877
v 178.827817 59.2617169 16.7727758
v 179.587719 0.75873971 16.4615769
v 179.725102 -0.265331268 16.3194252
v 180.749788 -0.348687172 16.371292
v 182.249973 -0.181975365 16.1830367
v 182.345002 -0.158157349 16.1695899
v 182.345002 107.297745 4.44588651
v 182.345002 113.346902 2.82074255
v 182.345002 117.812326 1.58555669
v 182.345002 119.015011 1.2513074
v 182.345002 119.062643 1.23593923
v 182.345002 119.765203 0.94203037
v 182.345002 119.812835 0.894005865
v 182.345002 120.408225 0.190929592
v 180.412703 120.408225 15.2878619
v 179.25029 120.76546 15.2878619
v 178.827817 120.717824 15.2878619
v 178.827817 57.7613354 16.5364946
v 179.175231 0.75873971 15.2878619
v 179.587719 -0.40822506 15.2878619
v 180.749788 -0.765459538 15.2878619
v 182.345002 -0.574929714 15.2917047
v 182.345002 120.824997 -1.21138203
v 179.25029 120.824997 13.7875817
v 178.827817 120.824997 13.7875817
v 178.827817 51.7598087 15.5875344
v 178.827817 17.1557701 6.44754114
v 178.827817 0.651569366 1.93325278
v 178.827817 -0.467762947 0.36765945
v 178.827817 -0.563027859 0.0660665035
v 178.827817 -0.824997425 -1.21138203
v 178.827817 51.6764545 15.566404
v 178.827817 50.2832428 15.2129443
v 178.827817 39.6376777 12.4966873
v 180.749788 -0.824997425 13.7875817
v 182.345002 -0.824997425 13.7875817
v 178.827817 120.527301 -2.05276775
v 178.827817 120.824997 -1.21138203
v 182.345002 120.408225 -2.38317478
v 182.345002 -0.824997425 -1.21138203
v 178.827817 -0.40822506 -2.38317478
v 178.827817 120.408225 -2.38317478
v 182.345002 120.336778 -2.41198885
v 182.345002 -0.40822506 -2.38317478
v 178.827817 0.75873971 -2.81539488
v 178.827817 119.574677 -2.69437361
v 182.345002 119.24126 -2.81539488
v 182.345002 0.75873971 -2.81539488
v 178.827817 2.25912094 -2.82499897
v 178.827817 119.24126 -2.81539488
v 182.345002 117.740879 -2.82499897
v 182.345002 2.25912094 -2.82499897
v 178.827817 117.740879 -2.82499897
f 1 2 7
f 1 7 3
f 1 3 4
f 1 4 5
f 1 5 2
f 2 6 18
f 2 18 7
f 2 5 6
f 3 7 8
f 3 8 4
f 4 8 9
f 4 9 10
f 4 10 23
f 4 23 39
f 4 39 53
f 4 53 57
f 4 57 61
f 4 61 65
f 4 65 69
f 4 69 68
f 4 68 64
f 4 64 60
f 4 60 56
f 4 56 40
f 4 40 31
f 4 31 30
f 4 30 29
f 4 29 28
f 4 28 27
f 4 27 26
f 4 26 25
f 4 25 24
f 4 24 11
f 4 11 12
f 4 12 13
f 4 13 5
f 5 13 14
f 5 14 15
f 5 15 16
f 5 16 17
f 5 17 6
f 6 17 16
f 6 16 34
f 6 34 42
f 6 42 55
f 6 55 54
f 6 54 59
f 6 59 63
f 6 63 67
f 6 67 70
f 6 70 66
f 6 66 62
f 6 62 58
f 6 58 48
f 6 48 47
f 6 47 46
f 6 46 45
f 6 45 44
f 6 44 51
f 6 51 50
f 6 50 49
f 6 49 43
f 6 43 35
f 6 35 18
f 7 18 8
f 8 19 20
f 8 20 21
f 8 21 22
f 8 22 23
f 8 23 9
f 8 18 19
f 9 23 10
f 11 24 12
f 12 24 25
f 12 25 26
f 12 26 27
f 12 27 28
f 12 28 29
f 12 29 30
f 12 30 31
f 12 31 32
f 12 32 14
f 12 14 13
f 14 32 33
f 14 33 15
f 15 33 34
f 15 34 16
f 18 35 36
f 18 36 19
f 19 36 20
f 20 37 38
f 20 38 21
f 20 36 37
f 21 38 39
f 21 39 22
f 22 39 23
f 31 40 32
f 32 40 33
f 33 40 41
f 33 41 42
f 33 42 34
f 35 43 36
f 36 44 45
f 36 45 46
f 36 46 47
f 36 47 48
f 36 48 37
f 36 43 49
f 36 49 50
f 36 50 51
f 36 51 44
f 37 48 52
f 37 52 38
f 38 52 53
f 38 53 39
f 40 54 55
f 40 55 42
f 40 42 41
f 40 56 54
f 48 57 53
f 48 53 52
f 48 58 61
f 48 61 57
f 54 56 59
f 56 60 59
f 58 62 65
f 58 65 61
f 59 60 63
f 60 64 63
f 62 66 69
f 62 69 65
f 63 64 67
f 64 68 70
f 64 70 67
f 66 70 68
f 66 68 69
