v -120.824997 120.757406 1.12884605
v -120.813088 120.6371 1.12884605
v -120.824997 120.757406 28.2495501
v -120.824997 239.248967 1.12884605
v -120.432036 119.157307 1.12884605
v -120.384407 119.000909 1.12884605
v -120.408225 119.590416 28.2495501
v -120.31296 119.686664 29.7494736
v -120.634475 120.757406 29.7494736
v -120.824997 239.248967 28.2495501
v -120.443945 240.307674 1.12884605
v -119.741389 118.279059 1.12884605
v -119.24126 118.026409 1.12884605
v -119.24126 119.181368 28.2495501
v -120.146248 119.855096 30.6069865
v -119.24126 119.373862 29.7494736
v -120.217695 120.757406 30.6622186
v -120.634475 239.248967 29.7494736
v -120.31296 240.307674 29.7494736
v -120.408225 240.403919 28.2495501
v -120.408225 240.403919 1.12884605
v -118.895935 118.002348 1.12884605
v -117.740879 117.930164 1.12884605
v -0.75873971 119.181368 28.2495501
v -119.24126 120.757406 30.825
v -119.24126 119.782909 30.6622186
v -0.75873971 119.373862 29.7494736
v -120.217695 239.248967 30.6622186
v -120.146248 240.139246 30.6069865
v -119.24126 240.632515 29.7494736
v -119.24126 240.812974 28.2495501
v -120.31296 240.440025 1.12884605
v -2.25912094 117.930164 1.12884605
v -1.99715137 117.942195 1.12884605
v -0.75873971 118.026409 1.12884605
v 0.40822506 119.590416 28.2495501
v 0.312960148 119.686664 29.7494736
v -0.75873971 120.757406 30.825
v -119.24126 239.248967 30.825
v -0.75873971 119.782909 30.6622186
v 0.146248341 119.855096 30.6069865
v -119.24126 240.223475 30.6622186
v -0.75873971 240.632515 29.7494736
v -0.75873971 240.812974 28.2495501
v -119.24126 240.812974 1.12884605
v 0.384407043 119.000909 1.12884605
v 0.824997425 120.757406 28.2495501
v 0.634474754 120.757406 29.7494736
v 0.217695236 120.757406 30.6622186
v -0.75873971 239.248967 30.825
v -0.75873971 240.223475 30.6622186
v 0.146248341 240.139246 30.6069865
v 0.312960148 240.307674 29.7494736
v -0.75873971 240.812974 1.12884605
v 0.40822506 240.403919 28.2495501
v -0.663478374 240.788913 1.12884605
v 0.824997425 120.757406 1.12884605
v 0.824997425 239.248967 28.2495501
v 0.634474754 239.248967 29.7494736
v 0.217695236 239.248967 30.6622186
v 0.40822506 240.403919 1.12884605
v 0.824997425 239.248967 1.12884605
f 1 2 3
f 1 3 10
f 1 10 4
f 1 4 11
f 1 11 21
f 1 21 32
f 1 32 45
f 1 45 54
f 1 54 56
f 1 56 61
f 1 61 62
f 1 62 57
f 1 57 46
f 1 46 35
f 1 35 34
f 1 34 33
f 1 33 23
f 1 23 22
f 1 22 13
f 1 13 12
f 1 12 6
f 1 6 5
f 1 5 2
f 2 5 3
f 3 5 6
f 3 6 7
f 3 7 8
f 3 8 9
f 3 9 18
f 3 18 10
f 4 10 11
f 6 12 7
f 7 12 13
f 7 13 14
f 7 14 8
f 8 15 9
f 8 14 16
f 8 16 15
f 9 15 17
f 9 17 28
f 9 28 18
f 10 18 19
f 10 19 20
f 10 20 11
f 11 20 21
f 13 22 14
f 14 22 23
f 14 23 33
f 14 33 24
f 14 24 27
f 14 27 16
f 15 25 17
f 15 16 26
f 15 26 25
f 16 27 40
f 16 40 26
f 17 25 39
f 17 39 28
f 18 28 29
f 18 29 19
f 19 29 30
f 19 30 31
f 19 31 20
f 20 32 21
f 20 31 32
f 24 33 34
f 24 34 35
f 24 35 36
f 24 36 37
f 24 37 27
f 25 26 40
f 25 40 38
f 25 38 50
f 25 50 39
f 27 37 41
f 27 41 40
f 28 39 29
f 29 42 30
f 29 39 42
f 30 42 51
f 30 51 43
f 30 43 44
f 30 44 31
f 31 44 54
f 31 54 45
f 31 45 32
f 35 46 36
f 36 47 37
f 36 46 47
f 37 47 48
f 37 48 41
f 38 40 41
f 38 41 49
f 38 49 60
f 38 60 50
f 39 50 51
f 39 51 42
f 41 48 49
f 43 51 52
f 43 52 53
f 43 53 44
f 44 53 55
f 44 55 56
f 44 56 54
f 46 57 47
f 47 57 62
f 47 62 58
f 47 58 59
f 47 59 48
f 48 59 60
f 48 60 49
f 50 60 52
f 50 52 51
f 52 60 59
f 52 59 53
f 53 59 58
f 53 58 55
f 55 58 62
f 55 62 61
f 55 61 56
