v 0.63795805 49.5485544 -0.250315428
v 0.63795805 49.5485544 -1.74968457
v 0.225090981 49.5485544 0.662095189
v 0.63795805 42.3172975 -0.250315428
v 0.63795805 42.3172975 -1.74968457
v 0.225090981 49.5485544 -2.66209519
v -0.67476511 39.8659372 0.81106776
v 0.225090981 42.3172975 0.662095189
v -0.759458542 49.5485544 0.82464242
v 0.63795805 0.757191181 -0.250673056
v 0.63795805 0.757191181 -1.74932694
v 0.225090981 42.3172975 -2.66209519
v -0.473620892 42.3172975 -2.77784324
v -0.759458542 49.5485544 -2.82428479
v -0.0501644611 9.33448792 0.707465649
v -0.759458542 42.3172975 0.82464242
v -0.759458542 0.757191181 0.824285686
v 0.225090981 0.757191181 0.661737561
v -107.513573 49.5485544 0.82464242
v 0.30977726 -0.313739777 -0.250673056
v 0.129804611 -0.141806602 0.60743624
v 0.30977726 -0.313739777 -1.74932694
v 0.129804611 -0.141806602 -2.60743535
v 0.225090981 0.757191181 -2.66173756
v -0.759458542 0.757191181 -2.82357132
v -0.759458542 42.3172975 -2.82428479
v -107.513573 49.5485544 -2.82428479
v -107.513573 42.3172975 0.82464242
v -107.513573 0.757191181 0.824285686
v -0.759458542 -0.220398903 0.661737561
v -0.759458542 -0.633058548 -0.250673056
v -0.759458542 -0.633058548 -1.74932694
v -0.759458542 -0.220398903 -2.66173756
v -107.513573 -0.0533723831 -2.69031739
v -107.513573 0.757191181 -2.82357132
v -107.513573 42.3172975 -2.82428479
v -107.513573 -0.220398903 0.661737561
v -107.513573 -0.633058548 -0.250673056
v -107.513573 -0.633058548 -1.74932694
v -107.513573 -0.220398903 -2.66173756
f 1 2 6
f 1 6 14
f 1 14 27
f 1 27 19
f 1 19 9
f 1 9 3
f 1 3 8
f 1 8 4
f 1 4 10
f 1 10 11
f 1 11 5
f 1 5 2
f 2 5 12
f 2 12 6
f 3 7 8
f 3 9 7
f 4 8 18
f 4 18 10
f 5 11 24
f 5 24 12
f 6 12 13
f 6 13 14
f 7 15 8
f 7 9 16
f 7 16 17
f 7 17 15
f 8 15 18
f 9 19 28
f 9 28 16
f 10 20 22
f 10 22 11
f 10 18 21
f 10 21 20
f 11 22 23
f 11 23 24
f 12 24 13
f 13 24 25
f 13 25 26
f 13 26 14
f 14 26 36
f 14 36 27
f 15 17 18
f 16 28 29
f 16 29 17
f 17 29 37
f 17 37 30
f 17 30 21
f 17 21 18
f 19 27 36
f 19 36 35
f 19 35 34
f 19 34 40
f 19 40 39
f 19 39 38
f 19 38 37
f 19 37 29
f 19 29 28
f 20 21 31
f 20 31 32
f 20 32 22
f 21 30 31
f 22 32 23
f 23 32 33
f 23 33 25
f 23 25 24
f 25 33 34
f 25 34 35
f 25 35 36
f 25 36 26
f 30 37 38
f 30 38 31
f 31 38 39
f 31 39 32
f 32 39 40
f 32 40 33
f 33 40 34
