v -62.8875214 73.0711985 0.825000048
v -62.8875214 49.5492625 0.825000048
v -62.8875214 73.0711985 -2.82464242
v -119.247336 73.0711985 0.825000048
v -62.8875214 49.5492625 -2.82464242
v -119.247336 49.5492625 0.825000048
v -119.247336 73.0711985 -2.82464242
v -120.225291 73.0711985 0.662436724
v -119.705222 49.5492625 0.748899519
v -119.247336 49.5492625 -2.82464242
v -119.456495 73.0711985 -2.78998649
v -120.547514 73.0711985 -0.0546295047
v -120.417495 49.5492625 0.236198843
v -120.225291 49.5492625 0.662436724
v -120.225291 49.5492625 -2.66243672
v -120.225291 73.0711985 -2.66243672
v -120.632308 73.0711985 -0.2500633
v -120.632308 49.5492625 -0.2500633
v -120.632308 49.5492625 -1.7499367
v -120.632308 73.0711985 -1.7499367
f 1 2 5
f 1 5 3
f 1 3 7
f 1 7 11
f 1 11 16
f 1 16 20
f 1 20 17
f 1 17 12
f 1 12 8
f 1 8 4
f 1 4 6
f 1 6 2
f 2 6 9
f 2 9 14
f 2 14 13
f 2 13 18
f 2 18 19
f 2 19 15
f 2 15 10
f 2 10 5
f 3 5 10
f 3 10 7
f 4 8 9
f 4 9 6
f 7 10 11
f 8 12 13
f 8 13 14
f 8 14 9
f 10 15 11
f 11 15 16
f 12 17 18
f 12 18 13
f 15 19 20
f 15 20 16
f 17 20 19
f 17 19 18
