v -120.824997 120.758997 -0.250123203
v -120.634475 114.697051 -1.7498455
v -120.824997 120.758997 1.12884605
v -120.824997 239.244697 -0.250123203
v -120.622566 114.697051 -1.78196764
v -120.634475 114.697051 -0.250123203
v -120.634475 239.244697 -1.7498455
v -120.813088 120.635533 1.12884605
v -120.824997 239.244697 1.12884605
v -120.443945 240.306473 1.12884605
v -120.408225 240.405235 -0.250123203
v -120.31296 240.318804 -1.7498455
v -120.217695 114.697051 -2.66244924
v -120.217695 239.244697 -2.66244924
v -120.217695 114.697051 0.662481427
v -120.146248 240.145969 -2.60826683
v -120.432036 119.153999 1.12884605
v -120.408225 240.405235 1.12884605
v -120.31296 240.442271 1.12884605
v -119.24126 240.825005 -0.250123203
v -119.24126 240.627465 -1.7498455
v -119.24126 114.697051 -2.82500005
v -119.24126 239.244697 -2.82500005
v -119.276984 114.697051 0.819226146
v -120.384407 119.005848 1.12884605
v -119.24126 240.220041 -2.66244924
v -119.24126 240.825005 1.12884605
v -0.75873971 240.825005 -0.250123203
v -0.75873971 240.627465 -1.7498455
v -0.75873971 114.697051 -2.82500005
v -0.75873971 239.244697 -2.82500005
v -119.24126 114.697051 0.824644208
v -119.741389 118.277425 1.12884605
v -0.75873971 240.220041 -2.66244924
v -0.75873971 240.825005 1.12884605
v 0.40822506 240.405235 -0.250123203
v 0.312960148 240.318804 -1.7498455
v 0.146248341 240.145969 -2.60826683
v -0.723016262 114.697051 -2.81919396
v 0.217695236 239.244697 -2.66244924
v -0.75873971 114.697051 0.824644208
v -117.740879 117.919389 1.12884605
v -119.24126 118.018159 1.12884605
v 0.40822506 240.405235 1.12884605
v 0.824997425 239.244697 -0.250123203
v 0.634474754 239.244697 -1.7498455
v 0.217695236 114.697051 -2.66244924
v 0.217695236 114.697051 0.662481427
v 0.384407043 119.005848 1.12884605
v -0.75873971 118.018159 1.12884605
v -2.25912094 117.919389 1.12884605
v 0.824997425 239.244697 1.12884605
v 0.824997425 120.758997 -0.250123203
v 0.634474754 114.697051 -1.7498455
v 0.622565746 114.697051 -0.218000174
v 0.824997425 120.758997 1.12884605
v 0.634474754 114.697051 -0.250123203
f 1 2 6
f 1 6 3
f 1 3 9
f 1 9 4
f 1 4 7
f 1 7 2
f 2 5 13
f 2 13 22
f 2 22 30
f 2 30 39
f 2 39 47
f 2 47 54
f 2 54 57
f 2 57 55
f 2 55 48
f 2 48 41
f 2 41 32
f 2 32 24
f 2 24 15
f 2 15 6
f 2 7 5
f 3 6 8
f 3 8 17
f 3 17 25
f 3 25 33
f 3 33 43
f 3 43 42
f 3 42 51
f 3 51 50
f 3 50 49
f 3 49 56
f 3 56 52
f 3 52 44
f 3 44 35
f 3 35 27
f 3 27 19
f 3 19 18
f 3 18 10
f 3 10 9
f 4 9 10
f 4 10 11
f 4 11 12
f 4 12 7
f 5 7 14
f 5 14 13
f 6 15 8
f 7 12 16
f 7 16 14
f 8 15 17
f 10 18 11
f 11 18 19
f 11 19 20
f 11 20 12
f 12 20 21
f 12 21 16
f 13 14 23
f 13 23 22
f 14 16 23
f 15 24 25
f 15 25 17
f 16 21 26
f 16 26 23
f 19 27 20
f 20 27 35
f 20 35 28
f 20 28 29
f 20 29 21
f 21 29 34
f 21 34 26
f 22 23 31
f 22 31 30
f 23 26 34
f 23 34 31
f 24 32 25
f 25 32 33
f 28 36 37
f 28 37 29
f 28 35 44
f 28 44 36
f 29 37 38
f 29 38 34
f 30 31 39
f 31 34 38
f 31 38 40
f 31 40 39
f 32 41 51
f 32 51 42
f 32 42 43
f 32 43 33
f 36 44 52
f 36 52 45
f 36 45 37
f 37 45 46
f 37 46 38
f 38 46 40
f 39 40 47
f 40 46 54
f 40 54 47
f 41 48 49
f 41 49 50
f 41 50 51
f 45 53 54
f 45 54 46
f 45 52 56
f 45 56 53
f 48 55 56
f 48 56 49
f 53 56 57
f 53 57 54
f 55 57 56
