v -120.636678 0.752305984 -1.7499367
v -120.22429 0.752305984 -2.66243672
v -120.149775 -0.146698952 -2.60812914
v -120.318074 -0.318646431 -1.7499367
v -120.636678 0.752305984 -0.2500633
v -120.636678 49.5443487 -1.7499367
v -119.24921 0.752305984 -2.82464242
v -120.22429 49.5443487 -2.66243672
v -119.769509 49.5443487 -2.73818052
v -119.24921 -0.225305557 -2.66243672
v -119.24921 -0.637965202 -1.7499367
v -120.318074 -0.318646431 -0.2500633
v -120.149775 -0.146698952 0.608130038
v -120.22429 0.752305984 0.662436724
v -120.416994 49.5443487 0.236198843
v -120.636678 49.5443487 -0.2500633
v -107.51357 0.752305984 -2.82464242
v -107.51357 -0.053358078 -2.69102013
v -119.24921 49.5443487 -2.82464242
v -107.51357 -0.225305557 -2.66243672
v -119.24921 -0.637965202 -0.2500633
v -107.51357 -0.637965202 -1.7499367
v -119.24921 0.752305984 0.825000048
v -119.24921 -0.225305557 0.662436724
v -120.22429 49.5443487 0.662436724
v -107.51357 49.5443487 -2.82464242
v -107.51357 -0.637965202 -0.2500633
v -107.51357 0.580365658 0.796417534
v -107.51357 0.752305984 0.825000048
v -119.24921 49.5443487 0.825000048
v -107.51357 -0.225305557 0.662436724
v -107.51357 49.5443487 0.825000048
f 1 2 3
f 1 3 4
f 1 4 12
f 1 12 5
f 1 5 16
f 1 16 6
f 1 6 8
f 1 8 2
f 2 7 3
f 2 8 9
f 2 9 7
f 3 7 10
f 3 10 11
f 3 11 4
f 4 11 21
f 4 21 12
f 5 12 13
f 5 13 14
f 5 14 15
f 5 15 16
f 6 16 15
f 6 15 25
f 6 25 30
f 6 30 32
f 6 32 26
f 6 26 19
f 6 19 9
f 6 9 8
f 7 17 18
f 7 18 10
f 7 9 19
f 7 19 26
f 7 26 17
f 10 18 20
f 10 20 22
f 10 22 11
f 11 22 27
f 11 27 21
f 12 21 13
f 13 23 14
f 13 21 24
f 13 24 23
f 14 23 30
f 14 30 25
f 14 25 15
f 17 26 32
f 17 32 29
f 17 29 28
f 17 28 31
f 17 31 27
f 17 27 22
f 17 22 20
f 17 20 18
f 21 27 31
f 21 31 24
f 23 24 28
f 23 28 29
f 23 29 32
f 23 32 30
f 24 31 28
