v 0.63795805 73.0711985 -0.2500633
v 0.63795805 73.0711985 -1.7499367
v 0.221335888 73.0711985 0.662436724
v 0.445189476 49.5492625 0.176174581
v 0.63795805 49.5492625 -0.2500633
v 0.63795805 49.5492625 -1.7499367
v 0.221335888 73.0711985 -2.66243672
v -0.543504953 73.0711985 0.789986491
v -0.232594013 49.5492625 0.738180518
v 0.221335888 49.5492625 0.662436724
v 0.221335888 49.5492625 -2.66243672
v 0.0161361694 73.0711985 -2.69709265
v -0.75492382 73.0711985 0.825000048
v -0.75492382 49.5492625 0.825000048
v -0.294774771 49.5492625 -2.74889863
v -0.75492382 73.0711985 -2.82464242
v -62.8875232 73.0711985 0.825000048
v -62.8875232 49.5492625 0.825000048
v -0.75492382 49.5492625 -2.82464242
v -62.8875232 73.0711985 -2.82464242
v -62.8875232 49.5492625 -2.82464242
f 1 2 7
f 1 7 12
f 1 12 16
f 1 16 20
f 1 20 17
f 1 17 13
f 1 13 8
f 1 8 3
f 1 3 4
f 1 4 5
f 1 5 6
f 1 6 2
f 2 6 11
f 2 11 7
f 3 8 9
f 3 9 10
f 3 10 4
f 4 10 9
f 4 9 14
f 4 14 18
f 4 18 21
f 4 21 19
f 4 19 15
f 4 15 11
f 4 11 6
f 4 6 5
f 7 11 12
f 8 13 14
f 8 14 9
f 11 15 12
f 12 15 16
f 13 17 18
f 13 18 14
f 15 19 16
f 16 19 21
f 16 21 20
f 17 20 21
f 17 21 18
