v 0.63795805 114.693407 -0.250315428
v 0.63795805 114.693407 -1.74968457
v 0.222465992 114.693407 0.662095189
v 0.63795805 73.0716312 -0.250315428
v 0.63795805 73.0716312 -1.74968457
v 0.222465992 114.693407 -2.66209519
v -0.750968456 114.693407 0.824285686
v -0.750968456 77.5002587 0.82464242
v 0.222465992 73.0716312 0.662095189
v 0.222465992 73.0716312 -2.66209519
v -0.750968456 77.5002587 -2.82428479
v -0.750968456 114.693407 -2.82392716
v -119.249032 114.693407 0.824285686
v -119.249032 77.5002587 0.82464242
v -0.750968456 73.0716312 0.82464242
v -0.750968456 73.0716312 -2.82428479
v -119.249032 77.5002587 -2.82428479
v -119.249032 114.693407 -2.82392716
v -120.222466 114.693407 0.662095189
v -119.249032 73.0716312 0.82464242
v -119.249032 73.0716312 -2.82428479
v -120.222466 114.693407 -2.66209519
v -120.637958 114.693407 -0.250315428
v -120.222466 73.0716312 0.662095189
v -120.222466 73.0716312 -2.66209519
v -120.637958 114.693407 -1.74968457
v -120.637958 73.0716312 -0.250315428
v -120.637958 73.0716312 -1.74968457
f 1 2 6
f 1 6 12
f 1 12 18
f 1 18 22
f 1 22 26
f 1 26 23
f 1 23 19
f 1 19 13
f 1 13 7
f 1 7 3
f 1 3 9
f 1 9 4
f 1 4 5
f 1 5 2
f 2 5 10
f 2 10 6
f 3 7 8
f 3 8 15
f 3 15 9
f 4 9 15
f 4 15 20
f 4 20 24
f 4 24 27
f 4 27 28
f 4 28 25
f 4 25 21
f 4 21 16
f 4 16 10
f 4 10 5
f 6 10 16
f 6 16 11
f 6 11 12
f 7 13 14
f 7 14 8
f 8 14 20
f 8 20 15
f 11 16 21
f 11 21 17
f 11 17 18
f 11 18 12
f 13 19 14
f 14 19 24
f 14 24 20
f 17 21 25
f 17 25 22
f 17 22 18
f 19 23 27
f 19 27 24
f 22 25 28
f 22 28 26
f 23 26 28
f 23 28 27
