v 89.9999988 100 40.027602
v 89.9999988 40.006651 40.027602
v 89.9999988 100 0
v 1.1920929e-06 100 40.027602
v 89.9999988 20.0036436 39.9962559
v 1.1920929e-06 40.006651 40.027602
v 89.9999988 19.9252605 0
v 1.1920929e-06 100 0
v 89.9999988 19.9252605 20.0020462
v 1.1920929e-06 20.0036436 39.9962559
v 1.1920929e-06 19.9252605 0
v 1.1920929e-06 19.9252605 20.0020462
f 1 2 5
f 1 5 9
f 1 9 7
f 1 7 3
f 1 3 8
f 1 8 4
f 1 4 6
f 1 6 2
f 2 6 10
f 2 10 5
f 3 7 11
f 3 11 8
f 4 8 11
f 4 11 12
f 4 12 10
f 4 10 6
f 5 10 12
f 5 12 9
f 7 9 12
f 7 12 11
