v -0.756247342 81.8255121 81.2112638
v -0.729375482 80.7135147 81.2112638
v -0.756247342 81.8255121 98.8124633
v -0.756247342 219.310655 81.2112638
v -0.720416009 80.4494119 81.2112638
v -0.720416009 80.4494119 98.8124633
v -0.541262627 80.4494119 99.9221069
v -0.559175014 81.8255121 99.9527159
v -0.756247342 219.310655 98.8124633
v -0.559175014 220.241961 81.2112638
v -0.603965819 79.4347131 81.2112638
v -0.532303154 79.587611 98.8124633
v -0.478556156 79.6432102 99.7614002
v 0.31868279 80.4494119 100.499883
v 0.31868279 81.8255121 100.582151
v -0.559175014 219.310655 99.9527159
v -0.496471822 220.158563 99.8015752
v -0.559175014 220.241961 98.8124633
v 0.139529407 220.547757 81.2112638
v -0.559175014 79.2401093 81.2112638
v 0.31868279 78.8509083 81.2112638
v 0.31868279 79.3374079 98.8124633
v 0.31868279 79.5459116 99.9603707
v 1.68922305 80.4494119 100.654849
v 1.68922305 81.8255121 100.756249
v 0.31868279 217.934548 100.582151
v 0.31868279 219.310655 100.564933
v 0.31868279 220.31146 100.023503
v 0.31868279 220.617256 98.8124633
v 0.31868279 220.617256 81.2112638
v 1.68922305 78.7536097 81.2112638
v 1.68922305 79.2540091 98.8124633
v 1.68922305 79.5042121 100.027329
v 88.3107769 80.4494119 100.654849
v 88.3107769 81.8255121 100.756249
v 1.68922305 217.934548 100.756249
v 1.68922305 219.310655 100.721811
v 1.68922305 220.36706 100.092379
v 1.68922305 220.756254 98.8124633
v 1.68922305 220.756254 81.2112638
v 88.3107769 78.7536097 81.2112638
v 88.3107769 79.2540091 98.8124633
v 88.3107769 79.5042121 100.027329
v 89.6813172 80.4494119 100.499883
v 89.6813172 79.5459116 99.9603707
v 89.6813172 81.8255121 100.582151
v 88.3107769 217.934548 100.756249
v 88.3107769 219.310655 100.721811
v 88.3107769 220.36706 100.092379
v 88.3107769 220.756254 98.8124633
v 88.3107769 220.756254 81.2112638
v 89.7081891 78.8509083 81.2112638
v 89.6813172 79.3374079 98.8124633
v 90.5412626 80.4494119 99.9221069
v 90.4785562 79.6432102 99.7614002
v 90.559175 81.8255121 99.9527159
v 89.6813172 217.934548 100.582151
v 89.6813172 219.310655 100.564933
v 89.6813172 220.31146 100.023503
v 89.6813172 220.617256 98.8124633
v 89.4125822 220.645056 81.2112638
v 90.559175 79.2401093 81.2112638
v 90.5323032 79.587611 98.8124633
v 90.720416 80.4494119 98.8124633
v 90.7562473 81.8255121 98.8124633
v 90.559175 219.310655 99.9527159
v 90.4964718 220.158563 99.8015752
v 90.559175 220.241961 98.8124633
v 89.6813172 220.617256 81.2112638
v 90.720416 80.4494119 81.2112638
v 90.7562473 81.8255121 81.2112638
v 90.7562473 219.310655 98.8124633
v 90.559175 220.241961 81.2112638
v 90.7562473 219.310655 81.2112638
f 1 2 3
f 1 3 9
f 1 9 4
f 1 4 10
f 1 10 19
f 1 19 30
f 1 30 40
f 1 40 51
f 1 51 61
f 1 61 69
f 1 69 73
f 1 73 74
f 1 74 71
f 1 71 70
f 1 70 62
f 1 62 52
f 1 52 41
f 1 41 31
f 1 31 21
f 1 21 20
f 1 20 11
f 1 11 5
f 1 5 2
f 2 5 6
f 2 6 3
f 3 6 7
f 3 7 8
f 3 8 16
f 3 16 9
f 4 9 18
f 4 18 10
f 5 11 6
f 6 11 12
f 6 12 13
f 6 13 7
f 7 14 15
f 7 15 8
f 7 13 14
f 8 15 26
f 8 26 16
f 9 16 17
f 9 17 18
f 10 18 19
f 11 20 12
f 12 20 21
f 12 21 22
f 12 22 13
f 13 22 23
f 13 23 14
f 14 24 25
f 14 25 15
f 14 23 24
f 15 25 36
f 15 36 26
f 16 26 27
f 16 27 17
f 17 28 29
f 17 29 18
f 17 27 28
f 18 29 19
f 19 29 30
f 21 31 22
f 22 31 32
f 22 32 23
f 23 32 33
f 23 33 24
f 24 34 35
f 24 35 25
f 24 33 43
f 24 43 34
f 25 35 47
f 25 47 36
f 26 36 27
f 27 37 28
f 27 36 37
f 28 38 39
f 28 39 29
f 28 37 38
f 29 39 40
f 29 40 30
f 31 41 42
f 31 42 32
f 32 42 43
f 32 43 33
f 34 44 35
f 34 43 45
f 34 45 44
f 35 44 46
f 35 46 57
f 35 57 47
f 36 47 48
f 36 48 37
f 37 48 49
f 37 49 38
f 38 49 50
f 38 50 39
f 39 50 51
f 39 51 40
f 41 52 53
f 41 53 42
f 42 53 45
f 42 45 43
f 44 54 46
f 44 45 55
f 44 55 54
f 45 53 55
f 46 54 56
f 46 56 66
f 46 66 57
f 47 57 58
f 47 58 48
f 48 58 59
f 48 59 49
f 49 59 50
f 50 59 60
f 50 60 61
f 50 61 51
f 52 62 63
f 52 63 53
f 53 63 55
f 54 55 64
f 54 64 65
f 54 65 56
f 55 63 64
f 56 65 72
f 56 72 66
f 57 66 58
f 58 66 67
f 58 67 59
f 59 67 60
f 60 67 68
f 60 68 73
f 60 73 69
f 60 69 61
f 62 70 64
f 62 64 63
f 64 70 71
f 64 71 65
f 65 71 74
f 65 74 72
f 66 72 67
f 67 72 68
f 68 72 74
f 68 74 73
