v -0.756247342 0.696498156 1.18911028
v -0.559175014 0.696498156 0.0467661023
v -0.496471822 -0.149134398 0.198516548
v -0.559175014 -0.235863924 1.18911028
v -0.756247342 0.696498156 19.0619591
v -0.756247342 219.303502 1.18911028
v 0.31868279 2.06252098 -0.581314862
v 0.31868279 0.696498156 -0.564454794
v -0.559175014 219.303502 0.0467661023
v 0.31868279 -0.300917625 -0.0227886438
v 0.31868279 -0.626159906 1.18911028
v -0.559175014 -0.235863924 19.0619591
v -0.496471822 -0.149134398 19.9640334
v -0.559175014 0.696498156 20.0715208
v -0.756247342 21.3169348 20.775477
v -0.756247342 219.303502 20.775477
v -0.559175014 220.235864 1.18911028
v -0.496471822 220.149134 0.198516548
v 1.68922305 2.06252098 -0.75624913
v 0.31868279 217.937479 -0.581314862
v 1.68922305 0.696498156 -0.720417798
v 0.31868279 219.303502 -0.564454794
v 1.68922305 -0.365958214 -0.0923401117
v 1.68922305 -0.756254196 1.18911028
v 0.31868279 -0.626159906 19.0619591
v 0.31868279 0.696498156 20.5541718
v 0.31868279 -0.300917625 20.1410756
v -0.621881485 20.0810128 20.775477
v -0.559175014 220.235864 20.775477
v 0.31868279 220.62616 1.18911028
v 0.31868279 220.300918 -0.0227886438
v 88.3107769 2.06252098 -0.75624913
v 1.68922305 217.937479 -0.75624913
v 88.3107769 0.696498156 -0.720417798
v 1.68922305 219.303502 -0.720417798
v 88.3107769 -0.365958214 -0.0923401117
v 1.68922305 -0.756254196 19.0619591
v 88.3107769 -0.756254196 1.18911028
v 1.68922305 0.696498156 20.7143539
v 1.68922305 2.06252098 20.7544011
v -0.595006347 19.8641825 20.775477
v 1.68922305 -0.365958214 20.210627
v 0.31868279 220.62616 20.775477
v 1.68922305 220.756254 1.18911028
v 1.68922305 220.365958 -0.0923401117
v 89.6813172 2.06252098 -0.581314862
v 89.6813172 0.696498156 -0.564454794
v 88.3107769 217.937479 -0.75624913
v 89.6813172 -0.300917625 -0.0227886438
v 88.3107769 219.303502 -0.720417798
v 88.3107769 -0.756254196 19.0619591
v 89.6813172 -0.626159906 1.18911028
v 88.3107769 0.696498156 20.7143539
v 88.3107769 2.06252098 20.7544011
v 1.68922305 17.28392 20.775477
v 0.238063931 18.0428231 20.775477
v -0.43376863 19.0185499 20.775477
v 88.3107769 -0.365958214 20.210627
v 1.68922305 220.756254 20.775477
v 88.3107769 220.756254 1.18911028
v 88.3107769 220.365958 -0.0923401117
v 90.559175 0.696498156 0.0467661023
v 89.6813172 217.937479 -0.581314862
v 90.4964718 -0.149134398 0.198516548
v 89.6813172 219.303502 -0.564454794
v 89.6813172 220.300918 -0.0227886438
v 89.6813172 -0.626159906 19.0619591
v 89.6813172 -0.300917625 20.1410756
v 90.559175 -0.235863924 1.18911028
v 89.6813172 0.696498156 20.5541718
v 90.5950063 19.8641825 20.775477
v 90.4964718 19.6039873 20.775477
v 89.7619361 18.0428231 20.775477
v 88.5257649 17.392332 20.775477
v 88.3107769 17.28392 20.775477
v 88.3107769 220.756254 20.775477
v 89.6813172 220.62616 1.18911028
v 90.7562473 0.696498156 1.18911028
v 90.559175 219.303502 0.0467661023
v 90.4964718 220.149134 0.198516548
v 90.559175 -0.235863924 19.0619591
v 90.4964718 -0.149134398 19.9640334
v 90.559175 0.696498156 20.0715208
v 90.7562473 21.3169348 20.775477
v 89.6813172 220.62616 20.775477
v 90.559175 220.235864 1.18911028
v 90.7562473 0.696498156 19.0619591
v 90.7562473 219.303502 1.18911028
v 90.7562473 219.303502 20.775477
v 90.559175 220.235864 20.775477
f 1 2 3
f 1 3 4
f 1 4 12
f 1 12 5
f 1 5 15
f 1 15 16
f 1 16 6
f 1 6 9
f 1 9 2
f 2 7 8
f 2 8 3
f 2 9 20
f 2 20 7
f 3 8 10
f 3 10 11
f 3 11 4
f 4 11 25
f 4 25 12
f 5 12 13
f 5 13 14
f 5 14 15
f 6 16 29
f 6 29 17
f 6 17 18
f 6 18 9
f 7 19 8
f 7 20 33
f 7 33 19
f 8 19 21
f 8 21 10
f 9 18 22
f 9 22 20
f 10 21 23
f 10 23 24
f 10 24 11
f 11 24 37
f 11 37 25
f 12 25 13
f 13 26 14
f 13 25 27
f 13 27 26
f 14 26 15
f 15 26 28
f 15 28 41
f 15 41 57
f 15 57 56
f 15 56 55
f 15 55 75
f 15 75 74
f 15 74 73
f 15 73 72
f 15 72 71
f 15 71 84
f 15 84 89
f 15 89 90
f 15 90 85
f 15 85 76
f 15 76 59
f 15 59 43
f 15 43 29
f 15 29 16
f 17 29 43
f 17 43 30
f 17 30 18
f 18 30 31
f 18 31 22
f 19 32 34
f 19 34 21
f 19 33 48
f 19 48 32
f 20 22 33
f 21 34 36
f 21 36 23
f 22 35 33
f 22 31 35
f 23 36 38
f 23 38 24
f 24 38 51
f 24 51 37
f 25 37 27
f 26 27 39
f 26 39 40
f 26 40 41
f 26 41 28
f 27 42 39
f 27 37 42
f 30 43 59
f 30 59 44
f 30 44 31
f 31 44 45
f 31 45 35
f 32 46 47
f 32 47 34
f 32 48 63
f 32 63 46
f 33 35 50
f 33 50 48
f 34 47 49
f 34 49 36
f 35 45 61
f 35 61 50
f 36 49 38
f 37 51 58
f 37 58 42
f 38 49 52
f 38 52 67
f 38 67 51
f 39 42 58
f 39 58 53
f 39 53 54
f 39 54 40
f 40 54 75
f 40 75 55
f 40 55 56
f 40 56 57
f 40 57 41
f 44 59 76
f 44 76 60
f 44 60 61
f 44 61 45
f 46 62 47
f 46 63 79
f 46 79 62
f 47 62 64
f 47 64 49
f 48 50 65
f 48 65 63
f 49 64 52
f 50 61 66
f 50 66 65
f 51 67 68
f 51 68 58
f 52 64 69
f 52 69 81
f 52 81 67
f 53 70 54
f 53 58 68
f 53 68 70
f 54 70 71
f 54 71 72
f 54 72 73
f 54 73 74
f 54 74 75
f 60 77 66
f 60 66 61
f 60 76 85
f 60 85 77
f 62 78 64
f 62 79 88
f 62 88 78
f 63 65 79
f 64 78 69
f 65 66 80
f 65 80 79
f 66 77 80
f 67 81 82
f 67 82 68
f 68 82 70
f 69 78 87
f 69 87 81
f 70 82 83
f 70 83 84
f 70 84 71
f 77 85 90
f 77 90 86
f 77 86 80
f 78 88 89
f 78 89 84
f 78 84 87
f 79 80 88
f 80 86 88
f 81 87 82
f 82 87 83
f 83 87 84
f 86 90 89
f 86 89 88
