v -0.756247342 61.1905068 60.9439453
v -0.666669011 60.3776962 60.9439453
v -0.756247342 61.1905068 78.1855488
v -0.756247342 219.305947 60.9439453
v -0.586050153 59.8836368 60.9439453
v -0.559175014 60.0589448 78.1855488
v -0.541262627 60.0908226 79.562498
v -0.720416009 61.1905068 79.562498
v -0.756247342 81.8135661 81.2112638
v -0.756247342 219.305947 81.2112638
v -0.666669011 219.736264 60.9439453
v -0.272527635 59.262073 60.9439453
v 0.220148265 58.5448891 60.9439453
v 0.31868279 59.4214487 78.1855488
v 0.31868279 59.5011365 79.562498
v -0.478556156 60.2501982 80.3640643
v -0.532303154 61.1905068 80.4216009
v -0.729375482 80.7138819 81.2112638
v -0.559175014 220.246263 81.2112638
v -0.559175014 220.246263 60.9439453
v 0.327642262 58.4811401 60.9439453
v 1.68922305 57.9552031 60.9439453
v 0.31868279 60.0430125 80.4612842
v 1.68922305 59.2461407 78.1855488
v 1.68922305 59.3576998 79.562498
v 0.31868279 61.1905068 80.6755641
v -0.603965819 79.4388896 81.2112638
v -0.720416009 80.4429471 81.2112638
v 0.139529407 220.549068 81.2112638
v -0.0844147801 220.453448 60.9439453
v 3.06871623 57.9392642 60.9439453
v 1.68922305 59.9792635 80.5029476
v 1.68922305 61.1905068 80.7549274
v 88.3107769 59.2461407 78.1855488
v 88.3107769 59.3576998 79.562498
v -0.559175014 79.2316973 81.2112638
v 0.31868279 220.612824 81.2112638
v 0.31868279 220.612824 60.9439453
v 86.9312838 57.9392642 60.9439453
v 88.3107769 59.9792635 80.5029476
v 88.3107769 61.1905068 80.7549274
v 1.66234791 78.7695158 81.2112638
v 0.31868279 78.8492036 81.2112638
v 89.6813172 59.5011365 79.562498
v 88.3107769 57.9552031 60.9439453
v 89.6813172 60.0430125 80.4612842
v 1.68922305 220.756254 81.2112638
v 1.06217802 220.692499 60.9439453
v 89.6813172 61.1905068 80.6755641
v 90.559175 79.2316973 81.2112638
v 89.6813172 78.8492036 81.2112638
v 88.3107769 78.7695158 81.2112638
v 89.6813172 59.4214487 78.1855488
v 90.5412626 60.0908226 79.562498
v 90.4785562 60.2501982 80.3640643
v 88.4361866 57.9870808 60.9439453
v 1.68922305 220.756254 60.9439453
v 88.3107769 220.756254 81.2112638
v 90.5323032 61.1905068 80.4216009
v 90.720416 80.4429471 81.2112638
v 89.6723577 58.4811401 60.9439453
v 90.559175 60.0589448 78.1855488
v 90.7562473 61.1905068 78.1855488
v 90.720416 61.1905068 79.562498
v 88.3107769 220.756254 60.9439453
v 89.4125822 220.644689 81.2112638
v 90.7562473 81.8135661 81.2112638
v 90.3262746 59.325822 60.9439453
v 90.5860502 59.8836368 60.9439453
v 90.7562473 61.1905068 60.9439453
v 89.6813172 220.612824 60.9439453
v 89.6813172 220.612824 81.2112638
v 90.7562473 219.305947 81.2112638
v 90.7562473 219.305947 60.9439453
v 90.1560774 220.421571 60.9439453
v 90.559175 220.246263 81.2112638
v 90.559175 220.246263 60.9439453
f 1 2 3
f 1 3 9
f 1 9 10
f 1 10 4
f 1 4 11
f 1 11 20
f 1 20 30
f 1 30 38
f 1 38 48
f 1 48 57
f 1 57 65
f 1 65 71
f 1 71 75
f 1 75 77
f 1 77 74
f 1 74 70
f 1 70 69
f 1 69 68
f 1 68 61
f 1 61 56
f 1 56 45
f 1 45 39
f 1 39 31
f 1 31 22
f 1 22 21
f 1 21 13
f 1 13 12
f 1 12 5
f 1 5 2
f 2 5 3
f 3 5 6
f 3 6 7
f 3 7 8
f 3 8 9
f 4 10 11
f 5 12 6
f 6 12 13
f 6 13 7
f 7 14 15
f 7 15 16
f 7 16 8
f 7 13 14
f 8 16 17
f 8 17 9
f 9 17 18
f 9 18 28
f 9 28 27
f 9 27 36
f 9 36 43
f 9 43 42
f 9 42 52
f 9 52 51
f 9 51 50
f 9 50 60
f 9 60 67
f 9 67 73
f 9 73 76
f 9 76 72
f 9 72 66
f 9 66 58
f 9 58 47
f 9 47 37
f 9 37 29
f 9 29 19
f 9 19 10
f 10 19 11
f 11 19 20
f 13 21 14
f 14 21 22
f 14 22 15
f 15 23 16
f 15 22 24
f 15 24 25
f 15 25 23
f 16 23 26
f 16 26 17
f 17 26 27
f 17 27 28
f 17 28 18
f 19 29 30
f 19 30 20
f 22 31 24
f 23 25 32
f 23 32 33
f 23 33 26
f 24 31 39
f 24 39 34
f 24 34 35
f 24 35 25
f 25 35 40
f 25 40 32
f 26 33 36
f 26 36 27
f 29 37 38
f 29 38 30
f 32 40 41
f 32 41 33
f 33 41 52
f 33 52 42
f 33 42 43
f 33 43 36
f 34 44 35
f 34 39 45
f 34 45 44
f 35 44 46
f 35 46 40
f 37 47 48
f 37 48 38
f 40 46 41
f 41 46 49
f 41 49 50
f 41 50 51
f 41 51 52
f 44 53 54
f 44 54 55
f 44 55 46
f 44 45 56
f 44 56 53
f 46 55 49
f 47 57 48
f 47 58 65
f 47 65 57
f 49 55 59
f 49 59 50
f 50 59 60
f 53 56 61
f 53 61 54
f 54 62 63
f 54 63 64
f 54 64 55
f 54 61 62
f 55 64 59
f 58 66 65
f 59 64 67
f 59 67 60
f 61 68 62
f 62 68 69
f 62 69 63
f 63 69 70
f 63 70 74
f 63 74 73
f 63 73 67
f 63 67 64
f 65 66 71
f 66 72 71
f 71 72 75
f 72 76 75
f 73 74 77
f 73 77 76
f 75 76 77
