v -0.756247342 21.3257205 20.775477
v -0.621881485 20.0908542 20.775477
v -0.756247342 21.3257205 38.3123046
v -0.756247342 219.302295 20.775477
v -0.595006347 19.8518562 20.775477
v -0.559175014 20.0709355 38.3123046
v -0.523346961 20.1506102 39.6865468
v -0.684584677 21.3257205 39.6865468
v -0.756247342 41.939981 40.8602566
v -0.756247342 219.302295 40.8602566
v -0.559175014 220.238408 20.775477
v -0.43376863 19.0153241 20.775477
v 0.26493907 19.3738341 38.3123046
v 0.238063931 18.0393875 20.775477
v -0.451684296 20.3697026 40.4552576
v 0.435136259 19.4734275 39.5685862
v -0.496471822 21.3257205 40.4965439
v -0.747291148 40.565697 40.8602566
v -0.559175014 220.238408 40.8602566
v -0.43376863 220.298164 40.8602566
v 0.31868279 220.616837 20.775477
v 1.68922305 17.3024487 20.775477
v 0.972599685 19.2543352 39.0318653
v 0.31868279 21.3257205 40.6872474
v 0.31868279 20.1506102 40.5319327
v 1.68922305 19.3738341 39.7356977
v -0.738331676 40.3665233 40.8602566
v 0.31868279 220.616837 40.8602566
v 1.68922305 220.756254 20.775477
v 1.8325451 17.2825301 20.775477
v 1.68922305 19.2543352 39.0475935
v 1.68922305 21.3257205 40.756058
v -0.550218821 38.8528216 40.8602566
v 1.68922305 20.0709355 40.5653545
v 88.3107769 19.3738341 39.7356977
v 1.68922305 220.756254 40.8602566
v 88.3107769 220.756254 20.775477
v 86.9312838 17.2825301 20.775477
v 88.3107769 19.2543352 39.0475935
v 88.3107769 21.3257205 40.756058
v 2.95226604 37.6976299 40.8602566
v 1.68922305 37.7175486 40.8602566
v 0.31868279 38.0163026 40.8602566
v -0.138161778 38.3150566 40.8602566
v 88.3107769 20.0709355 40.5653545
v 89.0274003 19.2543352 39.0318653
v 89.5648637 19.4734275 39.5685862
v 89.6813172 20.1506102 40.5319327
v 88.3107769 220.756254 40.8602566
v 89.3409196 220.656674 20.775477
v 88.3107769 17.3024487 20.775477
v 89.6813172 21.3257205 40.6872474
v 90.5502188 38.8528216 40.8602566
v 89.6813172 38.0163026 40.8602566
v 88.3107769 37.7175486 40.8602566
v 86.9312838 37.6976299 40.8602566
v 89.7350609 19.3738341 38.3123046
v 90.523347 20.1506102 39.6865468
v 90.4516843 20.3697026 40.4552576
v 88.5078493 220.736336 40.8602566
v 89.6813172 220.616837 40.8602566
v 89.6813172 220.616837 20.775477
v 88.5257649 17.3821235 20.775477
v 90.4964718 21.3257205 40.4965439
v 90.7472911 40.565697 40.8602566
v 90.559175 20.0709355 38.3123046
v 89.7619361 18.0393875 20.775477
v 90.7562473 21.3257205 38.3123046
v 90.6845847 21.3257205 39.6865468
v 90.559175 220.238408 40.8602566
v 90.3441903 220.337988 20.775477
v 90.7562473 41.939981 40.8602566
v 90.3531465 19.2941725 21.0979033
v 90.4964718 19.6128452 20.775477
v 90.5950063 19.8518562 20.775477
v 90.7562473 21.3257205 20.775477
v 90.559175 220.238408 20.775477
v 90.7562473 219.302295 40.8602566
v 90.7562473 219.302295 20.775477
f 1 2 3
f 1 3 9
f 1 9 10
f 1 10 4
f 1 4 11
f 1 11 21
f 1 21 29
f 1 29 37
f 1 37 50
f 1 50 62
f 1 62 71
f 1 71 77
f 1 77 79
f 1 79 76
f 1 76 75
f 1 75 74
f 1 74 67
f 1 67 63
f 1 63 51
f 1 51 38
f 1 38 30
f 1 30 22
f 1 22 14
f 1 14 12
f 1 12 5
f 1 5 2
f 2 5 3
f 3 5 6
f 3 6 7
f 3 7 8
f 3 8 9
f 4 10 19
f 4 19 11
f 5 12 6
f 6 13 7
f 6 12 14
f 6 14 13
f 7 15 8
f 7 13 16
f 7 16 15
f 8 15 17
f 8 17 18
f 8 18 9
f 9 18 27
f 9 27 33
f 9 33 44
f 9 44 43
f 9 43 42
f 9 42 41
f 9 41 56
f 9 56 55
f 9 55 54
f 9 54 53
f 9 53 65
f 9 65 72
f 9 72 78
f 9 78 70
f 9 70 61
f 9 61 60
f 9 60 49
f 9 49 36
f 9 36 28
f 9 28 20
f 9 20 19
f 9 19 10
f 11 19 20
f 11 20 21
f 13 14 22
f 13 22 23
f 13 23 16
f 15 24 17
f 15 16 25
f 15 25 24
f 16 23 26
f 16 26 25
f 17 24 27
f 17 27 18
f 20 28 21
f 21 28 36
f 21 36 29
f 22 30 23
f 23 30 31
f 23 31 26
f 24 25 32
f 24 32 33
f 24 33 27
f 25 26 34
f 25 34 32
f 26 35 45
f 26 45 34
f 26 31 39
f 26 39 35
f 29 36 49
f 29 49 37
f 30 38 39
f 30 39 31
f 32 34 45
f 32 45 40
f 32 40 56
f 32 56 41
f 32 41 42
f 32 42 43
f 32 43 44
f 32 44 33
f 35 39 46
f 35 46 47
f 35 47 48
f 35 48 45
f 37 49 50
f 38 51 46
f 38 46 39
f 40 45 48
f 40 48 52
f 40 52 53
f 40 53 54
f 40 54 55
f 40 55 56
f 46 57 47
f 46 51 57
f 47 58 59
f 47 59 48
f 47 57 58
f 48 59 52
f 49 60 50
f 50 60 61
f 50 61 62
f 51 63 57
f 52 59 64
f 52 64 65
f 52 65 53
f 57 66 58
f 57 63 67
f 57 67 66
f 58 66 68
f 58 68 69
f 58 69 59
f 59 69 64
f 61 70 71
f 61 71 62
f 64 69 65
f 65 69 72
f 66 67 73
f 66 73 74
f 66 74 75
f 66 75 68
f 67 74 73
f 68 75 76
f 68 76 79
f 68 79 78
f 68 78 72
f 68 72 69
f 70 77 71
f 70 78 79
f 70 79 77
