v -0.756247342 41.9404137 40.8602574
v -0.747291148 40.5785608 40.8602574
v -0.756247342 41.9404137 58.9369366
v -0.756247342 219.304787 40.8602574
v -0.738331676 40.3635335 40.8602574
v -0.747291148 40.5785608 58.9369366
v -0.756247342 61.2035707 60.9419619
v -0.756247342 219.304787 60.9419619
v -0.666669011 219.734855 60.9419619
v -0.586050153 220.111159 40.8602574
v -0.550218821 38.8583159 40.8602574
v -0.550218821 39.664675 58.9369366
v -0.496471822 39.7363508 59.8667179
v -0.559175014 40.5785608 59.9964549
v 0.31868279 40.5785608 60.5232656
v -0.666669011 60.3792861 60.9419619
v -0.559175014 220.236585 60.9419619
v -0.559175014 220.236585 40.8602574
v -0.138161778 38.3028221 40.8602574
v 0.31868279 39.3600464 58.9369366
v 0.31868279 38.0161059 40.8602574
v 0.31868279 39.6109247 60.0514951
v 1.68922305 40.5785608 60.6805227
v 1.68922305 41.9404137 60.7552194
v 0.31868279 41.9404137 60.5684768
v -0.586050153 59.8775491 60.9419619
v -0.0844147801 220.451626 60.9419619
v 0.31868279 220.61289 40.8602574
v 1.68922305 37.7114904 40.8602574
v 1.68922305 39.2525327 58.9369366
v 1.68922305 39.5750868 60.1163636
v 88.3107769 40.5785608 60.6805227
v 88.3107769 41.9404137 60.7552194
v 3.06871623 57.9422769 60.9419619
v 1.68922305 57.9601958 60.9419619
v 0.327642262 58.4798518 60.9419619
v 0.220148265 58.5336086 60.9419619
v -0.272527635 59.2682984 60.9419619
v 0.31868279 220.61289 60.9419619
v 1.68922305 220.756254 40.8602574
v 2.95226604 37.6935649 40.8602574
v 88.3107769 39.2525327 58.9369366
v 88.3107769 39.5750868 60.1163636
v 89.6813172 39.6109247 60.0514951
v 89.6813172 40.5785608 60.5232656
v 89.6813172 41.9404137 60.5684768
v 90.5860502 59.8775491 60.9419619
v 90.3262746 59.3220553 60.9419619
v 89.6723577 58.4798518 60.9419619
v 88.4361866 57.9960337 60.9419619
v 88.3107769 57.9601958 60.9419619
v 87.047734 57.9422769 60.9419619
v 1.68922305 220.756254 60.9419619
v 88.3107769 220.756254 40.8602574
v 86.9312838 37.6935649 40.8602574
v 89.6813172 39.3600464 58.9369366
v 88.3107769 37.7114904 40.8602574
v 90.4964718 39.7363508 59.8667179
v 90.559175 40.5785608 59.9964549
v 90.7562473 61.2035707 60.9419619
v 88.3107769 220.756254 60.9419619
v 89.0542722 220.684565 60.9419619
v 89.6813172 220.61289 40.8602574
v 90.5502188 39.664675 58.9369366
v 89.6813172 38.0161059 40.8602574
v 90.7472911 40.5785608 58.9369366
v 90.7562473 41.9404137 58.9369366
v 90.7562473 219.304787 60.9419619
v 89.6813172 220.61289 60.9419619
v 89.8156831 220.559139 40.8602574
v 90.5502188 38.8583159 40.8602574
v 90.7472911 40.5785608 40.8602574
v 90.7562473 41.9404137 40.8602574
v 90.7562473 219.304787 40.8602574
v 90.559175 220.236585 60.9419619
v 90.1560774 220.415788 60.9419619
v 90.559175 220.236585 40.8602574
f 1 2 6
f 1 6 3
f 1 3 7
f 1 7 8
f 1 8 4
f 1 4 10
f 1 10 18
f 1 18 28
f 1 28 40
f 1 40 54
f 1 54 63
f 1 63 70
f 1 70 77
f 1 77 74
f 1 74 73
f 1 73 72
f 1 72 71
f 1 71 65
f 1 65 57
f 1 57 55
f 1 55 41
f 1 41 29
f 1 29 21
f 1 21 19
f 1 19 11
f 1 11 5
f 1 5 2
f 2 5 6
f 3 6 7
f 4 8 9
f 4 9 10
f 5 11 6
f 6 11 12
f 6 12 13
f 6 13 14
f 6 14 7
f 7 14 15
f 7 15 16
f 7 16 26
f 7 26 38
f 7 38 37
f 7 37 36
f 7 36 35
f 7 35 34
f 7 34 52
f 7 52 51
f 7 51 50
f 7 50 49
f 7 49 48
f 7 48 47
f 7 47 60
f 7 60 68
f 7 68 75
f 7 75 76
f 7 76 69
f 7 69 62
f 7 62 61
f 7 61 53
f 7 53 39
f 7 39 27
f 7 27 17
f 7 17 9
f 7 9 8
f 9 17 18
f 9 18 10
f 11 19 12
f 12 20 13
f 12 19 21
f 12 21 20
f 13 20 22
f 13 22 15
f 13 15 14
f 15 22 23
f 15 23 24
f 15 24 25
f 15 25 16
f 16 25 26
f 17 27 18
f 18 27 28
f 20 21 29
f 20 29 30
f 20 30 22
f 22 30 31
f 22 31 23
f 23 31 43
f 23 43 32
f 23 32 33
f 23 33 24
f 24 33 52
f 24 52 34
f 24 34 35
f 24 35 36
f 24 36 37
f 24 37 38
f 24 38 26
f 24 26 25
f 27 39 28
f 28 39 53
f 28 53 40
f 29 41 30
f 30 41 55
f 30 55 42
f 30 42 43
f 30 43 31
f 32 43 44
f 32 44 45
f 32 45 33
f 33 45 46
f 33 46 47
f 33 47 48
f 33 48 49
f 33 49 50
f 33 50 51
f 33 51 52
f 40 53 61
f 40 61 54
f 42 56 44
f 42 44 43
f 42 55 57
f 42 57 56
f 44 58 45
f 44 56 58
f 45 58 59
f 45 59 60
f 45 60 47
f 45 47 46
f 54 62 63
f 54 61 62
f 56 64 58
f 56 57 65
f 56 65 64
f 58 64 66
f 58 66 59
f 59 66 60
f 60 66 67
f 60 67 73
f 60 73 74
f 60 74 68
f 62 69 63
f 63 69 70
f 64 65 71
f 64 71 66
f 66 72 73
f 66 73 67
f 66 71 72
f 68 74 77
f 68 77 75
f 69 76 70
f 70 76 77
f 75 77 76
