v 239.988256 108.485681 0.0100491345
v 239.988256 59.8155248 0.0100491345
v 239.988256 108.485681 -2.00000009
v 216.209965 108.485681 0.0100491345
v 239.988256 59.8155248 -2.00000009
v 167.549064 59.8155248 0.0100491345
v 119.992493 108.485681 -2.00000009
v 119.992493 108.485681 -0.000182151794
v 119.992493 59.8155248 -2.00000009
v 119.992493 59.8155248 -0.000182151794
f 1 2 5
f 1 5 3
f 1 3 7
f 1 7 8
f 1 8 4
f 1 4 6
f 1 6 2
f 2 6 10
f 2 10 9
f 2 9 5
f 3 5 9
f 3 9 7
f 4 8 6
f 6 8 10
f 7 9 10
f 7 10 8
