v 181.914968 59.8107612 9.99902242
v 181.914968 59.8107612 1.02117018
v 167.540846 59.8107612 9.99902242
v 134.427618 12.3220181 9.99902242
v 127.20115 5.09104371 9.9970662
v 167.540846 59.8107612 1.02117018
v 127.20115 5.09104371 0.0110276937
v 134.427618 12.3220181 0.0110276937
v 119.980745 12.2845244 9.9970662
v 119.980745 12.2470307 9.99902242
v 127.176901 5.09104371 9.99902242
v 120.059556 12.3220181 0.0110276937
v 119.986807 12.2845244 0.0110276937
v 119.980745 5.09104371 0.0110276937
v 119.980745 12.2630954 0.0110276937
v 119.980745 5.09104371 9.99902242
f 1 2 6
f 1 6 3
f 1 3 10
f 1 10 16
f 1 16 11
f 1 11 4
f 1 4 5
f 1 5 7
f 1 7 2
f 2 7 8
f 2 8 12
f 2 12 6
f 3 6 9
f 3 9 10
f 4 11 5
f 5 11 16
f 5 16 14
f 5 14 7
f 6 12 13
f 6 13 9
f 7 14 15
f 7 15 13
f 7 13 12
f 7 12 8
f 9 13 15
f 9 15 14
f 9 14 16
f 9 16 10
