v 5.13314724 114.217987 10.0000001
v 0 114.217987 10.0000001
v 5.13314724 112.822655 10.0000001
v 5.13314724 114.217987 1.0208101
v 0 114.217987 1.0208101
v 0 59.810763 10.0000001
v 5.0798893 59.810763 10.0000001
v 5.13314724 112.758747 9.99472642
v 5.13314724 112.81733 1.0208101
v 0 59.810763 1.0208101
v 5.0798893 59.810763 1.0208101
v 5.13314724 112.758747 1.0252049
f 1 2 6
f 1 6 7
f 1 7 3
f 1 3 8
f 1 8 12
f 1 12 9
f 1 9 4
f 1 4 5
f 1 5 2
f 2 5 10
f 2 10 6
f 3 7 8
f 4 9 11
f 4 11 10
f 4 10 5
f 6 10 11
f 6 11 7
f 7 11 12
f 7 12 8
f 9 12 11
