v 216.138797 119.998873 0.0100491345
v 216.138797 119.998873 -2.00000009
v 119.980749 119.998873 0.0100491345
v 216.138797 114.919095 0.0100491345
v 216.138797 108.485684 -2.00000009
v 119.980749 119.998873 -2.00000009
v 119.980749 114.919095 0.0100491345
v 216.138797 108.485684 -0.000182151794
v 119.980749 108.485684 -2.00000009
v 119.980749 108.485684 -0.000182151794
f 1 2 6
f 1 6 3
f 1 3 7
f 1 7 4
f 1 4 8
f 1 8 5
f 1 5 2
f 2 5 9
f 2 9 6
f 3 6 9
f 3 9 10
f 3 10 7
f 4 7 10
f 4 10 8
f 5 8 10
f 5 10 9
