v 234.911306 114.90685 9.99902242
v 234.911306 112.803712 9.99902242
v 234.911306 114.90685 1.32822232
v 222.726631 114.90685 9.99902242
v 234.911306 112.803712 1.32822232
v 181.919832 59.815523 9.99902242
v 230.586004 108.4842 0.0110276937
v 222.640915 114.90685 1.32822232
v 222.640915 114.90685 9.99804431
v 216.212311 108.4842 9.99902242
v 181.919832 59.815523 0.0110276937
v 167.552726 59.815523 9.99902242
v 216.212311 108.4842 0.0110276937
v 167.552726 59.815523 0.0110276937
f 1 2 5
f 1 5 3
f 1 3 8
f 1 8 9
f 1 9 4
f 1 4 10
f 1 10 12
f 1 12 6
f 1 6 2
f 2 6 11
f 2 11 5
f 3 5 7
f 3 7 13
f 3 13 8
f 4 9 10
f 5 11 7
f 6 12 14
f 6 14 11
f 7 11 14
f 7 14 13
f 8 13 10
f 8 10 9
f 10 13 14
f 10 14 12
