v 183.629723 59.8107612 -0.000417292118
v 183.629723 59.8107612 -2.00000009
v 181.910155 59.8107612 1.02051416
v 183.629723 12.3220181 -0.000417292118
v 183.629723 5.09104371 -2.00000009
v 119.980745 59.8107612 -2.00000009
v 167.536798 59.8107612 1.02051416
v 134.428863 12.3220181 1.02051416
v 183.623493 5.09104371 -0.000417292118
v 119.980745 5.09104371 -2.00000009
v 119.980745 59.8107612 -0.000417292118
v 124.908931 17.1694458 1.02051416
v 120.067971 12.3220181 1.02051416
v 127.195458 5.09104371 0.0099311173
v 119.980745 5.09104371 0.0099311173
v 119.980745 12.2630954 0.0099311173
f 1 2 6
f 1 6 11
f 1 11 7
f 1 7 3
f 1 3 4
f 1 4 5
f 1 5 2
f 2 5 10
f 2 10 6
f 3 7 12
f 3 12 13
f 3 13 8
f 3 8 9
f 3 9 4
f 4 9 5
f 5 9 14
f 5 14 15
f 5 15 10
f 6 10 15
f 6 15 16
f 6 16 11
f 7 11 12
f 8 13 15
f 8 15 14
f 8 14 9
f 11 16 13
f 11 13 12
f 13 16 15
