v 18.0494499 114.217987 9.99902242
v 18.0494499 114.217987 1.02117018
v 5.13314724 114.217987 9.99902242
v 72.4462974 59.808026 9.99902242
v 119.974691 12.2967553 9.9970662
v 5.13314724 114.217987 1.02117018
v 119.974691 12.2967553 0.0110276937
v 72.4462974 59.808026 0.0110276937
v 5.13314724 112.819026 9.99902242
v 119.974691 12.2540402 9.99902242
v 58.091104 59.808026 0.0110276937
v 5.13314724 112.808347 1.02117018
v 119.974691 5.12040854 0.0110276937
v 5.13314724 112.754953 9.99413276
v 58.091104 59.808026 9.99902242
v 119.974691 5.12040854 9.99902242
v 5.13314724 112.754953 1.02605985
v 112.76899 5.12040854 0.0110276937
v 112.76899 5.12040854 9.99902242
f 1 2 6
f 1 6 3
f 1 3 9
f 1 9 15
f 1 15 19
f 1 19 16
f 1 16 10
f 1 10 4
f 1 4 5
f 1 5 7
f 1 7 2
f 2 7 8
f 2 8 11
f 2 11 6
f 3 6 12
f 3 12 17
f 3 17 14
f 3 14 9
f 4 10 5
f 5 10 16
f 5 16 13
f 5 13 7
f 6 11 12
f 7 13 18
f 7 18 11
f 7 11 8
f 9 14 15
f 11 17 12
f 11 18 17
f 13 16 19
f 13 19 18
f 14 19 15
f 14 17 18
f 14 18 19
