v 0.004799366 59.810763 -2.00000009
v 49.0976787 59.810763 -2.00000009
v 0.004799366 59.810763 1.02051416
v 0.004799366 114.217987 -2.00000009
v 49.0976787 59.810763 -0.00022149086
v 49.0976787 114.217987 -2.00000009
v 5.08470297 59.810763 1.02051416
v 0.004799366 114.217987 1.02051416
v 49.0976787 68.8005227 1.02051416
v 49.0976787 114.217987 -0.00022149086
v 18.0463743 114.217987 1.02051416
v 49.0976787 83.1692272 1.02051416
f 1 2 5
f 1 5 7
f 1 7 3
f 1 3 8
f 1 8 4
f 1 4 6
f 1 6 2
f 2 6 10
f 2 10 12
f 2 12 9
f 2 9 5
f 3 7 9
f 3 9 12
f 3 12 11
f 3 11 8
f 4 8 11
f 4 11 10
f 4 10 6
f 5 9 7
f 10 11 12
