v 119.974512 59.8049086 -0.000182151794
v 119.974512 12.288841 0.0100491345
v 119.974512 59.8049086 -2.00000009
v 72.4535215 59.8049086 0.0100491345
v 119.974512 -1.49213975e-13 0.0100491345
v 119.974512 -1.49213975e-13 -2.00000009
v 56.3036156 59.8049086 -2.00000009
v 58.0862761 59.8049086 0.0100491345
v 56.3036156 -1.49213975e-13 0.0100491345
v 56.3036156 -1.49213975e-13 -2.00000009
v 56.3036156 59.8049086 -0.000182151794
v 56.3036156 5.08180618 0.0100491345
f 1 2 5
f 1 5 6
f 1 6 3
f 1 3 7
f 1 7 11
f 1 11 8
f 1 8 4
f 1 4 2
f 2 4 8
f 2 8 12
f 2 12 9
f 2 9 5
f 3 6 10
f 3 10 7
f 5 9 10
f 5 10 6
f 7 10 9
f 7 9 12
f 7 12 11
f 8 11 12
