v 216.141129 114.90685 -2.00000009
v 216.141129 114.90685 0.0003913939
v 216.141129 119.999503 -2.00000009
v 239.997668 114.90685 -2.00000009
v 216.141129 114.920307 10.0000001
v 222.64364 114.90685 9.99765047
v 216.141129 119.999503 10.0000001
v 239.997668 119.999503 -2.00000009
v 239.997668 114.90685 10.0000001
v 222.734728 114.90685 10.0000001
v 239.997668 119.999503 10.0000001
f 1 2 5
f 1 5 7
f 1 7 3
f 1 3 8
f 1 8 4
f 1 4 9
f 1 9 10
f 1 10 6
f 1 6 2
f 2 6 5
f 3 7 11
f 3 11 8
f 4 8 11
f 4 11 9
f 5 6 10
f 5 10 9
f 5 9 11
f 5 11 7
