v 240 114.90685 10.0000001
v 234.91363 114.90685 10.0000001
v 240 108.4842 10.0000001
v 240 114.90685 -2.00000009
v 234.91363 114.90685 -2.00000009
v 234.91363 112.803712 10.0000001
v 234.920597 108.4842 10.0000001
v 240 59.815523 9.99882528
v 240 108.4842 -2.00000009
v 234.91363 108.4842 -2.00000009
v 234.91363 108.4842 0.0003913939
v 234.920104 59.815523 9.99882528
v 240 59.815523 0.0109633207
v 234.920104 59.815523 0.0109633207
f 1 2 6
f 1 6 7
f 1 7 3
f 1 3 8
f 1 8 13
f 1 13 9
f 1 9 4
f 1 4 5
f 1 5 2
f 2 5 10
f 2 10 11
f 2 11 6
f 3 7 12
f 3 12 8
f 4 9 10
f 4 10 5
f 6 11 12
f 6 12 7
f 8 12 14
f 8 14 13
f 9 13 14
f 9 14 10
f 10 14 12
f 10 12 11
