v 119.973807 114.217987 -0.00022149086
v 72.4593937 59.810763 1.02051416
v 119.973807 59.810763 -0.00022149086
v 119.973807 114.217987 -2.00000009
v 49.0976787 114.217987 -0.00022149086
v 49.0976787 83.1692272 1.02051416
v 58.0898952 59.810763 1.02051416
v 119.973807 59.810763 -2.00000009
v 49.0976787 114.217987 -2.00000009
v 49.0976787 68.8005227 1.02051416
v 49.0976787 59.810763 -0.00022149086
v 49.0976787 59.810763 -2.00000009
f 1 2 3
f 1 3 8
f 1 8 4
f 1 4 9
f 1 9 5
f 1 5 6
f 1 6 2
f 2 6 10
f 2 10 7
f 2 7 11
f 2 11 12
f 2 12 8
f 2 8 3
f 4 8 12
f 4 12 9
f 5 9 12
f 5 12 11
f 5 11 10
f 5 10 6
f 7 10 11
