v 119.980745 0.000500679016 -2.00000009
v 119.980745 0.000500679016 10.0000001
v 119.980745 5.09033203 -2.00000009
v 183.621025 0.000500679016 -2.00000009
v 119.980745 5.09033203 10.0000001
v 183.621025 0.000500679016 10.0000001
v 183.621025 5.12040496 -2.00000009
v 234.584856 0.00100135803 -2.00000009
v 127.182766 5.09033203 10.0000001
v 183.621025 5.12040496 0.0003913939
v 234.584856 0.00100135803 10.0000001
v 234.584856 5.12040496 -2.00000009
v 234.584856 5.07930279 10.0000001
v 234.584856 5.12040496 0.0003913939
f 1 2 5
f 1 5 3
f 1 3 7
f 1 7 12
f 1 12 8
f 1 8 4
f 1 4 6
f 1 6 2
f 2 6 11
f 2 11 13
f 2 13 9
f 2 9 5
f 3 5 10
f 3 10 7
f 4 8 11
f 4 11 6
f 5 9 14
f 5 14 10
f 7 10 14
f 7 14 12
f 8 12 14
f 8 14 13
f 8 13 11
f 9 13 14
