v 234.911299 114.906846 1.3277545
v 234.911299 112.808779 1.3277545
v 234.911299 114.906846 -2.00000009
v 222.644398 114.906846 1.3277545
v 234.343443 112.24058 1.3277545
v 234.911299 108.485681 -8.96155834e-05
v 234.911299 108.485681 -2.00000009
v 216.138797 114.906846 -2.00000009
v 216.138797 114.906846 -8.96155834e-05
v 216.221502 108.485681 1.3277545
v 230.588944 108.485681 1.3277545
v 216.138797 108.485681 -2.00000009
v 216.138797 108.485681 -8.96155834e-05
f 1 2 6
f 1 6 7
f 1 7 3
f 1 3 8
f 1 8 9
f 1 9 4
f 1 4 10
f 1 10 11
f 1 11 5
f 1 5 2
f 2 5 6
f 3 7 12
f 3 12 8
f 4 9 10
f 5 11 6
f 6 11 10
f 6 10 13
f 6 13 12
f 6 12 7
f 8 12 13
f 8 13 9
f 9 13 10
