v 56.3036156 0.000500679016 0.0100495815
v 56.3036156 0.000500679016 9.99999964
v 56.3036156 5.07980347 0.0100495815
v 119.974512 0.000500679016 0.0100495815
v 56.3036156 5.07980347 9.99999964
v 119.974512 0.000500679016 9.99999964
v 112.775306 5.12040496 0.0100495815
v 119.974512 5.12040496 0.0100495815
v 112.775306 5.12040496 9.99999964
v 119.974512 5.12040496 9.99999964
f 1 2 5
f 1 5 3
f 1 3 7
f 1 7 8
f 1 8 4
f 1 4 6
f 1 6 2
f 2 6 10
f 2 10 9
f 2 9 5
f 3 5 9
f 3 9 7
f 4 8 10
f 4 10 6
f 7 9 10
f 7 10 8
