v 240.038517 -1.34552479 -0.999662936
v 354.892087 -1.34552479 -0.999662936
v 354.892087 -0.80498457 0.716796607
v 240.038517 -0.997173786 0.0634171963
v 240.038517 -0.660839081 -3.07427651
v 354.892087 -1.21338844 -1.42007506
v 354.892087 -0.660839081 1.13787794
v 240.038517 -0.660839081 1.07428098
v 240.038517 0.396223068 -3.35410511
v 354.892087 -0.228402615 -3.19076037
v 354.892087 -0.660839081 -3.07427651
v 354.892087 1.06889606 1.69351855
v 240.038517 1.51334524 1.64933497
v 240.038517 1.51334524 -3.64866173
v 354.892087 1.51334524 -3.64866173
v 354.892087 1.51334524 1.81067163
v 240.038517 31.1470628 3.18906108
v 240.038517 118.498667 -3.64866173
v 354.892087 118.498667 -3.64866173
v 354.892087 31.0029191 3.18906108
v 240.038517 88.8649482 3.18906108
v 240.038517 120.672848 -3.07427651
v 354.892087 120.672848 -3.07427651
v 354.892087 88.98507 3.18906108
v 354.892087 118.498667 1.81067163
v 240.038517 118.498667 1.64933497
v 240.038517 121.009183 -2.06341273
v 354.892087 121.345525 -0.999662936
v 354.892087 120.672848 1.13787794
v 240.038517 120.672848 1.07428098
v 240.038517 119.61579 1.3547788
v 240.038517 121.345525 -0.999662936
f 1 2 3
f 1 3 4
f 1 4 8
f 1 8 13
f 1 13 17
f 1 17 21
f 1 21 26
f 1 26 31
f 1 31 30
f 1 30 32
f 1 32 27
f 1 27 22
f 1 22 18
f 1 18 14
f 1 14 9
f 1 9 5
f 1 5 6
f 1 6 2
f 2 6 11
f 2 11 10
f 2 10 15
f 2 15 19
f 2 19 23
f 2 23 28
f 2 28 29
f 2 29 25
f 2 25 24
f 2 24 20
f 2 20 16
f 2 16 12
f 2 12 7
f 2 7 3
f 3 7 8
f 3 8 4
f 5 9 10
f 5 10 11
f 5 11 6
f 7 12 8
f 8 12 13
f 9 14 10
f 10 14 15
f 12 16 13
f 13 16 17
f 14 18 19
f 14 19 15
f 16 20 17
f 17 20 24
f 17 24 21
f 18 22 23
f 18 23 19
f 21 24 25
f 21 25 26
f 22 27 23
f 23 27 28
f 25 29 30
f 25 30 31
f 25 31 26
f 27 32 28
f 28 32 29
f 29 32 30
