v 125.148325 -1.35753393 -0.999662936
v 240.038517 -1.35753393 -0.999662936
v 125.148325 -0.672883987 1.13653952
v 125.148325 -0.672883987 -3.07427651
v 240.038517 -0.672883987 -3.07427651
v 240.038517 -0.672883987 1.07428098
v 125.148325 1.50119305 1.80799389
v 125.148325 1.50119305 -3.64866173
v 240.038517 1.50119305 -3.64866173
v 240.038517 1.50119305 1.64933497
v 240.038517 31.1454749 3.18906108
v 125.148325 31.0253602 3.18906108
v 125.148325 118.492813 -3.64866173
v 240.038517 118.492813 -3.64866173
v 240.038517 88.8605422 3.18906108
v 125.148325 89.0046787 3.18906108
v 125.148325 120.198441 -3.19812393
v 240.038517 120.66689 -3.07427651
v 240.038517 118.492813 1.64933497
v 125.148325 118.492813 1.80799389
v 125.148325 120.66689 -3.07427651
v 125.148325 121.207402 -1.447523
v 240.038517 121.35154 -0.999662936
v 240.038517 119.609882 1.3547788
v 240.038517 120.66689 1.07428098
v 125.148325 118.961263 1.68347681
v 125.148325 121.35154 -0.999662936
v 125.148325 120.823038 0.688010693
v 125.148325 120.66689 1.13653952
f 1 2 3
f 1 3 7
f 1 7 12
f 1 12 16
f 1 16 20
f 1 20 26
f 1 26 29
f 1 29 28
f 1 28 27
f 1 27 22
f 1 22 21
f 1 21 17
f 1 17 13
f 1 13 8
f 1 8 4
f 1 4 5
f 1 5 2
f 2 5 9
f 2 9 14
f 2 14 18
f 2 18 23
f 2 23 25
f 2 25 24
f 2 24 19
f 2 19 15
f 2 15 11
f 2 11 10
f 2 10 6
f 2 6 3
f 3 6 7
f 4 8 9
f 4 9 5
f 6 10 7
f 7 10 11
f 7 11 12
f 8 13 14
f 8 14 9
f 11 15 16
f 11 16 12
f 13 17 14
f 14 17 18
f 15 19 20
f 15 20 16
f 17 21 18
f 18 21 22
f 18 22 23
f 19 24 20
f 20 24 25
f 20 25 26
f 22 27 23
f 23 27 28
f 23 28 25
f 25 28 29
f 25 29 26
