v 125.148325 50.8848283 3.1903995
v 125.148325 31.0218287 3.1903995
v 125.148325 50.472596 10.999234
v 240.038517 50.7778814 3.1903995
v 240.038517 31.1404431 3.1903995
v 125.148325 31.9357431 13.9991864
v 125.148325 50.1750889 13.9991864
v 240.038517 50.1109207 13.9991864
v 240.038517 50.3539824 10.999234
v 240.038517 32.1185231 13.9991864
v 125.148325 32.0368552 14.4181519
v 125.148325 48.9383912 16.0742524
v 240.038517 48.9325574 16.0742524
v 240.038517 49.5372945 15.0097104
v 240.038517 32.5910354 15.9345969
v 125.148325 32.5327009 15.9345969
v 125.148325 46.4999968 16.650001
v 240.038517 46.4999968 16.650001
v 240.038517 33.5710609 16.2297168
v 125.148325 32.9468787 16.0584416
v 240.038517 34.5005286 16.5090277
v 125.148325 37.5008816 16.650001
v 240.038517 37.5008816 16.650001
v 125.148325 34.5005286 16.5090277
v 240.038517 36.0386217 16.5814903
f 1 2 6
f 1 6 11
f 1 11 16
f 1 16 20
f 1 20 24
f 1 24 22
f 1 22 17
f 1 17 12
f 1 12 7
f 1 7 3
f 1 3 4
f 1 4 5
f 1 5 2
f 2 5 6
f 3 7 8
f 3 8 9
f 3 9 4
f 4 9 8
f 4 8 14
f 4 14 13
f 4 13 18
f 4 18 23
f 4 23 25
f 4 25 21
f 4 21 19
f 4 19 15
f 4 15 10
f 4 10 5
f 5 10 6
f 6 10 11
f 7 12 13
f 7 13 14
f 7 14 8
f 10 15 11
f 11 15 16
f 12 17 18
f 12 18 13
f 15 19 16
f 16 19 21
f 16 21 20
f 17 22 23
f 17 23 18
f 20 21 24
f 21 25 24
f 22 24 25
f 22 25 23
