v 118.495631 121.649995 10.9987476
v 118.495631 121.493096 13.9992369
v 125.148325 121.348264 -0.999236912
v 118.495631 121.649995 2.00125241
v 1.50258064 121.649995 10.9987476
v 118.495631 120.672383 16.0737481
v 120.444274 120.443065 15.8829885
v 120.742157 120.744796 13.9992369
v 1.50258064 121.493096 13.9992369
v 125.148325 120.817215 0.689780504
v 125.148325 121.203432 -1.44831693
v 118.495631 121.493096 -0.999236912
v 1.50258064 121.649995 2.00125241
v -0.818424225 120.817215 10.9987476
v -0.743951797 120.744796 13.9992369
v 118.495631 118.499908 16.650001
v 1.50258064 120.672383 16.0737481
v 120.667691 118.499908 16.0737481
v 121.499276 118.499908 13.9992369
v 125.148325 120.672383 1.13886008
v -0.446062088 120.443065 15.8829885
v 125.148325 120.672383 -3.07374811
v 1.50258064 121.493096 -0.999236912
v -0.743951797 120.744796 -0.999236912
v -0.818424225 120.817215 2.00125241
v -1.65000916 118.499908 10.9987476
v -1.5010643 118.499908 13.9992369
v 125.148325 82.4971801 16.650001
v 125.148325 85.4903662 16.5128919
v 1.50258064 118.499908 16.650001
v 125.148325 87.4697328 15.9386265
v -0.66947937 118.499908 16.0737481
v 125.148325 120.201681 -3.19893396
v 1.50258064 120.672383 -3.07374811
v -0.446062088 120.443065 -2.88298851
v -1.5010643 118.499908 -0.999236912
v -1.65000916 118.499908 2.00125241
v -1.65000916 1.50009155 10.9987476
v -1.5010643 1.50009155 13.9992369
v 125.148325 37.5028199 16.650001
v 1.50258064 1.50009155 16.650001
v -0.66947937 1.50009155 16.0737481
v 125.148325 118.499908 -3.65000105
v 1.50258064 118.499908 -3.65000105
v -0.66947937 118.499908 -3.07374811
v -1.5010643 1.50009155 -0.999236912
v -1.65000916 1.50009155 2.00125241
v -0.818424225 -0.817215443 10.9987476
v -0.743951797 -0.744795799 13.9992369
v -0.446062088 -0.443065166 15.8829885
v 125.148325 34.5096338 16.5089177
v 118.495631 1.50009155 16.650001
v 1.50258064 -0.672383308 16.0737481
v 125.148325 1.50009155 -3.65000105
v 1.50258064 1.50009155 -3.65000105
v -0.66947937 1.50009155 -3.07374811
v -0.446062088 -0.443065166 -2.88298851
v -0.743951797 -0.744795799 -0.999236912
v -0.818424225 -0.817215443 2.00125241
v 1.50258064 -1.64999485 10.9987476
v 1.50258064 -1.49309635 13.9992369
v 125.148325 32.9526937 16.0578507
v 120.667691 1.50009155 16.0737481
v 118.495631 -0.672383308 16.0737481
v 120.444274 -0.443065166 15.8829885
v 125.148325 -0.672383308 -3.07374811
v 1.50258064 -0.672383308 -3.07374811
v 1.50258064 -1.49309635 -0.999236912
v 1.50258064 -1.64999485 2.00125241
v 118.495631 -1.64999485 10.9987476
v 118.495631 -1.49309635 13.9992369
v 125.148325 32.5423372 15.9346523
v 121.499276 1.50009155 13.9992369
v 120.742157 -0.744795799 13.9992369
v 125.148325 -1.34826422 -0.999236912
v 125.148325 -0.672383308 1.13886008
v 118.495631 -1.49309635 -0.999236912
v 118.495631 -1.64999485 2.00125241
f 1 2 3
f 1 3 4
f 1 4 13
f 1 13 5
f 1 5 9
f 1 9 2
f 2 6 7
f 2 7 8
f 2 8 3
f 2 9 17
f 2 17 6
f 3 10 20
f 3 20 31
f 3 31 29
f 3 29 28
f 3 28 40
f 3 40 51
f 3 51 62
f 3 62 72
f 3 72 76
f 3 76 75
f 3 75 66
f 3 66 54
f 3 54 43
f 3 43 33
f 3 33 22
f 3 22 11
f 3 11 12
f 3 12 4
f 3 8 7
f 3 7 10
f 4 12 23
f 4 23 13
f 5 13 25
f 5 25 14
f 5 14 15
f 5 15 9
f 6 16 7
f 6 17 30
f 6 30 16
f 7 16 18
f 7 18 19
f 7 19 20
f 7 20 10
f 9 15 21
f 9 21 17
f 11 22 12
f 12 22 34
f 12 34 23
f 13 23 24
f 13 24 25
f 14 25 37
f 14 37 26
f 14 26 15
f 15 26 27
f 15 27 21
f 16 28 29
f 16 29 18
f 16 30 41
f 16 41 52
f 16 52 40
f 16 40 28
f 17 21 30
f 18 29 31
f 18 31 19
f 19 31 20
f 21 32 30
f 21 27 32
f 22 33 34
f 23 34 35
f 23 35 24
f 24 36 37
f 24 37 25
f 24 35 36
f 26 37 47
f 26 47 38
f 26 38 39
f 26 39 27
f 27 39 42
f 27 42 32
f 30 32 42
f 30 42 41
f 33 43 44
f 33 44 34
f 34 44 35
f 35 44 45
f 35 45 36
f 36 46 47
f 36 47 37
f 36 45 56
f 36 56 46
f 38 48 49
f 38 49 39
f 38 47 59
f 38 59 48
f 39 49 50
f 39 50 42
f 40 52 51
f 41 42 50
f 41 50 53
f 41 53 64
f 41 64 52
f 43 54 55
f 43 55 44
f 44 55 56
f 44 56 45
f 46 56 57
f 46 57 58
f 46 58 47
f 47 58 59
f 48 59 69
f 48 69 60
f 48 60 49
f 49 60 61
f 49 61 50
f 50 61 53
f 51 52 63
f 51 63 62
f 52 64 65
f 52 65 63
f 53 61 71
f 53 71 64
f 54 66 67
f 54 67 55
f 55 67 57
f 55 57 56
f 57 67 68
f 57 68 58
f 58 68 69
f 58 69 59
f 60 70 71
f 60 71 61
f 60 69 78
f 60 78 70
f 62 63 72
f 63 65 73
f 63 73 72
f 64 71 65
f 65 74 75
f 65 75 76
f 65 76 73
f 65 71 74
f 66 75 77
f 66 77 68
f 66 68 67
f 68 77 78
f 68 78 69
f 70 78 75
f 70 75 71
f 71 75 74
f 72 73 76
f 75 78 77
