v 478.498449 121.649995 10.9987476
v 478.498449 121.493096 13.9992369
v 480.744267 120.744796 13.9992369
v 480.81871 120.817215 10.9987476
v 478.498449 121.649995 2.00125241
v 361.505442 121.649995 10.9987476
v 478.498449 120.672383 16.0737481
v 480.446463 120.443065 15.8829885
v 361.505442 121.493096 13.9992369
v 481.501122 118.499908 13.9992369
v 481.637621 118.499908 10.9987476
v 480.81871 120.817215 2.00125241
v 480.744267 120.744796 -0.999236912
v 478.498449 121.493096 -0.999236912
v 361.505442 121.649995 2.00125241
v 354.892094 121.348264 -0.999236912
v 478.498449 118.499908 16.650001
v 361.505442 120.672383 16.0737481
v 480.669794 118.499908 16.0737481
v 359.259632 120.744796 13.9992369
v 359.557414 120.443065 15.8829885
v 481.501122 1.50009155 13.9992369
v 481.637621 118.499908 2.00125241
v 481.637621 1.50009155 10.9987476
v 481.501122 118.499908 -0.999236912
v 480.446463 120.443065 -2.88298851
v 478.498449 120.672383 -3.07374811
v 361.505442 121.493096 -0.999236912
v 354.892094 120.672383 -3.07374811
v 354.892094 121.215498 -0.577976316
v 478.498449 1.50009155 16.650001
v 361.505442 118.499908 16.650001
v 480.669794 1.50009155 16.0737481
v 354.892094 120.672383 1.13886008
v 358.502755 118.499908 13.9992369
v 359.321666 118.499908 16.0737481
v 480.744267 -0.744795799 13.9992369
v 480.446463 -0.443065166 15.8829885
v 481.637621 1.50009155 2.00125241
v 480.81871 -0.817215443 10.9987476
v 481.501122 1.50009155 -0.999236912
v 480.669794 118.499908 -3.07374811
v 478.498449 118.499908 -3.65000105
v 354.892094 118.499908 -3.65000105
v 478.498449 -0.672383308 16.0737481
v 361.505442 1.50009155 16.650001
v 354.892094 85.4903662 16.5128919
v 354.892094 84.8869014 16.5407118
v 354.892094 82.4971801 16.650001
v 354.892094 87.4697328 15.9386265
v 354.892094 87.0835143 16.0538765
v 478.498449 -1.49309635 13.9992369
v 478.498449 -1.64999485 10.9987476
v 480.81871 -0.817215443 2.00125241
v 480.744267 -0.744795799 -0.999236912
v 480.446463 -0.443065166 -2.88298851
v 480.669794 1.50009155 -3.07374811
v 478.498449 1.50009155 -3.65000105
v 354.892094 1.50009155 -3.65000105
v 361.505442 -0.672383308 16.0737481
v 354.892094 37.5028199 16.650001
v 354.892094 34.5096338 16.5089177
v 359.321666 1.50009155 16.0737481
v 359.557414 -0.443065166 15.8829885
v 361.505442 -1.49309635 13.9992369
v 478.498449 -1.64999485 2.00125241
v 361.505442 -1.64999485 10.9987476
v 478.498449 -1.49309635 -0.999236912
v 478.498449 -0.672383308 -3.07374811
v 354.892094 -0.672383308 -3.07374811
v 354.892094 32.5423372 15.9346523
v 358.502755 1.50009155 13.9992369
v 354.892094 -0.672383308 1.13886008
v 354.892094 -1.34826422 -0.999236912
v 359.259632 -0.744795799 13.9992369
v 361.505442 -1.64999485 2.00125241
v 361.505442 -1.49309635 -0.999236912
v 354.892094 -1.21549845 -1.41851044
f 1 2 3
f 1 3 4
f 1 4 12
f 1 12 5
f 1 5 15
f 1 15 6
f 1 6 9
f 1 9 2
f 2 7 8
f 2 8 3
f 2 9 18
f 2 18 7
f 3 10 11
f 3 11 4
f 3 8 10
f 4 11 23
f 4 23 12
f 5 12 13
f 5 13 14
f 5 14 28
f 5 28 15
f 6 15 16
f 6 16 9
f 7 17 8
f 7 18 32
f 7 32 17
f 8 17 19
f 8 19 10
f 9 16 20
f 9 20 21
f 9 21 18
f 10 19 33
f 10 33 22
f 10 22 24
f 10 24 11
f 11 24 39
f 11 39 23
f 12 23 13
f 13 23 25
f 13 25 26
f 13 26 14
f 14 26 27
f 14 27 29
f 14 29 28
f 15 28 16
f 16 29 44
f 16 44 59
f 16 59 70
f 16 70 78
f 16 78 74
f 16 74 73
f 16 73 71
f 16 71 62
f 16 62 61
f 16 61 49
f 16 49 48
f 16 48 47
f 16 47 51
f 16 51 50
f 16 50 34
f 16 34 30
f 16 30 21
f 16 21 20
f 16 28 29
f 17 31 33
f 17 33 19
f 17 32 49
f 17 49 61
f 17 61 46
f 17 46 31
f 18 21 32
f 21 30 34
f 21 34 35
f 21 35 36
f 21 36 32
f 22 37 24
f 22 33 38
f 22 38 37
f 23 39 41
f 23 41 25
f 24 37 40
f 24 40 54
f 24 54 39
f 25 41 57
f 25 57 42
f 25 42 26
f 26 43 27
f 26 42 43
f 27 43 44
f 27 44 29
f 31 45 38
f 31 38 33
f 31 46 60
f 31 60 45
f 32 36 47
f 32 47 48
f 32 48 49
f 34 50 35
f 35 50 36
f 36 50 51
f 36 51 47
f 37 38 52
f 37 52 53
f 37 53 40
f 38 45 52
f 39 54 55
f 39 55 41
f 40 53 66
f 40 66 54
f 41 55 56
f 41 56 57
f 42 57 58
f 42 58 43
f 43 58 59
f 43 59 44
f 45 60 65
f 45 65 52
f 46 61 62
f 46 62 63
f 46 63 64
f 46 64 60
f 52 65 67
f 52 67 53
f 53 67 76
f 53 76 66
f 54 66 55
f 55 66 68
f 55 68 56
f 56 68 69
f 56 69 58
f 56 58 57
f 58 69 70
f 58 70 59
f 60 64 65
f 62 71 63
f 63 72 64
f 63 71 72
f 64 72 73
f 64 73 74
f 64 74 75
f 64 75 65
f 65 75 74
f 65 74 67
f 66 76 77
f 66 77 68
f 67 74 76
f 68 77 70
f 68 70 69
f 70 77 78
f 71 73 72
f 74 78 77
f 74 77 76
