v 125.148325 89.0070462 3.19039927
v 125.148325 69.1561782 3.19039927
v 125.148325 88.074351 13.9978694
v 354.892087 88.0762947 13.9978694
v 354.892087 88.9837289 3.19039927
v 354.892087 69.1639504 3.19039927
v 354.892087 69.550631 10.997917
v 125.148325 69.5525739 10.997917
v 125.148325 87.4719858 15.9372326
v 354.892087 87.9791379 14.3904849
v 354.892087 69.8440415 13.9978694
v 125.148325 69.6030951 11.6461282
v 125.148325 85.4977798 16.5129813
v 354.892087 87.0833623 16.0544899
v 354.892087 87.4700421 15.9372326
v 354.892087 71.0701472 16.0742524
v 125.148325 70.0985894 14.4458198
v 125.148325 69.8459843 13.9978694
v 125.148325 82.499553 16.650001
v 354.892087 85.4977798 16.5129813
v 354.892087 73.5009849 16.650001
v 125.148325 71.0701472 16.0742524
v 125.148325 73.5029277 16.650001
v 240.020206 82.499553 16.650001
v 354.892087 82.4976093 16.650001
v 240.020206 73.5009849 16.650001
f 1 2 8
f 1 8 12
f 1 12 18
f 1 18 17
f 1 17 22
f 1 22 23
f 1 23 19
f 1 19 13
f 1 13 9
f 1 9 3
f 1 3 4
f 1 4 5
f 1 5 6
f 1 6 2
f 2 6 7
f 2 7 8
f 3 9 10
f 3 10 4
f 4 10 15
f 4 15 14
f 4 14 20
f 4 20 25
f 4 25 21
f 4 21 16
f 4 16 11
f 4 11 7
f 4 7 6
f 4 6 5
f 7 11 12
f 7 12 8
f 9 13 14
f 9 14 15
f 9 15 10
f 11 16 17
f 11 17 18
f 11 18 12
f 13 19 24
f 13 24 20
f 13 20 14
f 16 21 26
f 16 26 22
f 16 22 17
f 19 23 26
f 19 26 21
f 19 21 25
f 19 25 24
f 20 24 25
f 22 26 23
