v 354.892087 50.8994633 3.1903995
v 354.892087 50.4746971 10.999234
v 354.892087 30.9938997 3.1903995
v 240.038517 50.7786584 3.1903995
v 354.892087 50.4259855 11.6066028
v 240.038517 50.3538921 10.999234
v 354.892087 31.9311136 13.9991864
v 240.038517 31.1400354 3.1903995
v 354.892087 50.1765811 13.9991864
v 240.038517 50.1103333 13.9991864
v 354.892087 32.5331908 15.9345969
v 240.038517 32.5916433 15.9345969
v 240.038517 32.3617244 14.9912658
v 240.038517 32.1201146 13.9991864
v 354.892087 49.9369195 14.4194689
v 240.038517 49.5374832 15.0097104
v 240.038517 48.9315096 16.0742524
v 354.892087 34.5011437 16.5090277
v 240.038517 34.5011437 16.5090277
v 240.038517 33.569777 16.2297168
v 354.892087 48.937355 16.0742524
v 240.038517 47.7468395 16.3548794
v 354.892087 48.4443918 16.1915096
v 354.892087 37.5017881 16.650001
v 240.038517 36.0404348 16.5814903
v 240.038517 46.4998198 16.650001
v 354.892087 46.4998198 16.650001
v 240.038517 37.5017881 16.650001
f 1 2 5
f 1 5 9
f 1 9 15
f 1 15 21
f 1 21 23
f 1 23 27
f 1 27 24
f 1 24 18
f 1 18 11
f 1 11 7
f 1 7 3
f 1 3 8
f 1 8 4
f 1 4 6
f 1 6 2
f 2 6 5
f 3 7 8
f 4 8 14
f 4 14 13
f 4 13 12
f 4 12 20
f 4 20 19
f 4 19 25
f 4 25 28
f 4 28 26
f 4 26 22
f 4 22 17
f 4 17 16
f 4 16 10
f 4 10 6
f 5 6 10
f 5 10 9
f 7 11 12
f 7 12 13
f 7 13 14
f 7 14 8
f 9 10 16
f 9 16 17
f 9 17 15
f 11 18 19
f 11 19 20
f 11 20 12
f 15 17 21
f 17 22 23
f 17 23 21
f 18 24 25
f 18 25 19
f 22 26 23
f 23 26 27
f 24 27 26
f 24 26 28
f 24 28 25
